SplineFontDB: 3.0
FontName: Didont-Regular
FullName: Didont Regular
FamilyName: Didont
Weight: Regular
Copyright: Copyright (c) Thatcher Ulrich, 2012. Copyright (c) Alexey Kryukov, 2007-2008.
Version: 1.00
ItalicAngle: 0
UnderlinePosition: -352
UnderlineWidth: 96
Ascent: 1580
Descent: 468
sfntRevision: 0x00010000
LayerCount: 2
Layer: 0 0 "Back"  1
Layer: 1 0 "Fore"  0
NeedsXUIDChange: 1
XUID: [1021 387 1576619739 13738548]
FSType: 0
OS2Version: 2
OS2_WeightWidthSlopeOnly: 0
OS2_UseTypoMetrics: 1
CreationTime: 1225895254
ModificationTime: 1342575584
PfmFamily: 17
TTFWeight: 400
TTFWidth: 5
LineGap: 560
VLineGap: 0
Panose: 2 6 6 3 6 7 2 2 2 3
OS2TypoAscent: 0
OS2TypoAOffset: 1
OS2TypoDescent: 0
OS2TypoDOffset: 1
OS2TypoLinegap: 560
OS2WinAscent: 0
OS2WinAOffset: 1
OS2WinDescent: 0
OS2WinDOffset: 1
HheadAscent: 0
HheadAOffset: 1
HheadDescent: 0
HheadDOffset: 1
OS2SubXSize: 1400
OS2SubYSize: 1300
OS2SubXOff: 0
OS2SubYOff: 280
OS2SupXSize: 1400
OS2SupYSize: 1300
OS2SupXOff: 0
OS2SupYOff: 954
OS2StrikeYSize: 100
OS2StrikeYPos: 500
OS2FamilyClass: 768
OS2Vendor: '    '
OS2CodePages: 2000009b.00000000
OS2UnicodeRanges: c00000ef.500020cb.00000000.00000000
Lookup: 4 0 0 "'ccmp' Simple Glyph Composition"  {"'ccmp' Simple Glyph Composition-1"  } ['ccmp' ('grek' <'dflt' > 'latn' <'AZE ' 'CRT ' 'DEU ' 'MOL ' 'ROM ' 'TRK ' 'dflt' > ) ]
Lookup: 5 0 0 "'ccmp' Dotless Variants"  {"'ccmp' Dotless Variants-1"  } ['ccmp' ('grek' <'dflt' > 'latn' <'AZE ' 'CRT ' 'DEU ' 'MOL ' 'ROM ' 'TRK ' 'dflt' > ) ]
Lookup: 5 0 0 "'ccmp' Capital Accents"  {"'ccmp' Capital Accents-1"  } ['ccmp' ('grek' <'dflt' > 'latn' <'AZE ' 'CRT ' 'DEU ' 'MOL ' 'ROM ' 'TRK ' 'dflt' > ) ]
Lookup: 5 0 0 "'ccmp' Subsitution for Greek Accents"  {"'ccmp' Subsitution for Greek Accents-1"  } ['ccmp' ('grek' <'dflt' > 'latn' <'AZE ' 'CRT ' 'DEU ' 'MOL ' 'ROM ' 'TRK ' 'dflt' > ) ]
Lookup: 1 0 0 "'locl' Localized Forms for Greek"  {"'locl' Localized Forms for Greek-1"  } ['locl' ('grek' <'dflt' > ) ]

StartChar: .notdef
Encoding: 256 -1 0
Width: 1024
Flags: HW
LayerCount: 2
Back
SplineSet
96 0 m 1
 96 1460 l 1
 928 1460 l 1
 928 0 l 1
 96 0 l 1
192 168 m 2
 192 114.666666667 218 88 270 88 c 2
 754 88 l 2
 806 88 832 114.666666667 832 168 c 2
 832 1292 l 2
 832 1345.33333333 806 1372 754 1372 c 2
 270 1372 l 2
 218 1372 192 1345.33333333 192 1292 c 2
 192 168 l 2
276 980 m 1
 276 1058.66666667 298.833333333 1123.33333333 344.5 1174 c 128
 390.166666667 1224.66666667 450 1250 524 1250 c 0
 594 1250 649.5 1231.5 690.5 1194.5 c 128
 731.5 1157.5 752 1107.33333333 752 1044 c 0
 752 974.666666667 701.333333333 874.333333333 600 743 c 0
 574.666666667 710.333333333 558 668.833333333 550 618.5 c 128
 542 568.166666667 538 507.333333333 538 436 c 1
 442 436 l 1
 442 522.666666667 447.5 593.166666667 458.5 647.5 c 128
 469.5 701.833333333 495 755 535 807 c 0
 605 898.333333333 640 976.666666667 640 1042 c 0
 640 1076.66666667 628.333333333 1105.33333333 605 1128 c 128
 581.666666667 1150.66666667 552.666666667 1162 518 1162 c 0
 468 1162 431.5 1144.66666667 408.5 1110 c 128
 385.5 1075.33333333 373.333333333 1032 372 980 c 1
 276 980 l 1
410 274 m 128
 410 298 418.333333333 318 435 334 c 128
 451.666666667 350 472 358 496 358 c 0
 519.333333333 358 539.166666667 349.5 555.5 332.5 c 128
 571.833333333 315.5 580 296 580 274 c 0
 580 249.333333333 571.833333333 228.166666667 555.5 210.5 c 128
 539.166666667 192.833333333 519.333333333 184 496 184 c 0
 472 184 451.666666667 193 435 211 c 128
 418.333333333 229 410 250 410 274 c 128
EndSplineSet
EndChar

StartChar: exclam
Encoding: 260 33 4
Width: 528
GlyphClass: 2
Flags: HW
LayerCount: 2
Back
SplineSet
126 1343 m 4
 126 1391 137.666666667 1431.16666667 161 1463.5 c 132
 184.333333333 1495.83333333 218.666666667 1512 264 1512 c 132
 309.333333333 1512 343.666666667 1495.83333333 367 1463.5 c 132
 390.333333333 1431.16666667 402 1391 402 1343 c 4
 402 1273 394 1190.66666667 378 1096 c 4
 358.666666667 985.333333333 344.333333333 885 335 795 c 6
 292 390 l 5
 236 390 l 5
 193 795 l 6
 183.666666667 885 169.333333333 985.333333333 150 1096 c 4
 134 1190.66666667 126 1273 126 1343 c 4
136 104 m 132
 136 140 148.333333333 170.333333333 173 195 c 132
 197.666666667 219.666666667 228 232 264 232 c 132
 300 232 330.333333333 219.666666667 355 195 c 132
 379.666666667 170.333333333 392 140 392 104 c 132
 392 68 379.666666667 37.6666666667 355 13 c 132
 330.333333333 -11.6666666667 300 -24 264 -24 c 132
 228 -24 197.666666667 -11.6666666667 173 13 c 132
 148.333333333 37.6666666667 136 68 136 104 c 132
EndSplineSet
EndChar

StartChar: numbersign
Encoding: 262 35 6
Width: 1152
GlyphClass: 2
Flags: HW
LayerCount: 2
Back
SplineSet
62 430 m 1
 62 526 l 1
 277 526 l 1
 360 934 l 1
 62 934 l 1
 62 1030 l 1
 379 1030 l 1
 466 1460 l 1
 554 1460 l 1
 467 1030 l 1
 801 1030 l 1
 888 1460 l 1
 976 1460 l 1
 889 1030 l 1
 1090 1030 l 1
 1090 934 l 1
 870 934 l 1
 787 526 l 1
 1090 526 l 1
 1090 430 l 1
 767 430 l 1
 680 0 l 1
 592 0 l 1
 679 430 l 1
 345 430 l 1
 258 0 l 1
 170 0 l 1
 257 430 l 1
 62 430 l 1
365 526 m 1
 699 526 l 1
 782 934 l 1
 448 934 l 1
 365 526 l 1
EndSplineSet
EndChar

StartChar: dollar
Encoding: 263 36 7
Width: 1152
GlyphClass: 2
Flags: HW
LayerCount: 2
Back
SplineSet
74 280 m 0
 74 332.666666667 88 375.5 116 408.5 c 128
 144 441.5 181.666666667 458 229 458 c 0
 255 458 277.166666667 450.833333333 295.5 436.5 c 128
 313.833333333 422.166666667 323 402.666666667 323 378 c 0
 323 330.666666667 295.333333333 295.666666667 240 273 c 0
 219.333333333 264.333333333 205.166666667 254.833333333 197.5 244.5 c 128
 189.833333333 234.166666667 186 219.333333333 186 200 c 0
 186 167.333333333 207.5 137 250.5 109 c 128
 293.5 81 347.333333333 59.6666666667 412 45 c 1
 412 691 l 1
 363.333333333 707.666666667 321.5 725.5 286.5 744.5 c 128
 251.5 763.5 219.833333333 786.666666667 191.5 814 c 128
 163.166666667 841.333333333 141.833333333 873.666666667 127.5 911 c 128
 113.166666667 948.333333333 106 991.333333333 106 1040 c 0
 106 1130 133.666666667 1209.66666667 189 1279 c 128
 244.333333333 1348.33333333 318.666666667 1397.66666667 412 1427 c 1
 412 1544 l 1
 472 1544 l 1
 472 1443 l 1
 512 1450.33333333 552.333333333 1454 593 1454 c 0
 625.666666667 1454 654.333333333 1452.66666667 679 1450 c 1
 679 1544 l 1
 739 1544 l 1
 739 1442 l 1
 832.333333333 1425.33333333 906.166666667 1394 960.5 1348 c 128
 1014.83333333 1302 1042 1246.66666667 1042 1182 c 0
 1042 1136.66666667 1030.5 1097.33333333 1007.5 1064 c 128
 984.5 1030.66666667 952.666666667 1014 912 1014 c 0
 884 1014 861.333333333 1021.66666667 844 1037 c 128
 826.666666667 1052.33333333 818 1070.33333333 818 1091 c 0
 818 1129.66666667 838.666666667 1162.66666667 880 1190 c 0
 891.333333333 1197.33333333 899.5 1203.33333333 904.5 1208 c 128
 909.5 1212.66666667 914.333333333 1219.83333333 919 1229.5 c 128
 923.666666667 1239.16666667 926 1250.33333333 926 1263 c 0
 926 1291.66666667 908.333333333 1316.83333333 873 1338.5 c 128
 837.666666667 1360.16666667 793 1376.66666667 739 1388 c 1
 739 808 l 1
 862.333333333 769.333333333 949.333333333 722.166666667 1000 666.5 c 128
 1050.66666667 610.833333333 1076 533.333333333 1076 434 c 0
 1076 322 1045.33333333 229.333333333 984 156 c 128
 922.666666667 82.6666666667 841 32 739 4 c 1
 739 -136 l 1
 679 -136 l 1
 679 -10 l 1
 641.666666667 -16.6666666667 601 -20 557 -20 c 0
 532.333333333 -20 504 -18.3333333333 472 -15 c 1
 472 -136 l 1
 412 -136 l 1
 412 -6 l 1
 367.333333333 2.66666666667 325.666666667 14.5 287 29.5 c 128
 248.333333333 44.5 212.666666667 63.5 180 86.5 c 128
 147.333333333 109.5 121.5 137.666666667 102.5 171 c 128
 83.5 204.333333333 74 240.666666667 74 280 c 0
220 1132 m 128
 220 1078 235 1033.5 265 998.5 c 128
 295 963.5 344 932.333333333 412 905 c 1
 412 1373 l 1
 353.333333333 1350.33333333 306.666666667 1318 272 1276 c 128
 237.333333333 1234 220 1186 220 1132 c 128
472 34 m 1
 501.333333333 30 530 28 558 28 c 0
 600 28 640.333333333 32.3333333333 679 41 c 1
 679 612 l 1
 472 671 l 1
 472 34 l 1
472 883 m 1
 679 826 l 1
 679 1399 l 1
 648.333333333 1403 618.666666667 1405 590 1405 c 0
 550 1405 510.666666667 1400.33333333 472 1391 c 1
 472 883 l 1
739 58 m 1
 811 82.6666666667 869.5 120.166666667 914.5 170.5 c 128
 959.5 220.833333333 982 281 982 351 c 0
 982 411 963 459 925 495 c 128
 887 531 825 563.666666667 739 593 c 1
 739 58 l 1
EndSplineSet
EndChar

StartChar: percent
Encoding: 264 37 8
Width: 1540
GlyphClass: 2
Flags: HW
LayerCount: 2
Back
SplineSet
80 1150 m 128
 80 1210.66666667 91.6666666667 1268.33333333 115 1323 c 128
 138.333333333 1377.66666667 172 1422.16666667 216 1456.5 c 128
 260 1490.83333333 308.666666667 1508 362 1508 c 128
 415.333333333 1508 464 1490.83333333 508 1456.5 c 128
 552 1422.16666667 585.666666667 1377.66666667 609 1323 c 128
 632.333333333 1268.33333333 644 1210.66666667 644 1150 c 128
 644 1089.33333333 632.333333333 1031.66666667 609 977 c 128
 585.666666667 922.333333333 552 877.833333333 508 843.5 c 128
 464 809.166666667 415.333333333 792 362 792 c 128
 308.666666667 792 260 809.166666667 216 843.5 c 128
 172 877.833333333 138.333333333 922.333333333 115 977 c 128
 91.6666666667 1031.66666667 80 1089.33333333 80 1150 c 128
214 1150 m 128
 214 1113.33333333 216.166666667 1078.16666667 220.5 1044.5 c 128
 224.833333333 1010.83333333 232 976.666666667 242 942 c 128
 252 907.333333333 267.333333333 879.666666667 288 859 c 128
 308.666666667 838.333333333 333.333333333 828 362 828 c 128
 390.666666667 828 415.333333333 838.333333333 436 859 c 128
 456.666666667 879.666666667 472 907.333333333 482 942 c 128
 492 976.666666667 499.166666667 1010.83333333 503.5 1044.5 c 128
 507.833333333 1078.16666667 510 1113.33333333 510 1150 c 128
 510 1186.66666667 507.833333333 1221.83333333 503.5 1255.5 c 128
 499.166666667 1289.16666667 492 1323.33333333 482 1358 c 128
 472 1392.66666667 456.666666667 1420.33333333 436 1441 c 128
 415.333333333 1461.66666667 390.666666667 1472 362 1472 c 128
 333.333333333 1472 308.666666667 1461.66666667 288 1441 c 128
 267.333333333 1420.33333333 252 1392.66666667 242 1358 c 128
 232 1323.33333333 224.833333333 1289.16666667 220.5 1255.5 c 128
 216.166666667 1221.83333333 214 1186.66666667 214 1150 c 128
279 -16 m 1
 1163 1496 l 1
 1261 1496 l 1
 375 -16 l 1
 279 -16 l 1
896 330 m 128
 896 390.666666667 907.666666667 448.333333333 931 503 c 128
 954.333333333 557.666666667 988 602.166666667 1032 636.5 c 128
 1076 670.833333333 1124.66666667 688 1178 688 c 128
 1231.33333333 688 1280 670.833333333 1324 636.5 c 128
 1368 602.166666667 1401.66666667 557.666666667 1425 503 c 128
 1448.33333333 448.333333333 1460 390.666666667 1460 330 c 128
 1460 269.333333333 1448.33333333 211.666666667 1425 157 c 128
 1401.66666667 102.333333333 1368 57.8333333333 1324 23.5 c 128
 1280 -10.8333333333 1231.33333333 -28 1178 -28 c 128
 1124.66666667 -28 1076 -10.8333333333 1032 23.5 c 128
 988 57.8333333333 954.333333333 102.333333333 931 157 c 128
 907.666666667 211.666666667 896 269.333333333 896 330 c 128
1030 330 m 128
 1030 293.333333333 1032.16666667 258.166666667 1036.5 224.5 c 128
 1040.83333333 190.833333333 1048 156.666666667 1058 122 c 128
 1068 87.3333333333 1083.33333333 59.6666666667 1104 39 c 128
 1124.66666667 18.3333333333 1149.33333333 8 1178 8 c 128
 1206.66666667 8 1231.33333333 18.3333333333 1252 39 c 128
 1272.66666667 59.6666666667 1288 87.3333333333 1298 122 c 128
 1308 156.666666667 1315.16666667 190.833333333 1319.5 224.5 c 128
 1323.83333333 258.166666667 1326 293.333333333 1326 330 c 128
 1326 366.666666667 1323.83333333 401.833333333 1319.5 435.5 c 128
 1315.16666667 469.166666667 1308 503.333333333 1298 538 c 128
 1288 572.666666667 1272.66666667 600.333333333 1252 621 c 128
 1231.33333333 641.666666667 1206.66666667 652 1178 652 c 128
 1149.33333333 652 1124.66666667 641.666666667 1104 621 c 128
 1083.33333333 600.333333333 1068 572.666666667 1058 538 c 128
 1048 503.333333333 1040.83333333 469.166666667 1036.5 435.5 c 128
 1032.16666667 401.833333333 1030 366.666666667 1030 330 c 128
EndSplineSet
EndChar

StartChar: ampersand
Encoding: 265 38 9
Width: 1614
GlyphClass: 2
Flags: HW
LayerCount: 2
Back
SplineSet
122 367 m 0
 122 414.333333333 129 460 143 504 c 128
 157 548 176 588 200 624 c 128
 224 660 254.5 695.5 291.5 730.5 c 128
 328.5 765.5 367.166666667 797.5 407.5 826.5 c 128
 447.833333333 855.5 494 885.333333333 546 916 c 1
 491.333333333 1018.66666667 464 1110 464 1190 c 0
 464 1282 493.166666667 1359.66666667 551.5 1423 c 128
 609.833333333 1486.33333333 677.333333333 1518 754 1518 c 128
 830.666666667 1518 886.166666667 1496.83333333 920.5 1454.5 c 128
 954.833333333 1412.16666667 972 1357.66666667 972 1291 c 0
 972 1231.66666667 951.5 1173.5 910.5 1116.5 c 128
 869.5 1059.5 812.333333333 1007.33333333 739 960 c 1
 1098 335 l 1
 1182.66666667 475.666666667 1238.66666667 625.666666667 1266 785 c 1
 1018 785 l 1
 1018 837 l 1
 1582 837 l 1
 1582 785 l 1
 1321 785 l 1
 1281.66666667 590.333333333 1217 423.333333333 1127 284 c 1
 1174.33333333 204 1221.5 144.666666667 1268.5 106 c 128
 1315.5 67.3333333333 1365.33333333 48 1418 48 c 0
 1463.33333333 48 1506.66666667 55.6666666667 1548 71 c 1
 1568 14 l 1
 1490.66666667 -11.3333333333 1418 -24 1350 -24 c 0
 1191.33333333 -24 1074 28.3333333333 998 133 c 1
 876 28.3333333333 739.666666667 -24 589 -24 c 0
 434.333333333 -24 317 16 237 96 c 0
 201.666666667 131.333333333 173.666666667 173.166666667 153 221.5 c 128
 132.333333333 269.833333333 122 318.333333333 122 367 c 0
320 470 m 0
 320 374.666666667 343.333333333 297 390 237 c 0
 470 133.666666667 582.333333333 82 727 82 c 0
 810.333333333 82 889.666666667 115.666666667 965 183 c 1
 575 865 l 1
 489 811.666666667 425 754.333333333 383 693 c 128
 341 631.666666667 320 557.333333333 320 470 c 0
616 1288 m 0
 616 1242 621.5 1202 632.5 1168 c 128
 643.5 1134 661 1096 685 1054 c 2
 709 1013 l 1
 770.333333333 1055.66666667 817.5 1101.66666667 850.5 1151 c 128
 883.5 1200.33333333 900 1249.33333333 900 1298 c 0
 900 1412.66666667 854 1470 762 1470 c 0
 724 1470 690.166666667 1453.5 660.5 1420.5 c 128
 630.833333333 1387.5 616 1343.33333333 616 1288 c 0
EndSplineSet
EndChar

StartChar: quotesingle
Encoding: 266 39 10
Width: 528
GlyphClass: 2
Flags: HW
LayerCount: 2
Back
SplineSet
170 1412 m 0
 170 1442.66666667 178.333333333 1468 195 1488 c 128
 211.666666667 1508 234.666666667 1518 264 1518 c 128
 293.333333333 1518 316.333333333 1508 333 1488 c 128
 349.666666667 1468 358 1442.66666667 358 1412 c 0
 358 1391.33333333 354.666666667 1353.66666667 348 1299 c 2
 292 854 l 1
 236 854 l 1
 180 1299 l 2
 173.333333333 1354.33333333 170 1392 170 1412 c 0
EndSplineSet
EndChar

StartChar: parenleft
Encoding: 267 40 11
Width: 660
GlyphClass: 2
Flags: HW
LayerCount: 2
Back
SplineSet
144 488 m 128
 144 651.333333333 174.333333333 822.333333333 235 1001 c 128
 295.666666667 1179.66666667 382 1350 494 1512 c 1
 534 1484 l 1
 448 1322.66666667 386.833333333 1168.16666667 350.5 1020.5 c 128
 314.166666667 872.833333333 296 695.333333333 296 488 c 128
 296 280.666666667 314.166666667 103.166666667 350.5 -44.5 c 128
 386.833333333 -192.166666667 448 -346.666666667 534 -508 c 1
 494 -536 l 1
 382 -374 295.666666667 -203.666666667 235 -25 c 128
 174.333333333 153.666666667 144 324.666666667 144 488 c 128
EndSplineSet
EndChar

StartChar: parenright
Encoding: 268 41 12
Width: 660
GlyphClass: 2
Flags: HW
LayerCount: 2
Back
SplineSet
126 -508 m 1
 212 -346.666666667 273.166666667 -192.166666667 309.5 -44.5 c 128
 345.833333333 103.166666667 364 280.666666667 364 488 c 128
 364 695.333333333 345.833333333 872.833333333 309.5 1020.5 c 128
 273.166666667 1168.16666667 212 1322.66666667 126 1484 c 1
 166 1512 l 1
 278 1350 364.333333333 1179.66666667 425 1001 c 128
 485.666666667 822.333333333 516 651.333333333 516 488 c 128
 516 324.666666667 485.666666667 153.666666667 425 -25 c 128
 364.333333333 -203.666666667 278 -374 166 -536 c 1
 126 -508 l 1
EndSplineSet
EndChar

StartChar: asterisk
Encoding: 269 42 13
Width: 1104
GlyphClass: 2
Flags: HW
LayerCount: 2
Back
SplineSet
148 882 m 0
 148 938 197.333333333 972.666666667 296 986 c 0
 350.666666667 993.333333333 405.333333333 1012.33333333 460 1043 c 1
 474.666666667 1050.33333333 482 1058.33333333 482 1067 c 0
 482 1071 480.166666667 1075 476.5 1079 c 128
 472.833333333 1083 469.333333333 1086 466 1088 c 2
 460 1091 l 1
 405.333333333 1121.66666667 350.666666667 1140.66666667 296 1148 c 0
 197.333333333 1161.33333333 148 1196 148 1252 c 0
 148 1272.66666667 155.5 1291.33333333 170.5 1308 c 128
 185.5 1324.66666667 205.333333333 1333 230 1333 c 0
 252.666666667 1333 273.333333333 1326 292 1312 c 128
 310.666666667 1298 331 1276.33333333 353 1247 c 1
 383.666666667 1208.33333333 425 1172.66666667 477 1140 c 1
 490.333333333 1130.66666667 500.666666667 1126 508 1126 c 0
 514.666666667 1126 519.333333333 1128.16666667 522 1132.5 c 128
 524.666666667 1136.83333333 526 1145.66666667 526 1159 c 0
 526 1219 515.666666667 1275.66666667 495 1329 c 1
 477 1370.33333333 468 1401.66666667 468 1423 c 0
 468 1450.33333333 475.5 1473 490.5 1491 c 128
 505.5 1509 526 1518 552 1518 c 128
 578 1518 598.5 1509 613.5 1491 c 128
 628.5 1473 636 1450.33333333 636 1423 c 0
 636 1401.66666667 627 1370.33333333 609 1329 c 1
 588.333333333 1275.66666667 578 1219 578 1159 c 0
 578 1145.66666667 579.333333333 1136.83333333 582 1132.5 c 128
 584.666666667 1128.16666667 589.333333333 1126 596 1126 c 0
 603.333333333 1126 613.666666667 1130.66666667 627 1140 c 1
 679 1172.66666667 720.333333333 1208.33333333 751 1247 c 1
 773 1276.33333333 793.333333333 1298 812 1312 c 128
 830.666666667 1326 851.333333333 1333 874 1333 c 0
 898.666666667 1333 918.5 1324.66666667 933.5 1308 c 128
 948.5 1291.33333333 956 1272.66666667 956 1252 c 0
 956 1196 906.666666667 1161.33333333 808 1148 c 0
 753.333333333 1140.66666667 698.666666667 1121.66666667 644 1091 c 1
 629.333333333 1083.66666667 622 1075.66666667 622 1067 c 0
 622 1063 623.833333333 1059 627.5 1055 c 128
 631.166666667 1051 634.666666667 1048 638 1046 c 2
 644 1043 l 1
 698.666666667 1012.33333333 753.333333333 993.333333333 808 986 c 0
 906.666666667 972.666666667 956 938 956 882 c 0
 956 861.333333333 948.5 842.666666667 933.5 826 c 128
 918.5 809.333333333 898.666666667 801 874 801 c 0
 851.333333333 801 830.666666667 808 812 822 c 128
 793.333333333 836 773 857.666666667 751 887 c 1
 720.333333333 925.666666667 679 961.333333333 627 994 c 1
 613.666666667 1003.33333333 603.333333333 1008 596 1008 c 0
 589.333333333 1008 584.666666667 1005.83333333 582 1001.5 c 128
 579.333333333 997.166666667 578 988.333333333 578 975 c 0
 578 915 588.333333333 858.333333333 609 805 c 1
 627 763.666666667 636 732.333333333 636 711 c 0
 636 683.666666667 628.5 661 613.5 643 c 128
 598.5 625 578 616 552 616 c 128
 526 616 505.5 625 490.5 643 c 128
 475.5 661 468 683.666666667 468 711 c 0
 468 732.333333333 477 763.666666667 495 805 c 1
 515.666666667 858.333333333 526 915 526 975 c 0
 526 988.333333333 524.666666667 997.166666667 522 1001.5 c 128
 519.333333333 1005.83333333 514.666666667 1008 508 1008 c 0
 500.666666667 1008 490.333333333 1003.33333333 477 994 c 1
 425 961.333333333 383.666666667 925.666666667 353 887 c 1
 331 857.666666667 310.666666667 836 292 822 c 128
 273.333333333 808 252.666666667 801 230 801 c 0
 205.333333333 801 185.5 809.333333333 170.5 826 c 128
 155.5 842.666666667 148 861.333333333 148 882 c 0
EndSplineSet
EndChar

StartChar: plus
Encoding: 270 43 14
Width: 1152
GlyphClass: 2
Flags: HW
LayerCount: 2
Back
SplineSet
62 466 m 1
 62 562 l 1
 522 562 l 1
 522 1028 l 1
 630 1028 l 1
 630 562 l 1
 1090 562 l 1
 1090 466 l 1
 630 466 l 1
 630 0 l 1
 522 0 l 1
 522 466 l 1
 62 466 l 1
EndSplineSet
EndChar

StartChar: comma
Encoding: 271 44 15
Width: 528
GlyphClass: 2
Flags: HW
LayerCount: 2
Back
SplineSet
102 -390 m 1
 148 -349.333333333 189.166666667 -305.166666667 225.5 -257.5 c 128
 261.833333333 -209.833333333 289.333333333 -165.333333333 308 -124 c 0
 321.333333333 -94 328 -61.6666666667 328 -27 c 0
 328 8.33333333333 300 26 244 26 c 0
 214 26 188 33.8333333333 166 49.5 c 128
 144 65.1666666667 133 90.6666666667 133 126 c 128
 133 161.333333333 144.333333333 190.166666667 167 212.5 c 128
 189.666666667 234.833333333 216.666666667 246 248 246 c 0
 303.333333333 246 343.833333333 228.666666667 369.5 194 c 128
 395.166666667 159.333333333 408 117 408 67 c 0
 408 -6.33333333333 383.833333333 -86.8333333333 335.5 -174.5 c 128
 287.166666667 -262.166666667 219.666666667 -345.333333333 133 -424 c 1
 102 -390 l 1
EndSplineSet
EndChar

StartChar: hyphen
Encoding: 272 45 16
Width: 900
GlyphClass: 2
Flags: HW
LayerCount: 2
Back
SplineSet
136 346 m 1
 136 478 l 1
 764 478 l 1
 764 346 l 1
 136 346 l 1
EndSplineSet
EndChar

StartChar: period
Encoding: 273 46 17
Width: 528
GlyphClass: 2
Flags: HW
LayerCount: 2
Back
SplineSet
136 104 m 128
 136 140 148.333333333 170.333333333 173 195 c 128
 197.666666667 219.666666667 228 232 264 232 c 128
 300 232 330.333333333 219.666666667 355 195 c 128
 379.666666667 170.333333333 392 140 392 104 c 128
 392 68 379.666666667 37.6666666667 355 13 c 128
 330.333333333 -11.6666666667 300 -24 264 -24 c 128
 228 -24 197.666666667 -11.6666666667 173 13 c 128
 148.333333333 37.6666666667 136 68 136 104 c 128
EndSplineSet
EndChar

StartChar: slash
Encoding: 274 47 18
Width: 722
GlyphClass: 2
Flags: HW
LayerCount: 2
Back
SplineSet
80 -520 m 1
 540 1434 l 1
 642 1434 l 1
 182 -520 l 1
 80 -520 l 1
EndSplineSet
EndChar

StartChar: zero
Encoding: 275 48 19
Width: 1152
GlyphClass: 2
Flags: HW
LayerCount: 2
Back
SplineSet
96 700 m 0
 96 764 103 830.5 117 899.5 c 128
 131 968.5 151.833333333 1035.66666667 179.5 1101 c 128
 207.166666667 1166.33333333 239.833333333 1225 277.5 1277 c 128
 315.166666667 1329 360 1370.83333333 412 1402.5 c 128
 464 1434.16666667 518.666666667 1450 576 1450 c 128
 633.333333333 1450 688 1434.16666667 740 1402.5 c 128
 792 1370.83333333 836.833333333 1329 874.5 1277 c 128
 912.166666667 1225 944.833333333 1166.33333333 972.5 1101 c 128
 1000.16666667 1035.66666667 1021 968.5 1035 899.5 c 128
 1049 830.5 1056 764 1056 700 c 0
 1056 619.333333333 1044.83333333 537.333333333 1022.5 454 c 128
 1000.16666667 370.666666667 969 293.833333333 929 223.5 c 128
 889 153.166666667 838 95.6666666667 776 51 c 128
 714 6.33333333333 647.333333333 -16 576 -16 c 128
 504.666666667 -16 438 6.33333333333 376 51 c 128
 314 95.6666666667 263.166666667 153.166666667 223.5 223.5 c 128
 183.833333333 293.833333333 152.666666667 370.666666667 130 454 c 128
 107.333333333 537.333333333 96 619.333333333 96 700 c 0
304 700 m 0
 304 534 313.166666667 402.666666667 331.5 306 c 128
 349.833333333 209.333333333 378.5 139.5 417.5 96.5 c 128
 456.5 53.5 509.333333333 32 576 32 c 128
 642.666666667 32 695.5 53.5 734.5 96.5 c 128
 773.5 139.5 802.166666667 209.333333333 820.5 306 c 128
 838.833333333 402.666666667 848 534 848 700 c 0
 848 949.333333333 827.166666667 1128.66666667 785.5 1238 c 128
 743.833333333 1347.33333333 674 1402 576 1402 c 0
 478.666666667 1402 409 1347.16666667 367 1237.5 c 128
 325 1127.83333333 304 948.666666667 304 700 c 0
EndSplineSet
AlternateSubs2: "'aalt' Access All Alternates-1" zerooldstyle
Substitution2: "'onum' Oldstyle Figures-1" zerooldstyle
EndChar

StartChar: one
Encoding: 276 49 20
Width: 1152
GlyphClass: 2
Flags: HW
LayerCount: 2
Back
SplineSet
212 1106 m 1
 279.333333333 1130 337.833333333 1155.83333333 387.5 1183.5 c 128
 437.166666667 1211.16666667 485.333333333 1247 532 1291 c 128
 578.666666667 1335 619.333333333 1386.66666667 654 1446 c 1
 706 1446 l 1
 706 48 l 1
 970 48 l 1
 970 0 l 1
 258 0 l 1
 258 48 l 1
 522 48 l 1
 522 1185 l 1
 514 1188 l 1
 438 1135.33333333 344.333333333 1089.66666667 233 1051 c 1
 212 1106 l 1
EndSplineSet
AlternateSubs2: "'aalt' Access All Alternates-1" onesuperior oneoldstyle
Substitution2: "'sups' Superscript Forms-1" onesuperior
Substitution2: "'onum' Oldstyle Figures-1" oneoldstyle
EndChar

StartChar: two
Encoding: 277 50 21
Width: 1152
GlyphClass: 2
Flags: HW
LayerCount: 2
Back
SplineSet
114 1026 m 0
 114 1146 151.166666667 1246.66666667 225.5 1328 c 128
 299.833333333 1409.33333333 399.333333333 1450 524 1450 c 0
 598.666666667 1450 665.833333333 1438.66666667 725.5 1416 c 128
 785.166666667 1393.33333333 833.333333333 1362.5 870 1323.5 c 128
 906.666666667 1284.5 934.666666667 1240.16666667 954 1190.5 c 128
 973.333333333 1140.83333333 983 1088 983 1032 c 0
 983 973.333333333 970 912.166666667 944 848.5 c 128
 918 784.833333333 885.833333333 726.166666667 847.5 672.5 c 128
 809.166666667 618.833333333 760 561.333333333 700 500 c 128
 640 438.666666667 584.666666667 386 534 342 c 128
 483.333333333 298 424 248.666666667 356 194 c 1
 364 176 l 1
 762 176 l 2
 830 176 879.666666667 196.666666667 911 238 c 0
 940.333333333 276 960.666666667 326 972 388 c 1
 1020 380 l 1
 946 0 l 1
 116 0 l 1
 116 48 l 1
 258.666666667 164.666666667 386 286.666666667 498 414 c 0
 682.666666667 624 775 836 775 1050 c 0
 775 1150.66666667 749 1231.83333333 697 1293.5 c 128
 645 1355.16666667 568.666666667 1386 468 1386 c 0
 408.666666667 1386 356 1368.66666667 310 1334 c 128
 264 1299.33333333 229.166666667 1255 205.5 1201 c 128
 181.833333333 1147 170 1089 170 1027 c 0
 170 990.333333333 178.333333333 964.166666667 195 948.5 c 128
 211.666666667 932.833333333 229.666666667 925 249 925 c 0
 276.333333333 925 300 936.666666667 320 960 c 0
 344.666666667 989.333333333 369.666666667 1004 395 1004 c 0
 423 1004 445.333333333 995.666666667 462 979 c 128
 478.666666667 962.333333333 487 939.666666667 487 911 c 0
 487 870.333333333 472.666666667 835.5 444 806.5 c 128
 415.333333333 777.5 380.666666667 763 340 763 c 0
 276 763 222.333333333 785.833333333 179 831.5 c 128
 135.666666667 877.166666667 114 942 114 1026 c 0
EndSplineSet
AlternateSubs2: "'aalt' Access All Alternates-1" twosuperior twooldstyle
Substitution2: "'sups' Superscript Forms-1" twosuperior
Substitution2: "'onum' Oldstyle Figures-1" twooldstyle
EndChar

StartChar: three
Encoding: 278 51 22
Width: 1152
GlyphClass: 2
Flags: HW
LayerCount: 2
Back
SplineSet
112 297 m 0
 112 347 128.666666667 389.333333333 162 424 c 128
 195.333333333 458.666666667 232.666666667 476 274 476 c 0
 306.666666667 476 333.166666667 466.333333333 353.5 447 c 128
 373.833333333 427.666666667 384 401.666666667 384 369 c 0
 384 339.666666667 377.833333333 316.166666667 365.5 298.5 c 128
 353.166666667 280.833333333 332.666666667 264 304 248 c 0
 290.666666667 240.666666667 280.333333333 234.333333333 273 229 c 128
 265.666666667 223.666666667 258.333333333 215.666666667 251 205 c 128
 243.666666667 194.333333333 240 182.666666667 240 170 c 0
 240 137.333333333 266 106.166666667 318 76.5 c 128
 370 46.8333333333 433.333333333 32 508 32 c 0
 574 32 630.166666667 50.5 676.5 87.5 c 128
 722.833333333 124.5 756 170.666666667 776 226 c 128
 796 281.333333333 806 342.666666667 806 410 c 0
 806 512.666666667 783.333333333 593.333333333 738 652 c 128
 692.666666667 710.666666667 632.333333333 740 557 740 c 0
 528.333333333 740 464.666666667 728.333333333 366 705 c 1
 354 754 l 1
 437.333333333 770.666666667 503.666666667 786.666666667 553 802 c 0
 620.333333333 823.333333333 672 863 708 921 c 128
 744 979 762 1048.33333333 762 1129 c 0
 762 1215.66666667 739.5 1282.83333333 694.5 1330.5 c 128
 649.5 1378.16666667 593 1402 525 1402 c 0
 469.666666667 1402 422 1389.5 382 1364.5 c 128
 342 1339.5 322 1310 322 1276 c 0
 322 1262.66666667 325.5 1252 332.5 1244 c 128
 339.5 1236 351 1228 367 1220 c 0
 403.666666667 1201.33333333 422 1171.33333333 422 1130 c 0
 422 1101.33333333 412.666666667 1077.5 394 1058.5 c 128
 375.333333333 1039.5 351.333333333 1030 322 1030 c 0
 284.666666667 1030 254 1042.5 230 1067.5 c 128
 206 1092.5 194 1125.66666667 194 1167 c 0
 194 1198.33333333 202.833333333 1230.5 220.5 1263.5 c 128
 238.166666667 1296.5 262 1327 292 1355 c 128
 322 1383 359.666666667 1405.83333333 405 1423.5 c 128
 450.333333333 1441.16666667 498 1450 548 1450 c 0
 611.333333333 1450 668.833333333 1441 720.5 1423 c 128
 772.166666667 1405 814.166666667 1380.66666667 846.5 1350 c 128
 878.833333333 1319.33333333 903.5 1284.66666667 920.5 1246 c 128
 937.5 1207.33333333 946 1166.66666667 946 1124 c 0
 946 1078 938.5 1036.33333333 923.5 999 c 128
 908.5 961.666666667 887.166666667 929.833333333 859.5 903.5 c 128
 831.833333333 877.166666667 802.833333333 855.166666667 772.5 837.5 c 128
 742.166666667 819.833333333 707.333333333 803.333333333 668 788 c 1
 672 772 l 1
 774 755.333333333 855.833333333 715.333333333 917.5 652 c 128
 979.166666667 588.666666667 1010 508.666666667 1010 412 c 0
 1010 322 987.5 244 942.5 178 c 128
 897.5 112 838.666666667 63.1666666667 766 31.5 c 128
 693.333333333 -0.166666666667 612 -16 522 -16 c 0
 445.333333333 -16 376.666666667 -4.66666666667 316 18 c 128
 255.333333333 40.6666666667 206.166666667 76 168.5 124 c 128
 130.833333333 172 112 229.666666667 112 297 c 0
EndSplineSet
AlternateSubs2: "'aalt' Access All Alternates-1" threesuperior threeoldstyle
Substitution2: "'sups' Superscript Forms-1" threesuperior
Substitution2: "'onum' Oldstyle Figures-1" threeoldstyle
EndChar

StartChar: four
Encoding: 279 52 23
Width: 1152
GlyphClass: 2
Flags: HW
LayerCount: 2
Back
SplineSet
94 459 m 1
 94 515 l 1
 165.333333333 573 221.833333333 624.166666667 263.5 668.5 c 128
 305.166666667 712.833333333 350 771.333333333 398 844 c 0
 494.666666667 989.333333333 560.666666667 1149.66666667 596 1325 c 0
 600.666666667 1349 604.833333333 1368.16666667 608.5 1382.5 c 128
 612.166666667 1396.83333333 617.5 1413 624.5 1431 c 128
 631.5 1449 639.166666667 1462.83333333 647.5 1472.5 c 128
 655.833333333 1482.16666667 666.666666667 1490.33333333 680 1497 c 128
 693.333333333 1503.66666667 708.666666667 1507 726 1507 c 0
 778 1507 804 1478 804 1420 c 0
 804 1366 781.666666667 1291 737 1195 c 128
 692.333333333 1099 638 1010 574 928 c 0
 466.666666667 790 331.333333333 652.666666667 168 516 c 1
 168 507 l 1
 628 507 l 1
 628 821 l 1
 796 985 l 1
 812 985 l 1
 812 507 l 1
 1042 507 l 1
 1042 459 l 1
 812 459 l 1
 812 48 l 1
 1004 48 l 1
 1004 0 l 1
 436 0 l 1
 436 48 l 1
 628 48 l 1
 628 459 l 1
 94 459 l 1
EndSplineSet
AlternateSubs2: "'aalt' Access All Alternates-1" foursuperior fouroldstyle
Substitution2: "'sups' Superscript Forms-1" foursuperior
Substitution2: "'onum' Oldstyle Figures-1" fouroldstyle
EndChar

StartChar: five
Encoding: 280 53 24
Width: 1152
GlyphClass: 2
Flags: HW
LayerCount: 2
Back
SplineSet
122 272 m 0
 122 320 135.5 358.5 162.5 387.5 c 128
 189.5 416.5 222 431 260 431 c 0
 300 431 328.833333333 419.833333333 346.5 397.5 c 128
 364.166666667 375.166666667 373 350.666666667 373 324 c 0
 373 301.333333333 369.333333333 282.5 362 267.5 c 128
 354.666666667 252.5 342 236 324 218 c 1
 300 192.666666667 288 170.333333333 288 151 c 0
 288 111 303.333333333 81.1666666667 334 61.5 c 128
 364.666666667 41.8333333333 412.666666667 32 478 32 c 0
 583.333333333 32 664 67.8333333333 720 139.5 c 128
 776 211.166666667 804 306 804 424 c 0
 804 472.666666667 801.666666667 518.666666667 797 562 c 128
 792.333333333 605.333333333 783.666666667 649.333333333 771 694 c 128
 758.333333333 738.666666667 741.666666667 777 721 809 c 128
 700.333333333 841 672.833333333 867.166666667 638.5 887.5 c 128
 604.166666667 907.833333333 564.666666667 918 520 918 c 0
 458.666666667 918 404.666666667 896.333333333 358 853 c 128
 311.333333333 809.666666667 269.666666667 746 233 662 c 1
 198 667 l 1
 270 1438 l 1
 300 1450 l 1
 392 1355.33333333 479.333333333 1308 562 1308 c 0
 586 1308 609.5 1313.5 632.5 1324.5 c 128
 655.5 1335.5 675.166666667 1348.5 691.5 1363.5 c 128
 707.833333333 1378.5 725.5 1399.33333333 744.5 1426 c 128
 763.5 1452.66666667 778.5 1475.33333333 789.5 1494 c 128
 800.5 1512.66666667 814.333333333 1537.33333333 831 1568 c 1
 867 1552 l 1
 843.666666667 1502 817.833333333 1455 789.5 1411 c 128
 761.166666667 1367 729.833333333 1326.33333333 695.5 1289 c 128
 661.166666667 1251.66666667 624.333333333 1222.16666667 585 1200.5 c 128
 545.666666667 1178.83333333 506.666666667 1168 468 1168 c 0
 430.666666667 1168 400.5 1170.33333333 377.5 1175 c 128
 354.5 1179.66666667 327.666666667 1188.33333333 297 1201 c 1
 260 821 l 1
 268 819 l 1
 337.333333333 917 431.333333333 966 550 966 c 0
 691.333333333 966 803.333333333 925.666666667 886 845 c 128
 968.666666667 764.333333333 1010 659 1010 529 c 0
 1010 369.666666667 959.833333333 239 859.5 137 c 128
 759.166666667 35 629 -16 469 -16 c 0
 373.666666667 -16 292 12.5 224 69.5 c 128
 156 126.5 122 194 122 272 c 0
EndSplineSet
AlternateSubs2: "'aalt' Access All Alternates-1" fiveoldstyle
Substitution2: "'onum' Oldstyle Figures-1" fiveoldstyle
EndChar

StartChar: six
Encoding: 281 54 25
Width: 1152
GlyphClass: 2
Flags: HW
LayerCount: 2
Back
SplineSet
122 672 m 0
 122 814 146.5 945 195.5 1065 c 128
 244.5 1185 310.166666667 1279.16666667 392.5 1347.5 c 128
 474.833333333 1415.83333333 563.666666667 1450 659 1450 c 0
 748.333333333 1450 822.166666667 1427.16666667 880.5 1381.5 c 128
 938.833333333 1335.83333333 968 1280.66666667 968 1216 c 0
 968 1174 957 1140.33333333 935 1115 c 128
 913 1089.66666667 885 1077 851 1077 c 0
 825.666666667 1077 803.666666667 1084.66666667 785 1100 c 128
 766.333333333 1115.33333333 757 1135 757 1159 c 0
 757 1187 767 1217.66666667 787 1251 c 1
 803.666666667 1276.33333333 812 1301 812 1325 c 0
 812 1345.66666667 798.5 1363.66666667 771.5 1379 c 128
 744.5 1394.33333333 706.666666667 1402 658 1402 c 0
 599.333333333 1402 548.166666667 1383.16666667 504.5 1345.5 c 128
 460.833333333 1307.83333333 426.666666667 1256.83333333 402 1192.5 c 128
 377.333333333 1128.16666667 359.166666667 1058.66666667 347.5 984 c 128
 335.833333333 909.333333333 330 830 330 746 c 1
 336 743 l 1
 420 847 527 899 657 899 c 0
 713.666666667 899 765.166666667 890.833333333 811.5 874.5 c 128
 857.833333333 858.166666667 896.333333333 836.333333333 927 809 c 128
 957.666666667 781.666666667 983.333333333 749.833333333 1004 713.5 c 128
 1024.66666667 677.166666667 1039.5 639.666666667 1048.5 601 c 128
 1057.5 562.333333333 1062 522.666666667 1062 482 c 0
 1062 393.333333333 1043.66666667 311.333333333 1007 236 c 128
 970.333333333 160.666666667 917 99.8333333333 847 53.5 c 128
 777 7.16666666667 697.666666667 -16 609 -16 c 0
 541 -16 477.833333333 -1.33333333333 419.5 28 c 128
 361.166666667 57.3333333333 309.666666667 100 265 156 c 128
 220.333333333 212 185.333333333 284.333333333 160 373 c 128
 134.666666667 461.666666667 122 561.333333333 122 672 c 0
330 558 m 0
 330 475.333333333 334.666666667 403.333333333 344 342 c 128
 353.333333333 280.666666667 368.666666667 226 390 178 c 128
 411.333333333 130 440.666666667 93.6666666667 478 69 c 128
 515.333333333 44.3333333333 561 32 615 32 c 0
 693.666666667 32 753.166666667 71.3333333333 793.5 150 c 128
 833.833333333 228.666666667 854 339.666666667 854 483 c 0
 854 536.333333333 849.666666667 584.666666667 841 628 c 128
 832.333333333 671.333333333 818.666666667 710 800 744 c 128
 781.333333333 778 756 804.333333333 724 823 c 128
 692 841.666666667 654.666666667 851 612 851 c 0
 560 851 507.666666667 832.666666667 455 796 c 128
 402.333333333 759.333333333 365.333333333 709.666666667 344 647 c 0
 334.666666667 621 330 591.333333333 330 558 c 0
EndSplineSet
AlternateSubs2: "'aalt' Access All Alternates-1" sixoldstyle
Substitution2: "'onum' Oldstyle Figures-1" sixoldstyle
EndChar

StartChar: seven
Encoding: 282 55 26
Width: 1152
GlyphClass: 2
Flags: HW
LayerCount: 2
Back
SplineSet
164 997 m 1
 205 1454 l 1
 244 1454 l 1
 233 1329 l 1
 243 1327 l 1
 299.666666667 1402.33333333 365.666666667 1440 441 1440 c 0
 480.333333333 1440 516.166666667 1433.83333333 548.5 1421.5 c 128
 580.833333333 1409.16666667 605.833333333 1396 623.5 1382 c 128
 641.166666667 1368 662.333333333 1348.33333333 687 1323 c 0
 713 1297 743 1274.16666667 777 1254.5 c 128
 811 1234.83333333 841 1225 867 1225 c 0
 911.666666667 1225 943.333333333 1249.33333333 962 1298 c 0
 969.333333333 1317.33333333 974 1345 976 1381 c 0
 978.666666667 1427 994.333333333 1450 1023 1450 c 0
 1036.33333333 1450 1046.5 1446.33333333 1053.5 1439 c 128
 1060.5 1431.66666667 1064 1423 1064 1413 c 0
 1064 1380.33333333 1042.33333333 1324.33333333 999 1245 c 0
 975.666666667 1203.66666667 931.333333333 1110 866 964 c 1
 837.333333333 902 813.166666667 848.166666667 793.5 802.5 c 128
 773.833333333 756.833333333 748.666666667 695.333333333 718 618 c 128
 687.333333333 540.666666667 660.333333333 462.666666667 637 384 c 128
 613.666666667 305.333333333 595 229.333333333 581 156 c 0
 575.666666667 126.666666667 571.333333333 105.166666667 568 91.5 c 128
 564.666666667 77.8333333333 559.833333333 62.3333333333 553.5 45 c 128
 547.166666667 27.6666666667 540 15.6666666667 532 9 c 128
 524 2.33333333333 513.5 -3.5 500.5 -8.5 c 128
 487.5 -13.5 471.333333333 -16 452 -16 c 0
 422 -16 398.5 -9.5 381.5 3.5 c 128
 364.5 16.5 356 35 356 59 c 0
 356 111.666666667 381.166666667 187.833333333 431.5 287.5 c 128
 481.833333333 387.166666667 548 504.333333333 630 639 c 0
 742.666666667 824.333333333 832 1002.66666667 898 1174 c 1
 891 1179 l 1
 837.666666667 1160.33333333 780.666666667 1151 720 1151 c 0
 689.333333333 1151 650.5 1156 603.5 1166 c 128
 556.5 1176 517.666666667 1186.33333333 487 1197 c 0
 427 1217.66666667 381.333333333 1228 350 1228 c 0
 302 1228 265 1200.66666667 239 1146 c 0
 221.666666667 1110.66666667 209.666666667 1061 203 997 c 1
 164 997 l 1
EndSplineSet
AlternateSubs2: "'aalt' Access All Alternates-1" sevenoldstyle
Substitution2: "'onum' Oldstyle Figures-1" sevenoldstyle
EndChar

StartChar: eight
Encoding: 283 56 27
Width: 1152
GlyphClass: 2
Flags: HW
LayerCount: 2
Back
SplineSet
116 329 m 0
 116 408.333333333 142.5 477.333333333 195.5 536 c 128
 248.5 594.666666667 321 648 413 696 c 1
 413 702 l 1
 327.666666667 744 261.833333333 792.833333333 215.5 848.5 c 128
 169.166666667 904.166666667 146 976 146 1064 c 0
 146 1140 166 1207.83333333 206 1267.5 c 128
 246 1327.16666667 298.333333333 1372.5 363 1403.5 c 128
 427.666666667 1434.5 498.333333333 1450 575 1450 c 0
 689.666666667 1450 786.833333333 1421.33333333 866.5 1364 c 128
 946.166666667 1306.66666667 986 1235.33333333 986 1150 c 0
 986 1070 963.333333333 1000.66666667 918 942 c 128
 872.666666667 883.333333333 810.333333333 829.666666667 731 781 c 1
 731 777 l 1
 769 759 802 742.166666667 830 726.5 c 128
 858 710.833333333 886.833333333 691.833333333 916.5 669.5 c 128
 946.166666667 647.166666667 970.5 624.5 989.5 601.5 c 128
 1008.5 578.5 1024 551.5 1036 520.5 c 128
 1048 489.5 1054 456.666666667 1054 422 c 0
 1054 340.666666667 1031.33333333 266.166666667 986 198.5 c 128
 940.666666667 130.833333333 881 78.1666666667 807 40.5 c 128
 733 2.83333333333 653.666666667 -16 569 -16 c 0
 489.666666667 -16 416 -2.5 348 24.5 c 128
 280 51.5 224.333333333 91.6666666667 181 145 c 128
 137.666666667 198.333333333 116 259.666666667 116 329 c 0
248 334 m 0
 248 248 276.5 176.166666667 333.5 118.5 c 128
 390.5 60.8333333333 469 32 569 32 c 0
 667 32 749 58.1666666667 815 110.5 c 128
 881 162.833333333 914 229.666666667 914 311 c 0
 914 342.333333333 908.5 371.166666667 897.5 397.5 c 128
 886.5 423.833333333 872.666666667 446.666666667 856 466 c 128
 839.333333333 485.333333333 815.5 505 784.5 525 c 128
 753.5 545 723.333333333 562.166666667 694 576.5 c 128
 664.666666667 590.833333333 626.333333333 608.333333333 579 629 c 2
 464 680 l 1
 392.666666667 636 338.833333333 586 302.5 530 c 128
 266.166666667 474 248 408.666666667 248 334 c 0
254 1138 m 0
 254 1112.66666667 256.5 1089.83333333 261.5 1069.5 c 128
 266.5 1049.16666667 275.333333333 1030.66666667 288 1014 c 128
 300.666666667 997.333333333 313.166666667 983.166666667 325.5 971.5 c 128
 337.833333333 959.833333333 355.833333333 947.5 379.5 934.5 c 128
 403.166666667 921.5 423.5 911 440.5 903 c 128
 457.5 895 482 884.333333333 514 871 c 2
 683 798 l 1
 743.666666667 836 790 879.5 822 928.5 c 128
 854 977.5 870 1036 870 1104 c 0
 870 1183.33333333 840 1252.83333333 780 1312.5 c 128
 720 1372.16666667 643 1402 549 1402 c 0
 471.666666667 1402 403.166666667 1376 343.5 1324 c 128
 283.833333333 1272 254 1210 254 1138 c 0
EndSplineSet
AlternateSubs2: "'aalt' Access All Alternates-1" eightoldstyle
Substitution2: "'onum' Oldstyle Figures-1" eightoldstyle
EndChar

StartChar: nine
Encoding: 284 57 28
Width: 1152
GlyphClass: 2
Flags: HW
LayerCount: 2
Back
SplineSet
90 952 m 0
 90 1040.66666667 108.333333333 1122.66666667 145 1198 c 128
 181.666666667 1273.33333333 235 1334.16666667 305 1380.5 c 128
 375 1426.83333333 454.333333333 1450 543 1450 c 0
 611 1450 674.166666667 1435.33333333 732.5 1406 c 128
 790.833333333 1376.66666667 842.333333333 1334 887 1278 c 128
 931.666666667 1222 966.666666667 1149.66666667 992 1061 c 128
 1017.33333333 972.333333333 1030 872.666666667 1030 762 c 0
 1030 620 1005.5 489 956.5 369 c 128
 907.5 249 841.833333333 154.833333333 759.5 86.5 c 128
 677.166666667 18.1666666667 588.333333333 -16 493 -16 c 0
 403.666666667 -16 329.833333333 6.83333333333 271.5 52.5 c 128
 213.166666667 98.1666666667 184 153.333333333 184 218 c 0
 184 260 195 293.666666667 217 319 c 128
 239 344.333333333 267 357 301 357 c 0
 326.333333333 357 348.333333333 349.333333333 367 334 c 128
 385.666666667 318.666666667 395 299 395 275 c 0
 395 247 385 216.333333333 365 183 c 1
 348.333333333 157.666666667 340 133 340 109 c 0
 340 88.3333333333 353.5 70.3333333333 380.5 55 c 128
 407.5 39.6666666667 445.333333333 32 494 32 c 0
 552.666666667 32 603.833333333 50.8333333333 647.5 88.5 c 128
 691.166666667 126.166666667 725.333333333 177.166666667 750 241.5 c 128
 774.666666667 305.833333333 792.833333333 375.333333333 804.5 450 c 128
 816.166666667 524.666666667 822 604 822 688 c 1
 816 691 l 1
 732 587 625 535 495 535 c 0
 438.333333333 535 386.833333333 543.166666667 340.5 559.5 c 128
 294.166666667 575.833333333 255.666666667 597.666666667 225 625 c 128
 194.333333333 652.333333333 168.666666667 684.166666667 148 720.5 c 128
 127.333333333 756.833333333 112.5 794.333333333 103.5 833 c 128
 94.5 871.666666667 90 911.333333333 90 952 c 0
298 951 m 0
 298 897.666666667 302.333333333 849.333333333 311 806 c 128
 319.666666667 762.666666667 333.333333333 724 352 690 c 128
 370.666666667 656 396 629.666666667 428 611 c 128
 460 592.333333333 497.333333333 583 540 583 c 0
 592 583 644.333333333 601.333333333 697 638 c 128
 749.666666667 674.666666667 786.666666667 724.333333333 808 787 c 0
 817.333333333 813 822 842.666666667 822 876 c 0
 822 958.666666667 817.333333333 1030.66666667 808 1092 c 128
 798.666666667 1153.33333333 783.333333333 1208 762 1256 c 128
 740.666666667 1304 711.333333333 1340.33333333 674 1365 c 128
 636.666666667 1389.66666667 591 1402 537 1402 c 0
 458.333333333 1402 398.833333333 1362.66666667 358.5 1284 c 128
 318.166666667 1205.33333333 298 1094.33333333 298 951 c 0
EndSplineSet
AlternateSubs2: "'aalt' Access All Alternates-1" nineoldstyle
Substitution2: "'onum' Oldstyle Figures-1" nineoldstyle
EndChar

StartChar: less
Encoding: 287 60 31
Width: 1152
GlyphClass: 2
Flags: HW
LayerCount: 2
Back
SplineSet
84 466 m 1
 84 562 l 1
 1024 1052 l 1
 1068 964 l 1
 199 514 l 1
 1068 64 l 1
 1024 -24 l 1
 84 466 l 1
EndSplineSet
EndChar

StartChar: equal
Encoding: 288 61 32
Width: 1152
GlyphClass: 2
Flags: HW
LayerCount: 2
Back
SplineSet
62 310 m 1
 62 406 l 1
 1090 406 l 1
 1090 310 l 1
 62 310 l 1
62 622 m 1
 62 718 l 1
 1090 718 l 1
 1090 622 l 1
 62 622 l 1
EndSplineSet
EndChar

StartChar: greater
Encoding: 289 62 33
Width: 1152
GlyphClass: 2
Flags: HW
LayerCount: 2
Back
SplineSet
84 64 m 1
 953 514 l 1
 84 964 l 1
 128 1052 l 1
 1068 562 l 1
 1068 466 l 1
 128 -24 l 1
 84 64 l 1
EndSplineSet
EndChar

StartChar: question
Encoding: 290 63 34
Width: 852
GlyphClass: 2
Flags: HW
LayerCount: 2
Back
SplineSet
144 1309 m 0
 144 1369 168.833333333 1417.83333333 218.5 1455.5 c 128
 268.166666667 1493.16666667 327.666666667 1512 397 1512 c 0
 472.333333333 1512 538.833333333 1489.16666667 596.5 1443.5 c 128
 654.166666667 1397.83333333 697.166666667 1340.83333333 725.5 1272.5 c 128
 753.833333333 1204.16666667 768 1131.66666667 768 1055 c 0
 768 991 758.666666667 934.333333333 740 885 c 128
 721.333333333 835.666666667 696.666666667 797.166666667 666 769.5 c 128
 635.333333333 741.833333333 603.166666667 721.333333333 569.5 708 c 128
 535.833333333 694.666666667 501.333333333 688 466 688 c 0
 416.666666667 688 376 698 344 718 c 1
 340 714 l 1
 340 339 l 1
 268 339 l 1
 268 836 l 1
 302 836 l 1
 314 810.666666667 329.333333333 790 348 774 c 0
 378 748.666666667 418.666666667 736 470 736 c 0
 570 736 620 853.333333333 620 1088 c 0
 620 1125.33333333 617.833333333 1160.66666667 613.5 1194 c 128
 609.166666667 1227.33333333 601.833333333 1260.33333333 591.5 1293 c 128
 581.166666667 1325.66666667 567.833333333 1353.66666667 551.5 1377 c 128
 535.166666667 1400.33333333 514 1419.33333333 488 1434 c 128
 462 1448.66666667 432.333333333 1456 399 1456 c 0
 354.333333333 1456 324.666666667 1438 310 1402 c 0
 302 1382.66666667 298 1349.33333333 298 1302 c 0
 298 1252.66666667 274.666666667 1228 228 1228 c 0
 201.333333333 1228 180.666666667 1235.16666667 166 1249.5 c 128
 151.333333333 1263.83333333 144 1283.66666667 144 1309 c 0
174 104 m 128
 174 140 186.333333333 170.333333333 211 195 c 128
 235.666666667 219.666666667 266 232 302 232 c 128
 338 232 368.333333333 219.666666667 393 195 c 128
 417.666666667 170.333333333 430 140 430 104 c 128
 430 68 417.666666667 37.6666666667 393 13 c 128
 368.333333333 -11.6666666667 338 -24 302 -24 c 128
 266 -24 235.666666667 -11.6666666667 211 13 c 128
 186.333333333 37.6666666667 174 68 174 104 c 128
EndSplineSet
EndChar

StartChar: at
Encoding: 291 64 35
Width: 1716
GlyphClass: 2
Flags: HW
LayerCount: 2
Back
SplineSet
60 371 m 0
 60 488.333333333 78.1666666667 596.833333333 114.5 696.5 c 128
 150.833333333 796.166666667 199.333333333 880.5 260 949.5 c 128
 320.666666667 1018.5 390.833333333 1077.33333333 470.5 1126 c 128
 550.166666667 1174.66666667 633.333333333 1210.5 720 1233.5 c 128
 806.666666667 1256.5 894.333333333 1268 983 1268 c 0
 1075 1268 1163 1250.5 1247 1215.5 c 128
 1331 1180.5 1403 1133.5 1463 1074.5 c 128
 1523 1015.5 1570.83333333 946 1606.5 866 c 128
 1642.16666667 786 1660 702.666666667 1660 616 c 0
 1660 434 1617.16666667 283.833333333 1531.5 165.5 c 128
 1445.83333333 47.1666666667 1339.33333333 -12 1212 -12 c 0
 1144 -12 1093.5 8.16666666667 1060.5 48.5 c 128
 1027.5 88.8333333333 1010 137.666666667 1008 195 c 1
 998 198 l 1
 974.666666667 144.666666667 937.333333333 96.3333333333 886 53 c 128
 834.666666667 9.66666666667 779 -12 719 -12 c 0
 641.666666667 -12 578.5 14.8333333333 529.5 68.5 c 128
 480.5 122.166666667 456 195.333333333 456 288 c 0
 456 383.333333333 474.166666667 472.333333333 510.5 555 c 128
 546.833333333 637.666666667 600.666666667 705.5 672 758.5 c 128
 743.333333333 811.5 825 838 917 838 c 0
 961.666666667 838 1000 819.333333333 1032 782 c 128
 1064 744.666666667 1083.33333333 701.333333333 1090 652 c 1
 1109 656 l 1
 1156 826 l 1
 1296 826 l 1
 1153 324 l 1
 1133.66666667 258.666666667 1124 204.666666667 1124 162 c 0
 1124 126.666666667 1130.66666667 99.5 1144 80.5 c 128
 1157.33333333 61.5 1182.33333333 52 1219 52 c 0
 1316.33333333 52 1398.16666667 101.166666667 1464.5 199.5 c 128
 1530.83333333 297.833333333 1564 421.333333333 1564 570 c 0
 1564 659.333333333 1547.83333333 743.666666667 1515.5 823 c 128
 1483.16666667 902.333333333 1439.66666667 969.666666667 1385 1025 c 128
 1330.33333333 1080.33333333 1266 1124 1192 1156 c 128
 1118 1188 1040 1204 958 1204 c 0
 862.666666667 1204 770.166666667 1185.5 680.5 1148.5 c 128
 590.833333333 1111.5 510.5 1059.16666667 439.5 991.5 c 128
 368.5 923.833333333 311.5 837.5 268.5 732.5 c 128
 225.5 627.5 204 512.333333333 204 387 c 0
 204 295 216.833333333 209.833333333 242.5 131.5 c 128
 268.166666667 53.1666666667 303.166666667 -13.8333333333 347.5 -69.5 c 128
 391.833333333 -125.166666667 443.833333333 -172.666666667 503.5 -212 c 128
 563.166666667 -251.333333333 627.166666667 -280.5 695.5 -299.5 c 128
 763.833333333 -318.5 834.666666667 -328 908 -328 c 0
 968.666666667 -328 1028.5 -320.333333333 1087.5 -305 c 128
 1146.5 -289.666666667 1199.5 -269 1246.5 -243 c 128
 1293.5 -217 1335 -190.5 1371 -163.5 c 128
 1407 -136.5 1439 -108 1467 -78 c 1
 1515 -141 l 1
 1485.66666667 -171 1452.16666667 -199.833333333 1414.5 -227.5 c 128
 1376.83333333 -255.166666667 1332.5 -282.666666667 1281.5 -310 c 128
 1230.5 -337.333333333 1172.16666667 -359.166666667 1106.5 -375.5 c 128
 1040.83333333 -391.833333333 973.333333333 -400 904 -400 c 0
 824.666666667 -400 744.833333333 -388.833333333 664.5 -366.5 c 128
 584.166666667 -344.166666667 507.833333333 -310.666666667 435.5 -266 c 128
 363.166666667 -221.333333333 299 -168.666666667 243 -108 c 128
 187 -47.3333333333 142.5 24.5 109.5 107.5 c 128
 76.5 190.5 60 278.333333333 60 371 c 0
602 247 m 0
 602 220.333333333 604 195.166666667 608 171.5 c 128
 612 147.833333333 618.333333333 125.666666667 627 105 c 128
 635.666666667 84.3333333333 648.166666667 67.8333333333 664.5 55.5 c 128
 680.833333333 43.1666666667 700.333333333 37 723 37 c 0
 766.333333333 37 808.166666667 55 848.5 91 c 128
 888.833333333 127 922.333333333 171.333333333 949 224 c 128
 975.666666667 276.666666667 997 331.833333333 1013 389.5 c 128
 1029 447.166666667 1037 499 1037 545 c 0
 1037 687.666666667 991 759 899 759 c 0
 848.333333333 759 801 737.333333333 757 694 c 128
 713 650.666666667 678.333333333 596.333333333 653 531 c 0
 633.666666667 480.333333333 620.333333333 434.666666667 613 394 c 128
 605.666666667 353.333333333 602 304.333333333 602 247 c 0
EndSplineSet
EndChar

StartChar: A
Encoding: 292 65 36
Width: 1274
GlyphClass: 2
Flags: HW
LayerCount: 2
Back
SplineSet
56 0 m 1
 56 52 l 1
 274 52 l 1
 736 1462 l 1
 796 1462 l 1
 1320 52 l 1
 1502 52 l 1
 1502 0 l 1
 830 0 l 1
 830 52 l 1
 1080 52 l 1
 910 512 l 1
 492 512 l 1
 342 52 l 1
 552 52 l 1
 552 0 l 1
 56 0 l 1
508 564 m 1
 890 564 l 1
 688 1109 l 1
 508 564 l 1
EndSplineSet
Fore
SplineSet
527 1109 m 25
 347 564 l 25
 729 564 l 25
 527 1109 l 25
96 0 m 25
 575 1462 l 25
 635 1462 l 25
 1178 0 l 25
 938 0 l 25
 749 512 l 25
 331 512 l 25
 164 0 l 25
 96 0 l 25
EndSplineSet
EndChar

StartChar: B
Encoding: 293 66 37
Width: 1136
GlyphClass: 2
Flags: HW
LayerCount: 2
Back
SplineSet
122 0 m 1
 122 52 l 1
 314 52 l 1
 314 1382 l 1
 122 1382 l 1
 122 1434 l 1
 750 1434 l 2
 903.333333333 1434 1017.16666667 1403.5 1091.5 1342.5 c 128
 1165.83333333 1281.5 1203 1196.66666667 1203 1088 c 0
 1203 1008.66666667 1174.66666667 941.666666667 1118 887 c 128
 1061.33333333 832.333333333 989 796.666666667 901 780 c 1
 901 768 l 1
 1013.66666667 754 1102.66666667 713.666666667 1168 647 c 128
 1233.33333333 580.333333333 1266 496 1266 394 c 0
 1266 270.666666667 1220.5 174.166666667 1129.5 104.5 c 128
 1038.5 34.8333333333 914.666666667 0 758 0 c 2
 122 0 l 1
522 52 m 1
 738 52 l 2
 934 52 1032 169.333333333 1032 404 c 0
 1032 511.333333333 1011.66666667 595.5 971 656.5 c 128
 930.333333333 717.5 867.333333333 748 782 748 c 2
 522 748 l 1
 522 52 l 1
522 800 m 1
 782 800 l 2
 852.666666667 800 905.833333333 825.5 941.5 876.5 c 128
 977.166666667 927.5 995 994 995 1076 c 0
 995 1116.66666667 991 1153.83333333 983 1187.5 c 128
 975 1221.16666667 961.833333333 1253.33333333 943.5 1284 c 128
 925.166666667 1314.66666667 898.166666667 1338.66666667 862.5 1356 c 128
 826.833333333 1373.33333333 784 1382 734 1382 c 2
 522 1382 l 1
 522 800 l 1
EndSplineSet
Fore
SplineSet
318 52 m 29
 535 52 l 21
 687 52 828 122 828 405 c 5
 828 645 730 748 580 748 c 13
 318 748 l 29
 318 52 l 29
318 800 m 29
 579 800 l 21
 734 800 791 933 791 1077 c 5
 791 1200.75976562 747 1326 647 1362 c 4
 610.366210938 1375.18847656 577 1382 508 1382 c 13
 318 1382 l 29
 318 800 l 29
110 1434 m 29
 562 1434 l 21
 843 1434 999 1308 999 1093 c 5
 999 879 802 798 697 780 c 13
 697 767 l 21
 757 767 1062 704 1062 398 c 5
 1062 85 777 0 554 0 c 13
 110 0 l 29
 110 1434 l 29
EndSplineSet
EndChar

StartChar: C
Encoding: 294 67 38
Width: 1486
GlyphClass: 2
Flags: HWO
LayerCount: 2
Back
SplineSet
146 712 m 0
 146 802.666666667 158.666666667 888.166666667 184 968.5 c 128
 209.333333333 1048.83333333 244 1118.66666667 288 1178 c 128
 332 1237.33333333 383 1288.66666667 441 1332 c 128
 499 1375.33333333 561.666666667 1407.83333333 629 1429.5 c 128
 696.333333333 1451.16666667 764.666666667 1462 834 1462 c 0
 934.666666667 1462 1028 1446.33333333 1114 1415 c 0
 1153.33333333 1400.33333333 1184.66666667 1393 1208 1393 c 0
 1228 1393 1243.66666667 1398.5 1255 1409.5 c 128
 1266.33333333 1420.5 1278 1438 1290 1462 c 1
 1334 1462 l 1
 1334 991 l 1
 1290 991 l 1
 1266 1089.66666667 1228.33333333 1174.33333333 1177 1245 c 0
 1161.66666667 1266.33333333 1145.66666667 1285.33333333 1129 1302 c 128
 1112.33333333 1318.66666667 1090.5 1335.83333333 1063.5 1353.5 c 128
 1036.5 1371.16666667 1003.5 1385 964.5 1395 c 128
 925.5 1405 882 1410 834 1410 c 0
 689.333333333 1410 577.5 1350.5 498.5 1231.5 c 128
 419.5 1112.5 380 939.333333333 380 712 c 0
 380 485.333333333 419.333333333 314 498 198 c 128
 576.666666667 82 688.666666667 24 834 24 c 0
 882 24 925.5 29 964.5 39 c 128
 1003.5 49 1036.5 62.8333333333 1063.5 80.5 c 128
 1090.5 98.1666666667 1112.33333333 115.333333333 1129 132 c 128
 1145.66666667 148.666666667 1161.66666667 167.666666667 1177 189 c 0
 1228.33333333 259.666666667 1266 344.333333333 1290 443 c 1
 1334 443 l 1
 1334 -28 l 1
 1290 -28 l 1
 1282 -12 1275.16666667 0 1269.5 8 c 128
 1263.83333333 16 1255.66666667 23.5 1245 30.5 c 128
 1234.33333333 37.5 1222 41 1208 41 c 0
 1184.66666667 41 1153.33333333 33.6666666667 1114 19 c 0
 1028 -12.3333333333 934.666666667 -28 834 -28 c 0
 746 -28 661.166666667 -11 579.5 23 c 128
 497.833333333 57 424.666666667 104.833333333 360 166.5 c 128
 295.333333333 228.166666667 243.5 306.333333333 204.5 401 c 128
 165.5 495.666666667 146 599.333333333 146 712 c 0
EndSplineSet
Fore
SplineSet
1334 1321 m 9
 1334 1249 l 17
 1207 1328 1010.28698913 1408.16790928 840 1411 c 1
 443 1411 380 984 380 723 c 1
 380 554 391 24 839 24 c 1
 1024 24 1171 108 1334 250 c 9
 1334 162 l 17
 1195 27 1018 -28 835 -28 c 1
 483 -28 146 248 146 715 c 1
 146 1191 500 1463 837 1463 c 1
 1047.30740404 1456.29871789 1210 1401 1334 1321 c 9
EndSplineSet
EndChar

StartChar: D
Encoding: 295 68 39
Width: 1359
GlyphClass: 2
Flags: HW
LayerCount: 2
Back
SplineSet
-80 0 m 5
 -80 52 l 5
 112 52 l 5
 112 1382 l 5
 -80 1382 l 5
 -80 1434 l 5
 639 1434 l 6
 699 1434 758.666992188 1424.5 818 1405.5 c 132
 877.333007812 1386.5 934.333007812 1357.16699219 989 1317.5 c 132
 1043.66699219 1277.83300781 1091.83300781 1230 1133.5 1174 c 132
 1175.16699219 1118 1208.33300781 1050.16699219 1233 970.5 c 132
 1257.66699219 890.833007812 1270 804.666992188 1270 712 c 132
 1270 619.333007812 1257.66699219 533.5 1233 454.5 c 132
 1208.33300781 375.5 1175.16699219 308.5 1133.5 253.5 c 132
 1091.83300781 198.5 1043.66699219 151.666992188 989 113 c 132
 934.333007812 74.3330078125 877.333007812 45.8330078125 818 27.5 c 132
 758.666992188 9.1669921875 699 0 639 0 c 6
 -80 0 l 5
320 52 m 5
 593 52 l 6
 659.666992188 52 719 64 771 88 c 132
 823 112 865.333007812 144 898 184 c 132
 930.666992188 224 957.666992188 272.666992188 979 330 c 132
 1000.33300781 387.333007812 1015.16699219 447 1023.5 509 c 132
 1031.83300781 571 1036 638.666992188 1036 712 c 132
 1036 785.333007812 1031.83300781 853.333007812 1023.5 916 c 132
 1015.16699219 978.666992188 1000.33300781 1039.16699219 979 1097.5 c 132
 957.666992188 1155.83300781 930.666992188 1205.5 898 1246.5 c 132
 865.333007812 1287.5 823 1320.33300781 771 1345 c 132
 719 1369.66699219 659.666992188 1382 593 1382 c 6
 320 1382 l 5
 320 52 l 5
EndSplineSet
Fore
SplineSet
320 52 m 25
 601 52 l 17
 856 52 1037 241 1037 718 c 1
 1037 1066 933 1382 586 1382 c 9
 320 1382 l 25
 320 52 l 25
112 1434 m 25
 649 1434 l 17
 914 1434 1270 1213 1270 711 c 1
 1270 211 908 0 653 0 c 9
 112 0 l 25
 112 1434 l 25
EndSplineSet
EndChar

StartChar: E
Encoding: 296 69 40
Width: 1223
GlyphClass: 2
Flags: HW
LayerCount: 2
Back
SplineSet
122 0 m 1
 122 52 l 1
 314 52 l 1
 314 1382 l 1
 122 1382 l 1
 122 1434 l 1
 1242 1434 l 1
 1252 1058 l 1
 1200 1058 l 1
 1194.66666667 1084.66666667 1189.66666667 1106.33333333 1185 1123 c 128
 1180.33333333 1139.66666667 1171.5 1163 1158.5 1193 c 128
 1145.5 1223 1129.33333333 1251.33333333 1110 1278 c 0
 1060.66666667 1347.33333333 984.666666667 1382 882 1382 c 2
 522 1382 l 1
 522 776 l 1
 708 776 l 2
 774 776 830.666666667 812 878 884 c 0
 892.666666667 906.666666667 905.333333333 938.333333333 916 979 c 128
 926.666666667 1019.66666667 932 1049.33333333 932 1068 c 1
 980 1068 l 1
 980 434 l 1
 932 434 l 1
 932 452.666666667 926.666666667 482.333333333 916 523 c 128
 905.333333333 563.666666667 892.666666667 595.333333333 878 618 c 0
 831.333333333 688.666666667 774.666666667 724 708 724 c 2
 522 724 l 1
 522 52 l 1
 859 52 l 2
 1007.66666667 52 1114.66666667 97 1180 187 c 0
 1212 230.333333333 1234.33333333 270 1247 306 c 128
 1259.66666667 342 1271.33333333 389 1282 447 c 1
 1334 447 l 1
 1328 0 l 1
 122 0 l 1
EndSplineSet
Fore
SplineSet
112 1434 m 25
 1040 1434 l 25
 1041 1382 l 25
 320 1382 l 25
 320 776 l 25
 778 776 l 25
 778 724 l 25
 320 724 l 25
 320 52 l 25
 1127 52 l 25
 1126 0 l 25
 112 0 l 25
 112 1434 l 25
EndSplineSet
EndChar

StartChar: F
Encoding: 297 70 41
Width: 1116
GlyphClass: 2
Flags: HW
LayerCount: 2
Back
SplineSet
122 0 m 1
 122 52 l 1
 314 52 l 1
 314 1382 l 1
 122 1382 l 1
 122 1434 l 1
 1242 1434 l 1
 1264 978 l 1
 1212 978 l 1
 1189.33333333 1106 1153 1202.33333333 1103 1267 c 0
 1043.66666667 1343.66666667 962.666666667 1382 860 1382 c 2
 522 1382 l 1
 522 776 l 1
 694 776 l 2
 764.666666667 776 821.333333333 811.333333333 864 882 c 0
 878.666666667 906.666666667 891.333333333 942.666666667 902 990 c 128
 912.666666667 1037.33333333 918 1071 918 1091 c 1
 966 1091 l 1
 966 409 l 1
 918 409 l 1
 918 429 912.666666667 462.666666667 902 510 c 128
 891.333333333 557.333333333 878.666666667 593.333333333 864 618 c 0
 821.333333333 688.666666667 764.666666667 724 694 724 c 2
 522 724 l 1
 522 52 l 1
 714 52 l 1
 714 0 l 1
 122 0 l 1
EndSplineSet
Fore
SplineSet
112 1434 m 29
 1040 1434 l 29
 1042 1382 l 29
 320 1382 l 29
 320 776 l 29
 764 776 l 29
 764 724 l 29
 320 724 l 29
 320 0 l 29
 112 0 l 29
 112 1434 l 29
EndSplineSet
EndChar

StartChar: G
Encoding: 298 71 42
Width: 1490
GlyphClass: 2
Flags: HW
LayerCount: 2
Back
SplineSet
146 712 m 0
 146 802.666666667 158.666666667 888.166666667 184 968.5 c 128
 209.333333333 1048.83333333 244 1118.66666667 288 1178 c 128
 332 1237.33333333 383 1288.66666667 441 1332 c 128
 499 1375.33333333 561.666666667 1407.83333333 629 1429.5 c 128
 696.333333333 1451.16666667 764.666666667 1462 834 1462 c 0
 934.666666667 1462 1028 1446.33333333 1114 1415 c 0
 1153.33333333 1400.33333333 1184.66666667 1393 1208 1393 c 0
 1228 1393 1243.66666667 1398.5 1255 1409.5 c 128
 1266.33333333 1420.5 1278 1438 1290 1462 c 1
 1334 1462 l 1
 1334 991 l 1
 1290 991 l 1
 1266 1089.66666667 1228.33333333 1174.33333333 1177 1245 c 0
 1161.66666667 1266.33333333 1145.66666667 1285.33333333 1129 1302 c 128
 1112.33333333 1318.66666667 1090.5 1335.83333333 1063.5 1353.5 c 128
 1036.5 1371.16666667 1003.5 1385 964.5 1395 c 128
 925.5 1405 882 1410 834 1410 c 0
 689.333333333 1410 577.5 1350.5 498.5 1231.5 c 128
 419.5 1112.5 380 939.333333333 380 712 c 0
 380 485.333333333 419.333333333 314 498 198 c 128
 576.666666667 82 688.666666667 24 834 24 c 0
 934.666666667 24 1013.16666667 56.8333333333 1069.5 122.5 c 128
 1125.83333333 188.166666667 1154 269.333333333 1154 366 c 2
 1154 512 l 1
 872 512 l 1
 872 564 l 1
 1588 564 l 1
 1588 512 l 1
 1374 512 l 1
 1373 0 l 1
 1329 0 l 1
 1319.66666667 22.6666666667 1308.83333333 39.8333333333 1296.5 51.5 c 128
 1284.16666667 63.1666666667 1267.66666667 69 1247 69 c 0
 1219.66666667 69 1180.66666667 58.6666666667 1130 38 c 0
 1024 -6 925.333333333 -28 834 -28 c 0
 746 -28 661.166666667 -11 579.5 23 c 128
 497.833333333 57 424.666666667 104.833333333 360 166.5 c 128
 295.333333333 228.166666667 243.5 306.333333333 204.5 401 c 128
 165.5 495.666666667 146 599.333333333 146 712 c 0
EndSplineSet
Fore
SplineSet
839 1462 m 1
 977 1462 1189 1419 1334 1283 c 9
 1334 1199 l 17
 1212 1293 1081.49852008 1408.47621791 837 1410 c 1
 545 1410 380 1170 380 712 c 1
 380 342 494 24 834 24 c 1
 1058 24 1154 198 1154 366 c 9
 1154 564 l 25
 1374 564 l 25
 1373 0 l 25
 1328 0 l 17
 1310 50 1284 69 1246 69 c 1
 1158 69 1040 -28 833 -28 c 1
 469 -28 146 258 146 714 c 1
 146 1162 464 1462 839 1462 c 1
EndSplineSet
EndChar

StartChar: H
Encoding: 299 72 43
Width: 1236
GlyphClass: 2
Flags: HW
LayerCount: 2
Back
SplineSet
122 0 m 1
 122 52 l 1
 314 52 l 1
 314 1382 l 1
 122 1382 l 1
 122 1434 l 1
 714 1434 l 1
 714 1382 l 1
 522 1382 l 1
 522 778 l 1
 1098 778 l 1
 1098 1382 l 1
 906 1382 l 1
 906 1434 l 1
 1498 1434 l 1
 1498 1382 l 1
 1306 1382 l 1
 1306 52 l 1
 1498 52 l 1
 1498 0 l 1
 906 0 l 1
 906 52 l 1
 1098 52 l 1
 1098 726 l 1
 522 726 l 1
 522 52 l 1
 714 52 l 1
 714 0 l 1
 122 0 l 1
EndSplineSet
Fore
SplineSet
142 1434 m 25
 350 1434 l 25
 350 778 l 25
 926 778 l 25
 926 1434 l 25
 1134 1434 l 25
 1134 0 l 25
 926 0 l 25
 926 726 l 25
 350 726 l 25
 350 0 l 25
 142 0 l 25
 142 1434 l 25
EndSplineSet
EndChar

StartChar: I
Encoding: 300 73 44
Width: 459
GlyphClass: 2
Flags: HW
LayerCount: 2
Back
SplineSet
122 0 m 1
 122 52 l 1
 314 52 l 1
 314 1382 l 1
 122 1382 l 1
 122 1434 l 1
 714 1434 l 1
 714 1382 l 1
 522 1382 l 1
 522 52 l 1
 714 52 l 1
 714 0 l 1
 122 0 l 1
EndSplineSet
Fore
SplineSet
142 1434 m 25
 350 1434 l 25
 350 0 l 25
 142 0 l 25
 142 1434 l 25
EndSplineSet
EndChar

StartChar: J
Encoding: 301 74 45
Width: 772
GlyphClass: 2
Flags: HW
LayerCount: 2
Back
SplineSet
96 192 m 0
 96 228 108.5 260 133.5 288 c 128
 158.5 316 189.333333333 330 226 330 c 0
 258 330 283 321 301 303 c 128
 319 285 328 261.666666667 328 233 c 0
 328 207.666666667 317.333333333 179 296 147 c 0
 280 123.666666667 272 102.333333333 272 83 c 0
 272 69 277.5 57.3333333333 288.5 48 c 128
 299.5 38.6666666667 314.666666667 34 334 34 c 0
 355.333333333 34 373.666666667 38 389 46 c 128
 404.333333333 54 416.333333333 64 425 76 c 128
 433.666666667 88 440.666666667 103.166666667 446 121.5 c 128
 451.333333333 139.833333333 454.666666667 157 456 173 c 128
 457.333333333 189 458 207.333333333 458 228 c 2
 458 1382 l 1
 266 1382 l 1
 266 1434 l 1
 858 1434 l 1
 858 1382 l 1
 666 1382 l 1
 666 386 l 2
 666 345.333333333 662.5 306.5 655.5 269.5 c 128
 648.5 232.5 636.666666667 196.166666667 620 160.5 c 128
 603.333333333 124.833333333 582.166666667 94 556.5 68 c 128
 530.833333333 42 498 21.1666666667 458 5.5 c 128
 418 -10.1666666667 372.666666667 -18 322 -18 c 0
 257.333333333 -18 203.5 0.5 160.5 37.5 c 128
 117.5 74.5 96 126 96 192 c 0
EndSplineSet
Fore
SplineSet
458 1434 m 25
 666 1434 l 25
 666 377 l 17
 666 200 586 -18 326 -18 c 1
 184 -18 96 65 96 190 c 1
 96 266 152 330 227 330 c 1
 294 330 328 286 328 237 c 1
 328 164 272 140 272 81 c 1
 272 56 294 34 334 34 c 1
 397 34 433.328445711 70.3026808301 447.399796181 125.999997181 c 0
 458.594013154 170.309023908 458 191 458 282 c 9
 458 1434 l 25
EndSplineSet
EndChar

StartChar: K
Encoding: 302 75 46
Width: 1333
GlyphClass: 2
Flags: HW
LayerCount: 2
Back
SplineSet
122 0 m 1
 122 52 l 1
 314 52 l 1
 314 1382 l 1
 122 1382 l 1
 122 1434 l 1
 714 1434 l 1
 714 1382 l 1
 522 1382 l 1
 522 757 l 1
 624 804 l 1
 1095 1382 l 1
 863 1382 l 1
 863 1434 l 1
 1368 1434 l 1
 1368 1382 l 1
 1165 1382 l 1
 782 912 l 1
 1399 52 l 1
 1574 52 l 1
 1574 0 l 1
 893 0 l 1
 893 52 l 1
 1133 52 l 1
 635 746 l 1
 522 694 l 1
 522 52 l 1
 714 52 l 1
 714 0 l 1
 122 0 l 1
EndSplineSet
Fore
SplineSet
122 1434 m 1
 330 1434 l 25
 330 757 l 25
 433 805 l 25
 945 1434 l 25
 1015 1434 l 25
 590 912 l 25
 1244 0 l 25
 979 0 l 25
 443 746 l 25
 330 694 l 25
 330 0 l 25
 122 0 l 25
 122 1434 l 1
EndSplineSet
EndChar

StartChar: L
Encoding: 303 76 47
Width: 1194
GlyphClass: 2
Flags: HW
LayerCount: 2
Back
SplineSet
122 0 m 1
 122 52 l 1
 314 52 l 1
 314 1382 l 1
 122 1382 l 1
 122 1434 l 1
 714 1434 l 1
 714 1382 l 1
 522 1382 l 1
 522 52 l 1
 820 52 l 2
 888 52 946.666666667 62.3333333333 996 83 c 128
 1045.33333333 103.666666667 1088 139.333333333 1124 190 c 0
 1162 244 1189.5 298 1206.5 352 c 128
 1223.5 406 1236 468.666666667 1244 540 c 1
 1304 540 l 1
 1282 0 l 1
 122 0 l 1
EndSplineSet
Fore
SplineSet
1100 0 m 25
 132 0 l 25
 132 1434 l 25
 340 1434 l 25
 340 52 l 25
 1102 52 l 17
 1100 0 l 25
EndSplineSet
EndChar

StartChar: M
Encoding: 304 77 48
Width: 1475
GlyphClass: 2
Flags: HW
LayerCount: 2
Back
SplineSet
102 0 m 1
 102 52 l 1
 306 52 l 1
 306 1382 l 1
 102 1382 l 1
 102 1434 l 1
 585 1434 l 1
 933 334 l 1
 1298 1434 l 1
 1732 1434 l 1
 1732 1382 l 1
 1540 1382 l 1
 1540 52 l 1
 1732 52 l 1
 1732 0 l 1
 1140 0 l 1
 1140 52 l 1
 1332 52 l 1
 1332 1332 l 1
 1328 1332 l 1
 875 -28 l 1
 815 -28 l 1
 390 1315 l 2
 382 1339 378 1361.33333333 378 1382 c 1
 370 1382 l 1
 370 52 l 1
 574 52 l 1
 574 0 l 1
 102 0 l 1
EndSplineSet
Fore
SplineSet
132 1434 m 25
 411 1434 l 25
 759 334 l 25
 1124 1434 l 25
 1366 1434 l 25
 1366 0 l 25
 1158 0 l 25
 1158 1332 l 17
 1154 1332 l 0
 701 -28 l 9
 641 -28 l 25
 212 1328 l 17
 205.852539062 1347.23144531 204.251953125 1364.41894531 204 1381 c 9
 196 1381 l 25
 196 0 l 25
 132 0 l 25
 132 1434 l 25
EndSplineSet
EndChar

StartChar: N
Encoding: 305 78 49
Width: 1206
GlyphClass: 2
Flags: HW
LayerCount: 2
Back
SplineSet
102 0 m 1
 102 52 l 1
 306 52 l 1
 306 1382 l 1
 102 1382 l 1
 102 1434 l 1
 600 1434 l 1
 1210 431 l 1
 1210 1382 l 1
 1006 1382 l 1
 1006 1434 l 1
 1478 1434 l 1
 1478 1382 l 1
 1274 1382 l 1
 1274 -28 l 1
 1214 -28 l 1
 393 1322 l 2
 381.666666667 1340.66666667 376 1360.66666667 376 1382 c 1
 370 1382 l 1
 370 52 l 1
 574 52 l 1
 574 0 l 1
 102 0 l 1
EndSplineSet
Fore
SplineSet
132 1434 m 25
 426 1434 l 25
 1036 431 l 25
 1036 1434 l 25
 1100 1434 l 25
 1100 -28 l 25
 1040 -28 l 17
 214 1331 l 1
 206.463867188 1346.92480469 202 1364 202 1382 c 9
 196 1382 l 25
 196 0 l 25
 132 0 l 25
 132 1434 l 25
EndSplineSet
EndChar

StartChar: O
Encoding: 306 79 50
Width: 1618
GlyphClass: 2
Flags: HW
LayerCount: 2
Back
SplineSet
146 712 m 0
 146 802.666666667 158.666666667 888.166666667 184 968.5 c 128
 209.333333333 1048.83333333 244 1118.66666667 288 1178 c 128
 332 1237.33333333 383 1288.66666667 441 1332 c 128
 499 1375.33333333 561.666666667 1407.83333333 629 1429.5 c 128
 696.333333333 1451.16666667 764.666666667 1462 834 1462 c 128
 903.333333333 1462 971.666666667 1451.16666667 1039 1429.5 c 128
 1106.33333333 1407.83333333 1169 1375.33333333 1227 1332 c 128
 1285 1288.66666667 1336 1237.33333333 1380 1178 c 128
 1424 1118.66666667 1458.66666667 1048.83333333 1484 968.5 c 128
 1509.33333333 888.166666667 1522 802.666666667 1522 712 c 0
 1522 599.333333333 1502.5 495.666666667 1463.5 401 c 128
 1424.5 306.333333333 1372.66666667 228.166666667 1308 166.5 c 128
 1243.33333333 104.833333333 1170.16666667 57 1088.5 23 c 128
 1006.83333333 -11 922 -28 834 -28 c 128
 746 -28 661.166666667 -11 579.5 23 c 128
 497.833333333 57 424.666666667 104.833333333 360 166.5 c 128
 295.333333333 228.166666667 243.5 306.333333333 204.5 401 c 128
 165.5 495.666666667 146 599.333333333 146 712 c 0
380 712 m 0
 380 485.333333333 419.333333333 314 498 198 c 128
 576.666666667 82 688.666666667 24 834 24 c 128
 979.333333333 24 1091.33333333 82 1170 198 c 128
 1248.66666667 314 1288 485.333333333 1288 712 c 0
 1288 939.333333333 1248.5 1112.5 1169.5 1231.5 c 128
 1090.5 1350.5 978.666666667 1410 834 1410 c 128
 689.333333333 1410 577.5 1350.5 498.5 1231.5 c 128
 419.5 1112.5 380 939.333333333 380 712 c 0
EndSplineSet
Fore
SplineSet
834 1410 m 1
 554 1410 380 1184 380 712 c 1
 380 468 428 24 835 24 c 1
 1194 24 1288 376 1288 713 c 1
 1288 966 1238 1410 834 1410 c 1
835 1462 m 1
 1122 1462 1522 1234 1522 712 c 1
 1522 234 1170 -28 835 -28 c 1
 454 -28 146 276 146 711 c 1
 146 1164 470 1462 835 1462 c 1
EndSplineSet
EndChar

StartChar: P
Encoding: 307 80 51
Width: 1180
GlyphClass: 2
Flags: HW
LayerCount: 2
Back
SplineSet
122 0 m 1
 122 52 l 1
 314 52 l 1
 314 1382 l 1
 122 1382 l 1
 122 1434 l 1
 748 1434 l 2
 810 1434 872.333333333 1424.66666667 935 1406 c 128
 997.666666667 1387.33333333 1050 1362 1092 1330 c 0
 1218.66666667 1232.66666667 1282 1111.33333333 1282 966 c 0
 1282 851.333333333 1242 759.666666667 1162 691 c 128
 1082 622.333333333 980.666666667 588 858 588 c 2
 522 588 l 1
 522 52 l 1
 714 52 l 1
 714 0 l 1
 122 0 l 1
522 640 m 1
 838 640 l 2
 872.666666667 640 902.833333333 645.666666667 928.5 657 c 128
 954.166666667 668.333333333 975.166666667 683.666666667 991.5 703 c 128
 1007.83333333 722.333333333 1021 746.666666667 1031 776 c 128
 1041 805.333333333 1048 836.5 1052 869.5 c 128
 1056 902.5 1058 940 1058 982 c 0
 1058 1017.33333333 1055.33333333 1051.5 1050 1084.5 c 128
 1044.66666667 1117.5 1035.66666667 1151.5 1023 1186.5 c 128
 1010.33333333 1221.5 991.5 1253.66666667 966.5 1283 c 128
 941.5 1312.33333333 911.333333333 1336 876 1354 c 0
 839.333333333 1372.66666667 784 1382 710 1382 c 2
 522 1382 l 1
 522 640 l 1
EndSplineSet
Fore
SplineSet
340 640 m 25
 664 640 l 17
 867 640 876 863 876 979 c 1
 876 1248 744 1382 556 1382 c 9
 340 1382 l 25
 340 640 l 25
132 1434 m 25
 572 1434 l 17
 870 1434 1100 1229 1100 974 c 1
 1100 676 852 588 680 588 c 9
 340 588 l 25
 340 0 l 25
 132 0 l 25
 132 1434 l 25
EndSplineSet
EndChar

StartChar: Q
Encoding: 308 81 52
Width: 1618
GlyphClass: 2
Flags: HW
LayerCount: 2
Back
SplineSet
146 712 m 0
 146 802.666666667 158.666666667 888.166666667 184 968.5 c 128
 209.333333333 1048.83333333 244 1118.66666667 288 1178 c 128
 332 1237.33333333 383 1288.66666667 441 1332 c 128
 499 1375.33333333 561.666666667 1407.83333333 629 1429.5 c 128
 696.333333333 1451.16666667 764.666666667 1462 834 1462 c 128
 903.333333333 1462 971.666666667 1451.16666667 1039 1429.5 c 128
 1106.33333333 1407.83333333 1169 1375.33333333 1227 1332 c 128
 1285 1288.66666667 1336 1237.33333333 1380 1178 c 128
 1424 1118.66666667 1458.66666667 1048.83333333 1484 968.5 c 128
 1509.33333333 888.166666667 1522 802.666666667 1522 712 c 0
 1522 599.333333333 1502.5 495.666666667 1463.5 401 c 128
 1424.5 306.333333333 1372.66666667 228.166666667 1308 166.5 c 128
 1243.33333333 104.833333333 1170.16666667 57 1088.5 23 c 128
 1006.83333333 -11 922 -28 834 -28 c 0
 817.333333333 -28 802.333333333 -26.6666666667 789 -24 c 1
 787 -29 l 1
 807 -41 827.333333333 -57.3333333333 848 -78 c 0
 878 -108 922.666666667 -126.666666667 982 -134 c 0
 1036 -140.666666667 1082.16666667 -155.166666667 1120.5 -177.5 c 128
 1158.83333333 -199.833333333 1193.33333333 -233.666666667 1224 -279 c 0
 1248.66666667 -315 1267.5 -340.166666667 1280.5 -354.5 c 128
 1293.5 -368.833333333 1311.66666667 -383.333333333 1335 -398 c 0
 1367.66666667 -418 1408.66666667 -428 1458 -428 c 0
 1501.33333333 -428 1543.33333333 -419.333333333 1584 -402 c 1
 1602 -450 l 1
 1548 -471.333333333 1484.66666667 -482 1412 -482 c 0
 1332 -482 1252.16666667 -473.666666667 1172.5 -457 c 128
 1092.83333333 -440.333333333 1032.66666667 -418 992 -390 c 0
 920 -341.333333333 865.666666667 -273.666666667 829 -187 c 0
 819.666666667 -164.333333333 810.666666667 -145.166666667 802 -129.5 c 128
 793.333333333 -113.833333333 782.166666667 -96.8333333333 768.5 -78.5 c 128
 754.833333333 -60.1666666667 738.5 -44.8333333333 719.5 -32.5 c 128
 700.5 -20.1666666667 679.333333333 -10.6666666667 656 -4 c 0
 588 14.6666666667 524 43.8333333333 464 83.5 c 128
 404 123.166666667 350 172.333333333 302 231 c 128
 254 289.666666667 216 360.5 188 443.5 c 128
 160 526.5 146 616 146 712 c 0
380 712 m 0
 380 485.333333333 419.333333333 314 498 198 c 128
 576.666666667 82 688.666666667 24 834 24 c 128
 979.333333333 24 1091.33333333 82 1170 198 c 128
 1248.66666667 314 1288 485.333333333 1288 712 c 0
 1288 939.333333333 1248.5 1112.5 1169.5 1231.5 c 128
 1090.5 1350.5 978.666666667 1410 834 1410 c 128
 689.333333333 1410 577.5 1350.5 498.5 1231.5 c 128
 419.5 1112.5 380 939.333333333 380 712 c 0
EndSplineSet
Fore
SplineSet
380 709 m 1
 380 503 413 24 836 24 c 1
 1221 24 1288 431 1288 710 c 1
 1288 1049 1192 1410 834 1410 c 1
 470 1410 380 1040 380 709 c 1
834 1462 m 1
 1199 1462 1522 1162 1522 714 c 1
 1522 243 1177 -28 839 -28 c 1
 822.333333329 -28.0000172855 805.666666671 -26.6666839931 789 -24 c 1
 787 -29 l 1
 831.885614186 -56.0476357231 851.455762499 -89.6134498696 889 -108 c 1
 950.000001887 -143.548538025 1070 -126 1153 -200 c 1
 1210.22602477 -244.408693555 1246.19203592 -319.76301685 1291 -366 c 1
 1323 -399 1388.80819203 -428 1456 -428 c 1
 1496.27265011 -428.19873217 1538.40551843 -421.508800024 1584 -402 c 9
 1602 -450 l 17
 1541.0044178 -473.880337054 1473.65278266 -482.951021955 1402 -482 c 1
 1178.91805852 -472.716889015 1054.11022667 -434.755669596 980 -382 c 1
 825 -264 856 -188 761 -70 c 1
 734.204112566 -36.2310674229 696.447475731 -15.1604978115 651 -3 c 1
 252 124 146 462 146 712 c 1
 146 1169 476 1462 834 1462 c 1
EndSplineSet
EndChar

StartChar: R
Encoding: 309 82 53
Width: 1308
GlyphClass: 2
Flags: HW
LayerCount: 2
Back
SplineSet
122 0 m 1
 122 52 l 1
 314 52 l 1
 314 1382 l 1
 122 1382 l 1
 122 1434 l 1
 726 1434 l 2
 802 1434 869.333333333 1424 928 1404 c 128
 986.666666667 1384 1032.66666667 1356.83333333 1066 1322.5 c 128
 1099.33333333 1288.16666667 1124.33333333 1250.83333333 1141 1210.5 c 128
 1157.66666667 1170.16666667 1166 1127.66666667 1166 1083 c 0
 1166 996.333333333 1140.66666667 926.833333333 1090 874.5 c 128
 1039.33333333 822.166666667 970 786 882 766 c 1
 882 754 l 1
 984 738 1061.83333333 702.333333333 1115.5 647 c 128
 1169.16666667 591.666666667 1196 527.333333333 1196 454 c 2
 1196 236 l 2
 1196 166 1207.5 116.5 1230.5 87.5 c 128
 1253.5 58.5 1292.33333333 44 1347 44 c 0
 1385 44 1424.66666667 51.6666666667 1466 67 c 1
 1478 17 l 1
 1411.33333333 -5 1341.66666667 -16 1269 -16 c 0
 1236.33333333 -16 1205 -12.1666666667 1175 -4.5 c 128
 1145 3.16666666667 1115.16666667 15.6666666667 1085.5 33 c 128
 1055.83333333 50.3333333333 1032.16666667 76.3333333333 1014.5 111 c 128
 996.833333333 145.666666667 988 187 988 235 c 2
 988 469 l 2
 988 544.333333333 967.833333333 607.666666667 927.5 659 c 128
 887.166666667 710.333333333 826.666666667 736 746 736 c 2
 522 736 l 1
 522 52 l 1
 714 52 l 1
 714 0 l 1
 122 0 l 1
522 788 m 1
 778 788 l 2
 814 788 844.166666667 795 868.5 809 c 128
 892.833333333 823 911.333333333 843.166666667 924 869.5 c 128
 936.666666667 895.833333333 945.5 924.5 950.5 955.5 c 128
 955.5 986.5 958 1023 958 1065 c 0
 958 1104.33333333 953.5 1142 944.5 1178 c 128
 935.5 1214 921.833333333 1247.66666667 903.5 1279 c 128
 885.166666667 1310.33333333 859.333333333 1335.33333333 826 1354 c 128
 792.666666667 1372.66666667 754 1382 710 1382 c 2
 522 1382 l 1
 522 788 l 1
EndSplineSet
Fore
SplineSet
340 788 m 25
 601 788 l 17
 753 788 776 932 776 1061 c 1
 776 1200 718 1382 536 1382 c 9
 340 1382 l 25
 340 788 l 25
132 1434 m 25
 557 1434 l 17
 836 1434 984 1277 984 1083 c 1
 984 886 848 801 700 766 c 9
 700 754 l 17
 854 736 1014 632 1014 456 c 9
 1014 237 l 17
 1014 90 1062 44 1165 44 c 1
 1206.23828125 44.4912109375 1245.40820312 53.98828125 1284 66 c 9
 1296 17 l 17
 1229.33300781 -3.9990234375 1161.33300781 -14.9990234375 1092 -16 c 1
 1000 -16 921 13 878 51.8544921875 c 0
 834.947265625 90.755859375 806 147.897460938 806 231 c 9
 806 471 l 17
 806 600 738 736 570 736 c 9
 340 736 l 25
 340 0 l 25
 132 0 l 25
 132 1434 l 25
EndSplineSet
EndChar

StartChar: S
Encoding: 310 83 54
Width: 1272
GlyphClass: 2
Flags: HW
LayerCount: 2
Back
SplineSet
188 476 m 1
 232 476 l 1
 251.333333333 374 289 284.666666667 345 208 c 0
 387 150 437.5 104.833333333 496.5 72.5 c 128
 555.5 40.1666666667 620 24 690 24 c 0
 792 24 871.833333333 49.6666666667 929.5 101 c 128
 987.166666667 152.333333333 1016 222.666666667 1016 312 c 0
 1016 395.333333333 986.666666667 464.5 928 519.5 c 128
 869.333333333 574.5 777.333333333 618 652 650 c 0
 604 662 561.333333333 674.833333333 524 688.5 c 128
 486.666666667 702.166666667 449 720 411 742 c 128
 373 764 341.5 788.666666667 316.5 816 c 128
 291.5 843.333333333 271.166666667 876.833333333 255.5 916.5 c 128
 239.833333333 956.166666667 232 1000.33333333 232 1049 c 0
 232 1172.33333333 270.333333333 1272 347 1348 c 128
 423.666666667 1424 529.333333333 1462 664 1462 c 0
 724 1462 778.666666667 1451.66666667 828 1431 c 0
 876.666666667 1411 910.333333333 1401 929 1401 c 0
 957 1401 975.333333333 1421.33333333 984 1462 c 1
 1028 1462 l 1
 1032 1091 l 1
 988 1091 l 1
 965.333333333 1156.33333333 933.666666667 1219 893 1279 c 0
 868.333333333 1316.33333333 833.166666667 1347.5 787.5 1372.5 c 128
 741.833333333 1397.5 696.333333333 1410 651 1410 c 0
 566.333333333 1410 498 1385.66666667 446 1337 c 128
 394 1288.33333333 368 1229.66666667 368 1161 c 0
 368 1127 375.333333333 1096.16666667 390 1068.5 c 128
 404.666666667 1040.83333333 422.333333333 1018 443 1000 c 128
 463.666666667 982 491.666666667 964.833333333 527 948.5 c 128
 562.333333333 932.166666667 593.333333333 919.833333333 620 911.5 c 128
 646.666666667 903.166666667 680.666666667 893.333333333 722 882 c 0
 795.333333333 862 857.833333333 839.833333333 909.5 815.5 c 128
 961.166666667 791.166666667 1006.83333333 761 1046.5 725 c 128
 1086.16666667 689 1115.66666667 645.5 1135 594.5 c 128
 1154.33333333 543.5 1164 484 1164 416 c 0
 1164 283.333333333 1118 176.166666667 1026 94.5 c 128
 934 12.8333333333 821 -28 687 -28 c 0
 606.333333333 -28 522.666666667 -7 436 35 c 0
 398 53 371.666666667 62 357 62 c 0
 327 62 304.333333333 55.3333333333 289 42 c 128
 273.666666667 28.6666666667 258 5.33333333333 242 -28 c 1
 198 -28 l 1
 188 476 l 1
EndSplineSet
Fore
SplineSet
666 1462 m 1
 808.659717053 1461.93231926 938 1400 1030 1340 c 9
 1030 1275 l 17
 944 1336 795.725712399 1409.34805593 651 1410 c 1
 476 1410 368 1292 368 1165 c 1
 368 997 531 936 674 895 c 0
 760.751794525 870.127107863 895.899414062 837.944335938 997 764 c 0
 1098.18457031 689.995117188 1164 595 1164 417 c 0
 1164 129 923 -29 690 -29 c 1
 523 -29 292 88 195 146 c 9
 193 217 l 17
 290 152 533 24 695 24 c 1
 930 24 1016 169 1016 311 c 1
 1016 572 731 626 618 659 c 1
 436 713 232 800 232 1045 c 1
 232 1302 395 1462 666 1462 c 1
EndSplineSet
EndChar

StartChar: T
Encoding: 311 84 55
Width: 1564
GlyphClass: 2
Flags: HW
LayerCount: 2
Back
SplineSet
134 846 m 1
 158 1434 l 1
 1466 1434 l 1
 1490 846 l 1
 1438 846 l 1
 1423.33333333 1008.66666667 1386.66666667 1133.33333333 1328 1220 c 0
 1255.33333333 1328 1160.66666667 1382 1044 1382 c 2
 916 1382 l 1
 916 52 l 1
 1108 52 l 1
 1108 0 l 1
 516 0 l 1
 516 52 l 1
 708 52 l 1
 708 1382 l 1
 580 1382 l 2
 463.333333333 1382 368.666666667 1328 296 1220 c 0
 237.333333333 1133.33333333 200.666666667 1008.66666667 186 846 c 1
 134 846 l 1
EndSplineSet
Fore
SplineSet
158 1434 m 25
 1466 1434 l 25
 1468 1382 l 25
 916 1382 l 25
 916 0 l 25
 708 0 l 25
 708 1382 l 25
 156 1382 l 25
 158 1434 l 25
EndSplineSet
EndChar

StartChar: U
Encoding: 312 85 56
Width: 1272
GlyphClass: 2
Flags: HW
LayerCount: 2
Back
SplineSet
88 1382 m 1
 88 1434 l 1
 680 1434 l 1
 680 1382 l 1
 488 1382 l 1
 488 324 l 2
 488 266.666666667 496.166666667 217.833333333 512.5 177.5 c 128
 528.833333333 137.166666667 552.166666667 106.166666667 582.5 84.5 c 128
 612.833333333 62.8333333333 646 47.3333333333 682 38 c 128
 718 28.6666666667 759.333333333 24 806 24 c 0
 933.333333333 24 1034.83333333 57.3333333333 1110.5 124 c 128
 1186.16666667 190.666666667 1224 287.333333333 1224 414 c 2
 1224 1382 l 1
 1020 1382 l 1
 1020 1434 l 1
 1492 1434 l 1
 1492 1382 l 1
 1288 1382 l 1
 1288 406 l 2
 1288 265.333333333 1244.83333333 157.833333333 1158.5 83.5 c 128
 1072.16666667 9.16666666667 954.666666667 -28 806 -28 c 0
 455.333333333 -28 280 126.666666667 280 436 c 2
 280 1382 l 1
 88 1382 l 1
EndSplineSet
Fore
SplineSet
132 1434 m 25
 340 1434 l 1
 340 320 l 17
 340 206 371 24 658 24 c 1
 932 24 1076 182 1076 408 c 9
 1076 1434 l 25
 1140 1434 l 25
 1140 400 l 17
 1140 158 986 -28 659 -28 c 1
 164 -28 132 290 132 426 c 9
 132 1434 l 25
EndSplineSet
EndChar

StartChar: V
Encoding: 313 86 57
Width: 1534
GlyphClass: 2
Flags: HW
LayerCount: 2
Back
SplineSet
68 1382 m 1
 68 1434 l 1
 740 1434 l 1
 740 1382 l 1
 490 1382 l 1
 882 325 l 1
 1228 1382 l 1
 1018 1382 l 1
 1018 1434 l 1
 1514 1434 l 1
 1514 1382 l 1
 1296 1382 l 1
 834 -28 l 1
 774 -28 l 1
 250 1382 l 1
 68 1382 l 1
EndSplineSet
Fore
SplineSet
231 1434 m 25
 471 1434 l 25
 882 324 l 25
 1245 1434 l 29
 1313 1434 l 25
 834 -28 l 25
 774 -28 l 25
 231 1434 l 25
EndSplineSet
EndChar

StartChar: W
Encoding: 314 87 58
Width: 2047
GlyphClass: 2
Flags: HW
LayerCount: 2
Back
SplineSet
68 1382 m 1
 68 1434 l 1
 664 1434 l 1
 664 1382 l 1
 460 1382 l 1
 823 314 l 1
 1122 1182 l 1
 1055 1382 l 1
 886 1382 l 1
 886 1434 l 1
 1482 1434 l 1
 1482 1382 l 1
 1286 1382 l 1
 1634 340 l 1
 1937 1382 l 1
 1718 1382 l 1
 1718 1434 l 1
 2140 1434 l 1
 2140 1382 l 1
 1996 1382 l 1
 1586 -28 l 1
 1526 -28 l 1
 1152 1091 l 1
 766 -28 l 1
 706 -28 l 1
 226 1382 l 1
 68 1382 l 1
EndSplineSet
Fore
SplineSet
122 1434 m 25
 356 1434 l 25
 737 314 l 25
 1036 1182 l 25
 952 1434 l 25
 1183 1434 l 25
 1548 340 l 25
 1866 1434 l 25
 1925 1434 l 25
 1500 -28 l 25
 1440 -28 l 25
 1066 1091 l 1
 680 -28 l 25
 620 -28 l 25
 122 1434 l 25
EndSplineSet
EndChar

StartChar: X
Encoding: 315 88 59
Width: 1425
GlyphClass: 2
Flags: HW
LayerCount: 2
Back
SplineSet
72 0 m 1
 72 52 l 1
 288 52 l 1
 707 712 l 1
 283 1382 l 1
 72 1382 l 1
 72 1434 l 1
 788 1434 l 1
 788 1382 l 1
 536 1382 l 1
 834 912 l 1
 1133 1382 l 1
 928 1382 l 1
 928 1434 l 1
 1416 1434 l 1
 1416 1382 l 1
 1199 1382 l 1
 867 859 l 1
 1379 52 l 1
 1534 52 l 1
 1534 0 l 1
 814 0 l 1
 814 52 l 1
 1126 52 l 1
 741 660 l 1
 354 52 l 1
 622 52 l 1
 622 0 l 1
 72 0 l 1
EndSplineSet
Fore
SplineSet
132 1434 m 25
 384 1434 l 25
 715 912 l 25
 1047 1434 l 25
 1113 1434 l 25
 748 859 l 25
 1293 0 l 25
 1040 0 l 25
 622 660 l 25
 202 0 l 25
 136 0 l 25
 588 712 l 25
 132 1434 l 25
EndSplineSet
EndChar

StartChar: Y
Encoding: 316 89 60
Width: 1462
GlyphClass: 2
Flags: HW
LayerCount: 2
Back
SplineSet
68 1382 m 1
 68 1434 l 1
 740 1434 l 1
 740 1382 l 1
 500 1382 l 1
 862 717 l 1
 1194 1382 l 1
 982 1382 l 1
 982 1434 l 1
 1442 1434 l 1
 1442 1382 l 1
 1260 1382 l 1
 896 648 l 1
 896 52 l 1
 1088 52 l 1
 1088 0 l 1
 496 0 l 1
 496 52 l 1
 688 52 l 1
 688 592 l 1
 259 1382 l 1
 68 1382 l 1
EndSplineSet
Fore
SplineSet
232 1434 m 25
 472 1434 l 25
 862 717 l 25
 1220 1434 l 25
 1286 1434 l 29
 896 648 l 25
 896 0 l 25
 688 0 l 25
 688 592 l 25
 232 1434 l 25
EndSplineSet
EndChar

StartChar: Z
Encoding: 317 90 61
Width: 1400
GlyphClass: 2
Flags: HW
LayerCount: 2
Back
SplineSet
160 921 m 1
 202 1434 l 1
 1224 1434 l 1
 1224 1390 l 1
 431 52 l 1
 822 52 l 2
 883.333333333 52 942 66.3333333333 998 95 c 128
 1054 123.666666667 1097.33333333 161.333333333 1128 208 c 0
 1164.66666667 262.666666667 1190.16666667 308.666666667 1204.5 346 c 128
 1218.83333333 383.333333333 1234 439 1250 513 c 1
 1302 513 l 1
 1280 0 l 1
 174 0 l 1
 174 48 l 1
 967 1382 l 1
 614 1382 l 2
 552 1382 498.333333333 1371 453 1349 c 128
 407.666666667 1327 368.333333333 1291.33333333 335 1242 c 0
 304.333333333 1196.66666667 280.166666667 1150.66666667 262.5 1104 c 128
 244.833333333 1057.33333333 228 996.333333333 212 921 c 1
 160 921 l 1
EndSplineSet
Fore
SplineSet
202 1434 m 25
 1224 1434 l 25
 1224 1390 l 25
 431 52 l 25
 1282 52 l 25
 1280 0 l 25
 174 0 l 25
 174 48 l 25
 967 1382 l 25
 198 1382 l 25
 202 1434 l 25
EndSplineSet
EndChar

StartChar: bracketleft
Encoding: 318 91 62
Width: 780
GlyphClass: 2
Flags: HW
LayerCount: 2
Back
SplineSet
232 -520 m 1
 232 1496 l 1
 684 1496 l 1
 684 1444 l 1
 378 1444 l 1
 378 -468 l 1
 684 -468 l 1
 684 -520 l 1
 232 -520 l 1
EndSplineSet
Fore
SplineSet
238 1494 m 29
 686 1490 l 25
 686 1438 l 25
 374 1438 l 25
 378 -474 l 25
 674 -470 l 25
 678 -518 l 25
 230 -510 l 25
 238 1494 l 29
EndSplineSet
EndChar

StartChar: backslash
Encoding: 319 92 63
Width: 722
GlyphClass: 2
Flags: HW
LayerCount: 2
Back
SplineSet
80 1434 m 1
 182 1434 l 1
 642 -520 l 1
 540 -520 l 1
 80 1434 l 1
EndSplineSet
Fore
SplineSet
78 1434 m 29
 186 1430 l 25
 638 -514 l 25
 538 -514 l 25
 78 1434 l 29
EndSplineSet
EndChar

StartChar: bracketright
Encoding: 320 93 64
Width: 780
GlyphClass: 2
Flags: HW
LayerCount: 2
Back
SplineSet
96 -468 m 1
 402 -468 l 1
 402 1444 l 1
 96 1444 l 1
 96 1496 l 1
 548 1496 l 1
 548 -520 l 1
 96 -520 l 1
 96 -468 l 1
EndSplineSet
Fore
SplineSet
98 1502 m 29
 550 1498 l 25
 542 -518 l 25
 106 -510 l 25
 94 -462 l 25
 398 -462 l 25
 394 1446 l 25
 98 1446 l 25
 98 1502 l 29
EndSplineSet
EndChar

StartChar: asciicircum
Encoding: 321 94 65
Width: 1152
GlyphClass: 2
Flags: HW
LayerCount: 2
Back
SplineSet
42 736 m 1
 528 1462 l 1
 624 1462 l 1
 1110 736 l 1
 939 736 l 1
 521 1361 l 1
 102 736 l 1
 42 736 l 1
EndSplineSet
Fore
SplineSet
46 750 m 29
 538 1462 l 25
 630 1462 l 25
 1106 746 l 25
 938 746 l 25
 518 1358 l 25
 98 746 l 25
 46 750 l 29
EndSplineSet
EndChar

StartChar: underscore
Encoding: 322 95 66
Width: 1024
GlyphClass: 2
Flags: HW
LayerCount: 2
Back
SplineSet
0 -256 m 1
 1024 -256 l 1
 1024 -352 l 1
 0 -352 l 1
 0 -256 l 1
EndSplineSet
Fore
SplineSet
0 -246 m 29
 1024 -242 l 25
 1024 -350 l 25
 0 -354 l 25
 0 -246 l 29
EndSplineSet
EndChar

StartChar: grave
Encoding: 323 96 67
AltUni2: 0002cb.ffffffff.0
Width: 880
GlyphClass: 2
Flags: HW
LayerCount: 2
Back
SplineSet
260 1396 m 0
 260 1414.66666667 266.166666667 1430.33333333 278.5 1443 c 128
 290.833333333 1455.66666667 307.666666667 1462 329 1462 c 0
 373 1462 407.333333333 1428.33333333 432 1361 c 2
 538 1072 l 1
 506 1054 l 1
 311 1288 l 2
 277 1329.33333333 260 1365.33333333 260 1396 c 0
EndSplineSet
Fore
SplineSet
282 1454 m 29
 398 1422 l 25
 530 1078 l 25
 510 1062 l 25
 266 1362 l 25
 282 1454 l 29
EndSplineSet
EndChar

StartChar: a
Encoding: 324 97 68
Width: 880
GlyphClass: 2
Flags: HW
LayerCount: 2
Back
SplineSet
112 193 m 0
 112 273 133.833333333 332.666666667 177.5 372 c 128
 221.166666667 411.333333333 283 436 363 446 c 0
 415 452.666666667 459 462.833333333 495 476.5 c 128
 531 490.166666667 568 509.333333333 606 534 c 1
 606 640 l 2
 606 664.666666667 603.333333333 688.333333333 598 711 c 128
 592.666666667 733.666666667 583.833333333 756.166666667 571.5 778.5 c 128
 559.166666667 800.833333333 540.666666667 818.666666667 516 832 c 128
 491.333333333 845.333333333 461.666666667 852 427 852 c 0
 387 852 351.666666667 843.333333333 321 826 c 128
 290.333333333 808.666666667 275 786.333333333 275 759 c 0
 275 745 279.666666667 727.333333333 289 706 c 0
 299 684.666666667 304 664 304 644 c 0
 304 624.666666667 296.833333333 607.833333333 282.5 593.5 c 128
 268.166666667 579.166666667 247 572 219 572 c 0
 187 572 163.166666667 580.5 147.5 597.5 c 128
 131.833333333 614.5 124 637.333333333 124 666 c 0
 124 726.666666667 154.5 780.833333333 215.5 828.5 c 128
 276.5 876.166666667 350 900 436 900 c 0
 552 900 636.666666667 869.166666667 690 807.5 c 128
 743.333333333 745.833333333 770 664 770 562 c 2
 770 159 l 2
 770 118.333333333 779.5 88.6666666667 798.5 70 c 128
 817.5 51.3333333333 841.333333333 42 870 42 c 0
 890 42 911.333333333 44.3333333333 934 49 c 1
 942 -2 l 1
 910 -11.3333333333 881.666666667 -16 857 -16 c 0
 793 -16 741.333333333 -5.16666666667 702 16.5 c 128
 662.666666667 38.1666666667 634 79.6666666667 616 141 c 1
 608 141 l 1
 575.333333333 91.6666666667 539 53.1666666667 499 25.5 c 128
 459 -2.16666666667 408 -16 346 -16 c 0
 276 -16 219.5 2.66666666667 176.5 40 c 128
 133.5 77.3333333333 112 128.333333333 112 193 c 0
286 209 m 0
 286 107 333.333333333 56 428 56 c 0
 462.666666667 56 495.333333333 69.3333333333 526 96 c 128
 556.666666667 122.666666667 583.333333333 156.666666667 606 198 c 1
 606 487 l 1
 574 466.333333333 543.833333333 450.833333333 515.5 440.5 c 128
 487.166666667 430.166666667 445.666666667 418 391 404 c 0
 321 386 286 321 286 209 c 0
EndSplineSet
Fore
SplineSet
428 56 m 1
 506 56 563 124 606 198 c 9
 606 487 l 17
 560 455 505 434 442 418 c 1
 380 402 343 396 314 344 c 0
 297.494509971 314.403948914 286 271.480320732 286 212 c 1
 286 144 303 56 428 56 c 1
770 0 m 25
 608 0 l 25
 608 141 l 17
 584.539507975 106.499276435 535 40 468 8 c 0
 434.820135298 -7.84709955923 395.117800361 -16 348 -16 c 1
 210 -16 112 57 112 195 c 1
 112 356 206 404 283 430 c 0
 320.686472132 442.725302278 369.24829852 445.669899018 409 453 c 1
 489.477716319 468.060275429 552.113477228 497.503598542 606 534 c 1
 605.79296875 635 l 1
 605.79296875 728 574.650687465 852 428 852 c 1
 356 852 275 819 275 760 c 1
 275 723 304 690 304 646 c 1
 304 605 276 572 220 572 c 1
 146 572 124 620 124 663 c 1
 124 725.253693743 153.002929688 775.73046875 203 818 c 0
 258.2109375 864.677734375 328 900 440 900 c 1
 783 900 770 600 770 529 c 9
 770 171 l 25
 770 0 l 25
EndSplineSet
EndChar

StartChar: b
Encoding: 325 98 69
Width: 1072
GlyphClass: 2
Flags: HW
LayerCount: 2
Back
SplineSet
78 0 m 1
 78 48 l 1
 220 48 l 1
 220 1448 l 1
 78 1448 l 1
 78 1496 l 1
 384 1496 l 1
 384 722 l 1
 398 720 l 1
 468.666666667 840 564.333333333 900 685 900 c 0
 751.666666667 900 812 883.333333333 866 850 c 0
 925.333333333 813.333333333 971.5 760 1004.5 690 c 128
 1037.5 620 1054 537.333333333 1054 442 c 128
 1054 346.666666667 1037.5 264 1004.5 194 c 128
 971.5 124 925.333333333 70.6666666667 866 34 c 0
 812 0.666666666667 751.666666667 -16 685 -16 c 0
 564.333333333 -16 468.666666667 44 398 164 c 1
 384 162 l 1
 384 0 l 1
 78 0 l 1
384 442 m 128
 384 325.333333333 409 229.833333333 459 155.5 c 128
 509 81.1666666667 566 44 630 44 c 0
 686 44 732.5 62.5 769.5 99.5 c 128
 806.5 136.5 832.5 183.666666667 847.5 241 c 128
 862.5 298.333333333 870 365.333333333 870 442 c 128
 870 518.666666667 862.5 585.666666667 847.5 643 c 128
 832.5 700.333333333 806.5 747.5 769.5 784.5 c 128
 732.5 821.5 686 840 630 840 c 0
 566 840 509 802.833333333 459 728.5 c 128
 409 654.166666667 384 558.666666667 384 442 c 128
EndSplineSet
Fore
SplineSet
792 443 m 1
 792 710 700 840 551 840 c 1
 450 840 306 715 306 441 c 1
 306 176 448 44 550 44 c 1
 650 44 792 105 792 443 c 1
142 1496 m 25
 306 1496 l 25
 306 722 l 25
 320 720 l 17
 383.266601562 825.46484375 472 900 608 900 c 1
 821 900 976 723 976 442 c 1
 976 124 789 -16 606 -16 c 1
 446 -16 369 88 319 164 c 1
 306 162 l 9
 306 0 l 25
 142 0 l 25
 142 1496 l 25
EndSplineSet
EndChar

StartChar: c
Encoding: 326 99 70
Width: 944
GlyphClass: 2
Flags: HW
LayerCount: 2
Back
SplineSet
96 432 m 0
 96 494 107.166666667 553.666666667 129.5 611 c 128
 151.833333333 668.333333333 182.333333333 718.166666667 221 760.5 c 128
 259.666666667 802.833333333 306.166666667 836.666666667 360.5 862 c 128
 414.833333333 887.333333333 472.666666667 900 534 900 c 0
 582 900 625.833333333 892 665.5 876 c 128
 705.166666667 860 736.5 839.666666667 759.5 815 c 128
 782.5 790.333333333 800 764.833333333 812 738.5 c 128
 824 712.166666667 830 687 830 663 c 0
 830 630.333333333 821 602 803 578 c 128
 785 554 758.666666667 542 724 542 c 0
 699.333333333 542 679.5 548.666666667 664.5 562 c 128
 649.5 575.333333333 642 592.666666667 642 614 c 128
 642 635.333333333 646.333333333 658 655 682 c 0
 663.666666667 705.333333333 668 729 668 753 c 0
 668 777.666666667 656.333333333 800.333333333 633 821 c 128
 609.666666667 841.666666667 574.333333333 852 527 852 c 0
 448.333333333 852 387.5 816 344.5 744 c 128
 301.5 672 280 577.333333333 280 460 c 0
 280 332 303.333333333 230.333333333 350 155 c 128
 396.666666667 79.6666666667 465.333333333 42 556 42 c 0
 591.333333333 42 623.166666667 48.3333333333 651.5 61 c 128
 679.833333333 73.6666666667 702.666666667 89.8333333333 720 109.5 c 128
 737.333333333 129.166666667 751.833333333 152 763.5 178 c 128
 775.166666667 204 783.333333333 229.5 788 254.5 c 128
 792.666666667 279.5 795.333333333 304.666666667 796 330 c 1
 848 330 l 1
 847.333333333 298 844.5 267.333333333 839.5 238 c 128
 834.5 208.666666667 824.5 178.166666667 809.5 146.5 c 128
 794.5 114.833333333 775.666666667 87.3333333333 753 64 c 128
 730.333333333 40.6666666667 699.5 21.5 660.5 6.5 c 128
 621.5 -8.5 576.666666667 -16 526 -16 c 0
 397.333333333 -16 293.5 25.3333333333 214.5 108 c 128
 135.5 190.666666667 96 298.666666667 96 432 c 0
EndSplineSet
Fore
SplineSet
96 433 m 1
 96 668 271 900 537 900 c 1
 740 900 830 752 830 663 c 1
 830 620 809 542 724 542 c 1
 670 542 641 579 641 614 c 1
 641 667 668 694 668 748 c 1
 668 821 598 852 528 852 c 1
 340 852 280 644 280 460 c 1
 280 192 383 41 553 41 c 1
 731 41 796 199 796 330 c 9
 847 330 l 17
 847 142 756 -16 532 -16 c 1
 251 -16 96 180 96 433 c 1
EndSplineSet
EndChar

StartChar: d
Encoding: 327 100 71
Width: 1040
GlyphClass: 2
Flags: HW
LayerCount: 2
Back
SplineSet
96 442 m 128
 96 537.333333333 112.5 620 145.5 690 c 128
 178.5 760 224.666666667 813.333333333 284 850 c 0
 338 883.333333333 398.333333333 900 465 900 c 0
 585.666666667 900 681.333333333 840 752 720 c 1
 766 722 l 1
 766 1448 l 1
 560 1448 l 1
 560 1496 l 1
 930 1496 l 1
 930 48 l 1
 1072 48 l 1
 1072 0 l 1
 766 0 l 1
 766 162 l 1
 752 164 l 1
 681.333333333 44 585.666666667 -16 465 -16 c 0
 398.333333333 -16 338 0.666666666667 284 34 c 0
 224.666666667 70.6666666667 178.5 124 145.5 194 c 128
 112.5 264 96 346.666666667 96 442 c 128
280 442 m 128
 280 365.333333333 287.5 298.333333333 302.5 241 c 128
 317.5 183.666666667 343.5 136.5 380.5 99.5 c 128
 417.5 62.5 464 44 520 44 c 0
 584 44 641 81.1666666667 691 155.5 c 128
 741 229.833333333 766 325.333333333 766 442 c 128
 766 558.666666667 741 654.166666667 691 728.5 c 128
 641 802.833333333 584 840 520 840 c 0
 464 840 417.5 821.5 380.5 784.5 c 128
 343.5 747.5 317.5 700.333333333 302.5 643 c 128
 287.5 585.666666667 280 518.666666667 280 442 c 128
EndSplineSet
Fore
SplineSet
520 44 m 1
 635 44 766 188 766 442 c 1
 766 695 635 840 521 840 c 1
 382 840 280 722 280 442 c 1
 280 174 374 44 520 44 c 1
930 1496 m 25
 930 0 l 25
 766 0 l 25
 766 162 l 17
 752 164 l 1
 683 48 590 -16 464 -16 c 1
 260 -16 96 150 96 443 c 1
 96 716 245 900 465 900 c 1
 594 900 684 833 752 720 c 9
 766 722 l 25
 766 1496 l 25
 930 1496 l 25
EndSplineSet
EndChar

StartChar: e
Encoding: 328 101 72
Width: 962
GlyphClass: 2
Flags: HW
LayerCount: 2
Back
SplineSet
96 430 m 0
 96 517.333333333 113.333333333 596.5 148 667.5 c 128
 182.666666667 738.5 233.166666667 795 299.5 837 c 128
 365.833333333 879 442.333333333 900 529 900 c 0
 582.333333333 900 631.333333333 889.333333333 676 868 c 128
 720.666666667 846.666666667 756.666666667 819.333333333 784 786 c 128
 811.333333333 752.666666667 832.5 716.333333333 847.5 677 c 128
 862.5 637.666666667 870 598.666666667 870 560 c 0
 870 531.333333333 865 510.833333333 855 498.5 c 128
 845 486.166666667 825.333333333 480 796 480 c 2
 280 480 l 1
 280 192 372 48 556 48 c 0
 628 48 686.333333333 71.3333333333 731 118 c 128
 775.666666667 164.666666667 802.666666667 224.666666667 812 298 c 1
 864 298 l 1
 861.333333333 260 853 223.166666667 839 187.5 c 128
 825 151.833333333 804.833333333 118.5 778.5 87.5 c 128
 752.166666667 56.5 717.166666667 31.5 673.5 12.5 c 128
 629.833333333 -6.5 580.666666667 -16 526 -16 c 0
 402 -16 299.333333333 25.3333333333 218 108 c 128
 136.666666667 190.666666667 96 298 96 430 c 0
281 528 m 1
 631 528 l 2
 659 528 677.166666667 535.666666667 685.5 551 c 128
 693.833333333 566.333333333 698 591 698 625 c 0
 698 687 682.5 740.333333333 651.5 785 c 128
 620.5 829.666666667 572.666666667 852 508 852 c 0
 476 852 447.166666667 845.5 421.5 832.5 c 128
 395.833333333 819.5 374.666666667 802.5 358 781.5 c 128
 341.333333333 760.5 327.333333333 735.5 316 706.5 c 128
 304.666666667 677.5 296.333333333 648.5 291 619.5 c 128
 285.666666667 590.5 282.333333333 560 281 528 c 1
EndSplineSet
Fore
SplineSet
281 528 m 9
 634 528 l 17
 694 528 698 573 698 621 c 1
 698 741 645 852 509 852 c 1
 379 852 293 746 281 528 c 9
530 900 m 1
 762 900 870 699 870 564 c 1
 870 510 860 480 800 480 c 9
 280 480 l 17
 280 342 295 48 558 48 c 1
 734 48 800 197 812 298 c 9
 864 298 l 17
 852 156 759 -16 529 -16 c 1
 264 -16 95 179 95 429 c 1
 95 704 273 900 530 900 c 1
EndSplineSet
EndChar

StartChar: f
Encoding: 329 102 73
Width: 698
GlyphClass: 2
Flags: HW
LayerCount: 2
Back
SplineSet
84 836 m 1
 84 884 l 1
 230 884 l 1
 230 954 l 2
 230 1100.66666667 259.666666667 1221.33333333 319 1316 c 0
 355 1374 400.166666667 1421.16666667 454.5 1457.5 c 128
 508.833333333 1493.83333333 564 1512 620 1512 c 0
 681.333333333 1512 732.333333333 1496 773 1464 c 128
 813.666666667 1432 834 1388 834 1332 c 0
 834 1291.33333333 824.5 1259.66666667 805.5 1237 c 128
 786.5 1214.33333333 763 1203 735 1203 c 0
 684.333333333 1203 659 1226.66666667 659 1274 c 0
 659 1288.66666667 662 1308.66666667 668 1334 c 0
 673.333333333 1354.66666667 676 1372.33333333 676 1387 c 0
 676 1410.33333333 670.5 1429 659.5 1443 c 128
 648.5 1457 627.333333333 1464 596 1464 c 0
 539.333333333 1464 491.5 1429.16666667 452.5 1359.5 c 128
 413.5 1289.83333333 394 1188.66666667 394 1056 c 2
 394 884 l 1
 610 884 l 1
 610 836 l 1
 394 836 l 1
 394 48 l 1
 536 48 l 1
 536 0 l 1
 88 0 l 1
 88 48 l 1
 230 48 l 1
 230 836 l 1
 84 836 l 1
EndSplineSet
Fore
SplineSet
230 0 m 25
 230 836 l 25
 84 836 l 25
 84 884 l 25
 230 884 l 17
 230 895.493527383 230.142578125 922.827148438 230.423828125 934 c 1
 230.423828125 1159 278.330078125 1260.43164062 342 1349 c 0
 429.938476562 1471.32714844 543 1512 622 1512 c 1
 679.782954822 1512 738.171600322 1495.04066099 778.999997987 1458.45542318 c 0
 812.362713739 1428.55998375 834 1394 834 1328 c 1
 834 1254 792 1203 736 1203 c 1
 713 1203 659 1204 659 1276 c 1
 659 1315 676 1346 676 1386 c 1
 676 1408.67439989 670 1433 657 1446 c 0
 645.282462119 1457.71753788 625.020380187 1464 596 1464 c 1
 479 1464 394 1309 394 1069 c 9
 394 884 l 25
 610 884 l 25
 610 836 l 25
 394 836 l 25
 394 0 l 25
 230 0 l 25
EndSplineSet
EndChar

StartChar: g
Encoding: 330 103 74
Width: 1160
GlyphClass: 2
Flags: HW
LayerCount: 2
Back
SplineSet
128 -376 m 0
 128 -326.666666667 145.666666667 -282.666666667 181 -244 c 128
 216.333333333 -205.333333333 270 -167.666666667 342 -131 c 1
 342 -124 l 1
 330 -124 317.333333333 -123.166666667 304 -121.5 c 128
 290.666666667 -119.833333333 273.833333333 -115.5 253.5 -108.5 c 128
 233.166666667 -101.5 215.5 -92.1666666667 200.5 -80.5 c 128
 185.5 -68.8333333333 172.333333333 -51.3333333333 161 -28 c 128
 149.666666667 -4.66666666667 144 22.6666666667 144 54 c 0
 144 118 159.666666667 175.333333333 191 226 c 128
 222.333333333 276.666666667 265 314.666666667 319 340 c 1
 319 344 l 1
 235.666666667 406.666666667 194 486.666666667 194 584 c 0
 194 674.666666667 229 750 299 810 c 128
 369 870 453.333333333 900 552 900 c 0
 607.333333333 900 659.166666667 890 707.5 870 c 128
 755.833333333 850 796.666666667 822 830 786 c 1
 858.666666667 826.666666667 883.666666667 855.833333333 905 873.5 c 128
 926.333333333 891.166666667 953.333333333 900 986 900 c 0
 1026 900 1057 887.833333333 1079 863.5 c 128
 1101 839.166666667 1112 809.333333333 1112 774 c 0
 1112 752.666666667 1105.83333333 734 1093.5 718 c 128
 1081.16666667 702 1065.33333333 694 1046 694 c 0
 1025.33333333 694 1010.33333333 700.333333333 1001 713 c 128
 991.666666667 725.666666667 985.333333333 744 982 768 c 0
 979.333333333 789.333333333 975.333333333 804.833333333 970 814.5 c 128
 964.666666667 824.166666667 955.666666667 829 943 829 c 0
 910.333333333 829 879.666666667 806.333333333 851 761 c 1
 890.333333333 713 910 654 910 584 c 0
 910 493.333333333 875 418 805 358 c 128
 735 298 650.666666667 268 552 268 c 0
 480.666666667 268 415.333333333 284.666666667 356 318 c 1
 268 281.333333333 224 222 224 140 c 0
 224 108 236.333333333 83.3333333333 261 66 c 128
 285.666666667 48.6666666667 322 40 370 40 c 0
 400 40 453.666666667 45 531 55 c 0
 606.333333333 65 660 70 692 70 c 0
 784.666666667 70 853.166666667 44.6666666667 897.5 -6 c 128
 941.833333333 -56.6666666667 964 -125.666666667 964 -213 c 0
 964 -329 921 -427.5 835 -508.5 c 128
 749 -589.5 639.333333333 -630 506 -630 c 0
 459.333333333 -630 414.166666667 -625 370.5 -615 c 128
 326.833333333 -605 286.5 -590.166666667 249.5 -570.5 c 128
 212.5 -550.833333333 183 -524.166666667 161 -490.5 c 128
 139 -456.833333333 128 -418.666666667 128 -376 c 0
254 -381 m 0
 254 -426.333333333 267.333333333 -463.666666667 294 -493 c 128
 320.666666667 -522.333333333 352.666666667 -542.5 390 -553.5 c 128
 427.333333333 -564.5 469.333333333 -570 516 -570 c 0
 571.333333333 -570 620.333333333 -561.333333333 663 -544 c 128
 705.666666667 -526.666666667 739.166666667 -503.5 763.5 -474.5 c 128
 787.833333333 -445.5 806 -414 818 -380 c 128
 830 -346 836 -310.666666667 836 -274 c 0
 836 -251.333333333 832.833333333 -230 826.5 -210 c 128
 820.166666667 -190 809.833333333 -171 795.5 -153 c 128
 781.166666667 -135 760.833333333 -120.666666667 734.5 -110 c 128
 708.166666667 -99.3333333333 677 -94 641 -94 c 0
 593.666666667 -94 517 -103.333333333 411 -122 c 1
 361 -154.666666667 322.333333333 -191.666666667 295 -233 c 128
 267.666666667 -274.333333333 254 -323.666666667 254 -381 c 0
358 584 m 128
 358 498 376 431.166666667 412 383.5 c 128
 448 335.833333333 494.666666667 312 552 312 c 128
 609.333333333 312 656 335.833333333 692 383.5 c 128
 728 431.166666667 746 498 746 584 c 128
 746 670 728 737.5 692 786.5 c 128
 656 835.5 609.333333333 860 552 860 c 128
 494.666666667 860 448 835.5 412 786.5 c 128
 376 737.5 358 670 358 584 c 128
EndSplineSet
Fore
SplineSet
517 -570 m 1
 762 -570 836 -398 836 -278 c 1
 836 -164 766 -94 648 -94 c 1
 567 -94 492 -110 412 -121 c 1
 318 -185 254 -258 254 -379 c 1
 254 -495 344 -570 517 -570 c 1
552 312 m 1
 627 312 681 355 711 414 c 0
 738 466 746 526 746 585 c 1
 746 763 662 860 552 860 c 1
 489 860 446 832 412 786 c 1
 368 728 358 652 358 583 c 1
 358 505 372 438 411 386 c 0
 443 343 486 312 552 312 c 1
552 900 m 1
 657 900 757 863 830 786 c 1
 856 822 878 851 904 873 c 0
 923 889 951 900 986 900 c 1
 1019 900 1048 891 1068 874 c 0
 1097 849 1112 814 1112 775 c 1
 1112 732 1086 694 1047 694 c 1
 1018 694 1006 705 997 719 c 0
 989 732 985 748 983 762 c 1
 981 774 980 785 976 799 c 0
 971 818 963 829 943 829 c 1
 902 829 872 794 851 761 c 1
 893 711 910 650 910 584 c 1
 910 484 867 411 801 355 c 0
 736 301 652 268 553 268 c 1
 480 268 412 286 356 318 c 1
 286 288 224 238 224 141 c 1
 224 58 304 40 367 40 c 1
 458 40 600 70 696 70 c 1
 782 70 846 47 891 1 c 0
 937 -46 964 -120 964 -211 c 1
 964 -441 780 -630 507 -630 c 1
 330 -630 128 -556 128 -379 c 1
 128 -311 159 -263 199 -225 c 0
 237 -189 288 -159 342 -131 c 9
 342 -124 l 17
 222 -124 144 -59 144 54 c 1
 144 179 209 289 319 340 c 9
 319 344 l 17
 252 392 194 472 194 584 c 1
 194 682 234 753 297 808 c 0
 363 866 447 900 552 900 c 1
EndSplineSet
EndChar

StartChar: h
Encoding: 331 104 75
Width: 1166
GlyphClass: 2
Flags: HW
LayerCount: 2
Back
SplineSet
78 0 m 1
 78 48 l 1
 220 48 l 1
 220 1448 l 1
 78 1448 l 1
 78 1496 l 1
 384 1496 l 1
 384 674 l 1
 396 671 l 1
 428 745.666666667 470.833333333 802.5 524.5 841.5 c 128
 578.166666667 880.5 639.333333333 900 708 900 c 0
 790.666666667 900 855 871.666666667 901 815 c 0
 943 763 964 694 964 608 c 2
 964 48 l 1
 1106 48 l 1
 1106 0 l 1
 658 0 l 1
 658 48 l 1
 800 48 l 1
 800 644 l 2
 800 766.666666667 745.333333333 828 636 828 c 0
 593.333333333 828 555.333333333 813.666666667 522 785 c 128
 488.666666667 756.333333333 461.333333333 720.333333333 440 677 c 0
 418 633 403.166666667 591.666666667 395.5 553 c 128
 387.833333333 514.333333333 384 467.333333333 384 412 c 2
 384 48 l 1
 526 48 l 1
 526 0 l 1
 78 0 l 1
EndSplineSet
Fore
SplineSet
220 0 m 25
 220 1496 l 25
 384 1496 l 25
 384 674 l 25
 396 671 l 17
 440 773 528 900 712 900 c 1
 879 900 964 775 964 605 c 9
 964 0 l 25
 800 0 l 25
 800 618 l 21
 800 685 803 828 639 828 c 5
 460 828 384 578 384 447 c 9
 384 0 l 25
 220 0 l 25
EndSplineSet
EndChar

StartChar: k
Encoding: 334 107 78
Width: 1156
GlyphClass: 2
Flags: HW
LayerCount: 2
Back
SplineSet
78 0 m 1
 78 48 l 1
 220 48 l 1
 220 1448 l 1
 78 1448 l 1
 78 1496 l 1
 384 1496 l 1
 384 496 l 1
 468 496 l 1
 744 836 l 1
 598 836 l 1
 598 884 l 1
 952 884 l 1
 952 836 l 1
 808 836 l 1
 601 579 l 1
 978 48 l 1
 1104 48 l 1
 1104 0 l 1
 608 0 l 1
 608 48 l 1
 773 48 l 1
 494 448 l 1
 384 448 l 1
 384 48 l 1
 526 48 l 1
 526 0 l 1
 78 0 l 1
EndSplineSet
Fore
SplineSet
220 1496 m 25
 384 1496 l 25
 384 496 l 25
 468 496 l 25
 783 884 l 25
 847 884 l 29
 601 579 l 25
 1012 0 l 25
 806 0 l 25
 494 448 l 25
 384 448 l 25
 384 0 l 25
 220 0 l 25
 220 1496 l 25
EndSplineSet
EndChar

StartChar: l
Encoding: 335 108 79
Width: 594
GlyphClass: 2
Flags: HW
LayerCount: 2
Back
SplineSet
78 0 m 1
 78 48 l 1
 220 48 l 1
 220 1448 l 1
 78 1448 l 1
 78 1496 l 1
 384 1496 l 1
 384 48 l 1
 526 48 l 1
 526 0 l 1
 78 0 l 1
EndSplineSet
Fore
SplineSet
220 1496 m 25
 384 1496 l 25
 384 0 l 29
 220 0 l 25
 220 1496 l 25
EndSplineSet
EndChar

StartChar: m
Encoding: 336 109 80
Width: 1704
GlyphClass: 2
Flags: HW
LayerCount: 2
Back
SplineSet
84 0 m 1
 84 48 l 1
 226 48 l 1
 226 836 l 1
 84 836 l 1
 84 884 l 1
 390 884 l 1
 390 683 l 1
 400 680 l 1
 466 826.666666667 562 900 688 900 c 0
 726.666666667 900 761.166666667 892.833333333 791.5 878.5 c 128
 821.833333333 864.166666667 846 845 864 821 c 128
 882 797 896.166666667 773.166666667 906.5 749.5 c 128
 916.833333333 725.833333333 924.666666667 701 930 675 c 1
 943 675 l 1
 1005 825 1101 900 1231 900 c 0
 1277 900 1318 891.333333333 1354 874 c 128
 1390 856.666666667 1418.33333333 833.833333333 1439 805.5 c 128
 1459.66666667 777.166666667 1475.33333333 747 1486 715 c 128
 1496.66666667 683 1502 651 1502 619 c 2
 1502 48 l 1
 1644 48 l 1
 1644 0 l 1
 1196 0 l 1
 1196 48 l 1
 1338 48 l 1
 1338 642 l 2
 1338 697.333333333 1323.66666667 742.166666667 1295 776.5 c 128
 1266.33333333 810.833333333 1225.33333333 828 1172 828 c 0
 1133.33333333 828 1098 815 1066 789 c 128
 1034 763 1008.33333333 729.666666667 989 689 c 0
 975.666666667 661.666666667 965.666666667 631.5 959 598.5 c 128
 952.333333333 565.5 948.5 537 947.5 513 c 128
 946.5 489 946 455.333333333 946 412 c 2
 946 48 l 1
 1088 48 l 1
 1088 0 l 1
 640 0 l 1
 640 48 l 1
 782 48 l 1
 782 626 l 2
 782 760.666666667 732.666666667 828 634 828 c 0
 553.333333333 828 490.666666667 783.333333333 446 694 c 0
 424 650.666666667 409.166666667 607.166666667 401.5 563.5 c 128
 393.833333333 519.833333333 390 469.333333333 390 412 c 2
 390 48 l 1
 532 48 l 1
 532 0 l 1
 84 0 l 1
EndSplineSet
Fore
SplineSet
226 884 m 25
 390 884 l 25
 390 683 l 17
 400 679.719726562 l 1
 454 798 538 900 689 900 c 1
 776.480137754 900 837 860 868 816.262695312 c 0
 907.678977956 760.280387295 923 710 930 675 c 9
 943 675 l 17
 996.219109137 802.689367161 1081 900 1232 900 c 1
 1441 900 1502 718 1502 621 c 9
 1502 0 l 25
 1338 0 l 25
 1338 640 l 17
 1338 734 1294 828 1173 828 c 1
 1066 828 946 716 946 461 c 9
 946 0 l 25
 782 0 l 25
 782 627 l 17
 782 717 760 828 634 828 c 1
 468 828 390 626 390 436 c 9
 390 0 l 25
 226 0 l 25
 226 884 l 25
EndSplineSet
EndChar

StartChar: n
Encoding: 337 110 81
Width: 1172
GlyphClass: 2
Flags: HW
LayerCount: 2
Back
SplineSet
84 0 m 1
 84 48 l 1
 226 48 l 1
 226 836 l 1
 84 836 l 1
 84 884 l 1
 390 884 l 1
 390 674 l 1
 402 671 l 1
 434 745.666666667 476.833333333 802.5 530.5 841.5 c 128
 584.166666667 880.5 645.333333333 900 714 900 c 0
 796.666666667 900 861 871.666666667 907 815 c 0
 949 763 970 694 970 608 c 2
 970 48 l 1
 1112 48 l 1
 1112 0 l 1
 664 0 l 1
 664 48 l 1
 806 48 l 1
 806 644 l 2
 806 766.666666667 751.333333333 828 642 828 c 0
 599.333333333 828 561.333333333 813.666666667 528 785 c 128
 494.666666667 756.333333333 467.333333333 720.333333333 446 677 c 0
 424 633 409.166666667 591.666666667 401.5 553 c 128
 393.833333333 514.333333333 390 467.333333333 390 412 c 2
 390 48 l 1
 532 48 l 1
 532 0 l 1
 84 0 l 1
EndSplineSet
Fore
SplineSet
226 884 m 25
 390 884 l 25
 390 674 l 25
 402 671 l 17
 453 794 555 900 714 900 c 5
 906 900 970 744 970 615 c 13
 970 0 l 25
 806 0 l 25
 806 649 l 17
 806 748 766 828 643 828 c 1
 569 828 520.528766122 787.027209118 478 730 c 0
 434 671 390 566 390 434 c 9
 390 0 l 25
 226 0 l 25
 226 884 l 25
EndSplineSet
EndChar

StartChar: o
Encoding: 338 111 82
Width: 1040
GlyphClass: 2
Flags: HW
LayerCount: 2
Back
SplineSet
96 442 m 128
 96 574 136.833333333 683.333333333 218.5 770 c 128
 300.166666667 856.666666667 400.666666667 900 520 900 c 128
 639.333333333 900 739.833333333 856.666666667 821.5 770 c 128
 903.166666667 683.333333333 944 574 944 442 c 128
 944 310 903.166666667 200.666666667 821.5 114 c 128
 739.833333333 27.3333333333 639.333333333 -16 520 -16 c 128
 400.666666667 -16 300.166666667 27.3333333333 218.5 114 c 128
 136.833333333 200.666666667 96 310 96 442 c 128
280 442 m 128
 280 300.666666667 300.166666667 197 340.5 131 c 128
 380.833333333 65 440.666666667 32 520 32 c 128
 599.333333333 32 659.166666667 65 699.5 131 c 128
 739.833333333 197 760 300.666666667 760 442 c 128
 760 583.333333333 739.833333333 687 699.5 753 c 128
 659.166666667 819 599.333333333 852 520 852 c 128
 440.666666667 852 380.833333333 819 340.5 753 c 128
 300.166666667 687 280 583.333333333 280 442 c 128
EndSplineSet
Fore
SplineSet
521 32 m 5
 652 32 760 120 760 442 c 5
 760 636 724 852 520 852 c 1
 298 852 280 592 280 440 c 1
 280 126 382 32 521 32 c 5
520 900 m 1
 758 900 944 708 944 442 c 1
 944 172 760 -16 521 -16 c 1
 286 -16 96 170 96 442 c 1
 96 712 284 900 520 900 c 1
EndSplineSet
EndChar

StartChar: p
Encoding: 339 112 83
Width: 1140
GlyphClass: 2
Flags: HW
LayerCount: 2
Back
SplineSet
68 -564 m 1
 210 -564 l 1
 210 836 l 1
 68 836 l 1
 68 884 l 1
 374 884 l 1
 374 722 l 1
 388 720 l 1
 458.666666667 840 554.333333333 900 675 900 c 0
 741.666666667 900 802 883.333333333 856 850 c 0
 915.333333333 813.333333333 961.5 760 994.5 690 c 128
 1027.5 620 1044 537.333333333 1044 442 c 128
 1044 346.666666667 1027.5 264 994.5 194 c 128
 961.5 124 915.333333333 70.6666666667 856 34 c 0
 802 0.666666666667 741.666666667 -16 675 -16 c 0
 554.333333333 -16 458.666666667 44 388 164 c 1
 374 162 l 1
 374 -564 l 1
 580 -564 l 1
 580 -612 l 1
 68 -612 l 1
 68 -564 l 1
374 442 m 128
 374 325.333333333 399 229.833333333 449 155.5 c 128
 499 81.1666666667 556 44 620 44 c 0
 676 44 722.5 62.5 759.5 99.5 c 128
 796.5 136.5 822.5 183.666666667 837.5 241 c 128
 852.5 298.333333333 860 365.333333333 860 442 c 128
 860 518.666666667 852.5 585.666666667 837.5 643 c 128
 822.5 700.333333333 796.5 747.5 759.5 784.5 c 128
 722.5 821.5 676 840 620 840 c 0
 556 840 499 802.833333333 449 728.5 c 128
 399 654.166666667 374 558.666666667 374 442 c 128
EndSplineSet
Fore
SplineSet
860 442 m 1
 860 748 740 840 620 840 c 1
 495 840 374 678 374 444 c 1
 374 172 514 44 620 44 c 1
 748 44 860 149 860 442 c 1
387 164 m 9
 374 162 l 25
 374 -612 l 25
 210 -612 l 25
 210 884 l 25
 374 884 l 25
 374 722 l 25
 388 720 l 17
 455 833 546 900 678 900 c 1
 883 900 1044 731 1044 443 c 1
 1044 136 868 -16 677 -16 c 1
 552 -16 457 46 387 164 c 9
EndSplineSet
EndChar

StartChar: q
Encoding: 340 113 84
Width: 1140
GlyphClass: 2
Flags: HW
LayerCount: 2
Back
SplineSet
96 442 m 128
 96 537.333333333 112.5 620 145.5 690 c 128
 178.5 760 224.666666667 813.333333333 284 850 c 0
 338 883.333333333 398.333333333 900 465 900 c 0
 573 900 661.666666667 850.666666667 731 752 c 1
 740 752 l 1
 820 884 l 1
 1072 884 l 1
 1072 836 l 1
 930 836 l 1
 930 -564 l 1
 1072 -564 l 1
 1072 -612 l 1
 560 -612 l 1
 560 -564 l 1
 766 -564 l 1
 766 162 l 1
 752 164 l 1
 681.333333333 44 585.666666667 -16 465 -16 c 0
 398.333333333 -16 338 0.666666666667 284 34 c 0
 224.666666667 70.6666666667 178.5 124 145.5 194 c 128
 112.5 264 96 346.666666667 96 442 c 128
280 442 m 128
 280 365.333333333 287.5 298.333333333 302.5 241 c 128
 317.5 183.666666667 343.5 136.5 380.5 99.5 c 128
 417.5 62.5 464 44 520 44 c 0
 584 44 641 81.1666666667 691 155.5 c 128
 741 229.833333333 766 325.333333333 766 442 c 128
 766 558.666666667 741 654.166666667 691 728.5 c 128
 641 802.833333333 584 840 520 840 c 0
 464 840 417.5 821.5 380.5 784.5 c 128
 343.5 747.5 317.5 700.333333333 302.5 643 c 128
 287.5 585.666666667 280 518.666666667 280 442 c 128
EndSplineSet
Fore
SplineSet
520 44 m 1
 644 44 766 198 766 441 c 1
 766 692 639 840 520 840 c 1
 373 840 280 709 280 442 c 1
 280 159 386 44 520 44 c 1
465 900 m 1
 577 900 666.430603816 844.310496821 731 752 c 9
 740 752 l 25
 820 884 l 25
 930 884 l 25
 930 -612 l 25
 766 -612 l 25
 766 162 l 25
 752 164 l 17
 702 81 620 -16 465 -16 c 1
 254 -16 96 157 96 442 c 1
 96 733 257 900 465 900 c 1
EndSplineSet
EndChar

StartChar: r
Encoding: 341 114 85
Width: 884
GlyphClass: 2
Flags: HW
LayerCount: 2
Back
SplineSet
84 0 m 1
 84 48 l 1
 226 48 l 1
 226 836 l 1
 84 836 l 1
 84 884 l 1
 390 884 l 1
 390 674 l 1
 400 671 l 1
 434 753 470.833333333 811.666666667 510.5 847 c 128
 550.166666667 882.333333333 600.666666667 900 662 900 c 0
 710 900 748.333333333 884.833333333 777 854.5 c 128
 805.666666667 824.166666667 820 786 820 740 c 0
 820 704.666666667 811 673.833333333 793 647.5 c 128
 775 621.166666667 750 608 718 608 c 0
 701.333333333 608 686.833333333 613 674.5 623 c 128
 662.166666667 633 656 646.666666667 656 664 c 0
 656 682 659 704.333333333 665 731 c 0
 669.666666667 753 672 772 672 788 c 0
 672 825.333333333 651.666666667 844 611 844 c 0
 575.666666667 844 545.5 831.666666667 520.5 807 c 128
 495.5 782.333333333 472 747.666666667 450 703 c 0
 410 623.666666667 390 526.666666667 390 412 c 2
 390 48 l 1
 532 48 l 1
 532 0 l 1
 84 0 l 1
EndSplineSet
Fore
SplineSet
226 884 m 25
 390 884 l 25
 390 674 l 17
 400 670.51171875 l 1
 451 788 509 900 661 900 c 1
 767 900 820 823 820 739 c 1
 820 686 793 608 718 608 c 1
 681 608 656 632 656 664 c 1
 656 713 672 739 672 789 c 1
 672 822 655 844 611 844 c 1
 545 844 505.166992188 799.935546875 468 737 c 0
 421.069335938 657.53125 390 553 390 420 c 9
 390 0 l 25
 226 0 l 25
 226 884 l 25
EndSplineSet
EndChar

StartChar: s
Encoding: 342 115 86
Width: 840
GlyphClass: 2
Flags: HW
LayerCount: 2
Back
SplineSet
126 -16 m 1
 126 332 l 1
 162 332 l 1
 176.666666667 286.666666667 191 248.333333333 205 217 c 128
 219 185.666666667 236.333333333 154.666666667 257 124 c 128
 277.666666667 93.3333333333 302 70.3333333333 330 55 c 128
 358 39.6666666667 389.333333333 32 424 32 c 0
 492.666666667 32 545.166666667 44.8333333333 581.5 70.5 c 128
 617.833333333 96.1666666667 636 133.333333333 636 182 c 0
 636 230 618.333333333 268.166666667 583 296.5 c 128
 547.666666667 324.833333333 484 353.666666667 392 383 c 0
 348.666666667 396.333333333 312.666666667 410 284 424 c 128
 255.333333333 438 228.333333333 455.666666667 203 477 c 128
 177.666666667 498.333333333 158.833333333 524.333333333 146.5 555 c 128
 134.166666667 585.666666667 128 622 128 664 c 0
 128 735.333333333 151.333333333 792.5 198 835.5 c 128
 244.666666667 878.5 300 900 364 900 c 0
 412.666666667 900 464.333333333 889.666666667 519 869 c 0
 546.333333333 859 565 854 575 854 c 0
 607.666666667 854 632.666666667 869.333333333 650 900 c 1
 685 900 l 1
 685 619 l 1
 645 619 l 1
 624.333333333 674.333333333 600.333333333 720.666666667 573 758 c 0
 549 790.666666667 520.5 814.5 487.5 829.5 c 128
 454.5 844.5 411.333333333 852 358 852 c 0
 319.333333333 852 288.666666667 839.833333333 266 815.5 c 128
 243.333333333 791.166666667 232 762.666666667 232 730 c 0
 232 708.666666667 235.5 689.833333333 242.5 673.5 c 128
 249.5 657.166666667 258.333333333 643.166666667 269 631.5 c 128
 279.666666667 619.833333333 295.833333333 608.333333333 317.5 597 c 128
 339.166666667 585.666666667 359.833333333 576 379.5 568 c 128
 399.166666667 560 426.666666667 550 462 538 c 0
 569.333333333 501.333333333 645.166666667 462.333333333 689.5 421 c 128
 733.833333333 379.666666667 756 323.333333333 756 252 c 0
 756 172 729.166666667 107.333333333 675.5 58 c 128
 621.833333333 8.66666666667 539.333333333 -16 428 -16 c 0
 383.333333333 -16 336 -8.33333333333 286 7 c 0
 253.333333333 16.3333333333 225.666666667 21 203 21 c 0
 182.333333333 21 167.666666667 8.66666666667 159 -16 c 1
 126 -16 l 1
EndSplineSet
Fore
SplineSet
366 900 m 1
 491 900 620 825 685 799 c 9
 684 733 l 17
 592 779 490 852 362 852 c 1
 310 852 284 835 264 813 c 0
 244 791 232 764.811974996 232 729 c 1
 232 680 255 642 278.506835938 622 c 0
 299.280976571 604.325021804 342 583 390 564 c 0
 460.921757485 535.926804329 496 530 571 495 c 1
 620 472 659.528320312 448.986328125 689 421.653320312 c 0
 734.258789062 379.676757812 756 323 756 251 c 1
 756 244 758 160 709 94.8642578125 c 0
 663.496061713 34.37583347 586.498505812 -16 431 -16 c 1
 312 -16 219.072545875 69.7362563287 126 147 c 9
 126 203 l 17
 219.20674212 128.564317743 304 32 426 32 c 1
 534 32 636 67 636 182 c 1
 636 274 574.762695312 312.102539062 490 348 c 0
 434.78515625 371.383789062 368 388 323 407 c 0
 185.511584456 465.050664341 128 530 128 664 c 1
 128 750 160.989257812 804.956054688 208 844 c 0
 251.549804688 880.169921875 301 900 366 900 c 1
EndSplineSet
EndChar

StartChar: t
Encoding: 343 116 87
Width: 770
GlyphClass: 2
Flags: HW
LayerCount: 2
Back
SplineSet
56 836 m 1
 56 884 l 1
 230 884 l 1
 230 1080 l 1
 270.666666667 1080 299 1082.83333333 315 1088.5 c 128
 331 1094.16666667 341.666666667 1105 347 1121 c 0
 353.666666667 1139.66666667 360.666666667 1151.5 368 1156.5 c 128
 375.333333333 1161.5 391 1164 415 1164 c 1
 399.666666667 1067.33333333 392 974 392 884 c 1
 620 884 l 1
 620 836 l 1
 392 836 l 1
 392 190 l 2
 392 144 401.333333333 112.166666667 420 94.5 c 128
 438.666666667 76.8333333333 467.333333333 68 506 68 c 0
 547.333333333 68 579.5 88.6666666667 602.5 130 c 128
 625.5 171.333333333 638.666666667 218.666666667 642 272 c 1
 690 272 l 1
 687.333333333 234.666666667 680.666666667 199.5 670 166.5 c 128
 659.333333333 133.5 644.666666667 103 626 75 c 128
 607.333333333 47 582.666666667 24.8333333333 552 8.5 c 128
 521.333333333 -7.83333333333 486.333333333 -16 447 -16 c 0
 418.333333333 -16 391.5 -12.3333333333 366.5 -5 c 128
 341.5 2.33333333333 318.5 14 297.5 30 c 128
 276.5 46 260 68.1666666667 248 96.5 c 128
 236 124.833333333 230 158 230 196 c 2
 230 836 l 1
 56 836 l 1
EndSplineSet
Fore
SplineSet
236 1075 m 29
 348 1135 l 25
 412 1171 l 25
 392 883 l 25
 620 879 l 25
 620 839 l 25
 388 839 l 25
 388 199 l 25
 488 67 l 25
 648 275 l 25
 692 275 l 25
 432 -17 l 25
 228 187 l 25
 228 835 l 25
 64 843 l 25
 64 883 l 25
 228 891 l 25
 236 1075 l 29
EndSplineSet
EndChar

StartChar: u
Encoding: 344 117 88
Width: 1156
GlyphClass: 2
Flags: HW
LayerCount: 2
Back
SplineSet
60 836 m 1
 60 884 l 1
 366 884 l 1
 366 240 l 2
 366 117.333333333 420.666666667 56 530 56 c 0
 572.666666667 56 610.666666667 70.3333333333 644 99 c 128
 677.333333333 127.666666667 704.666666667 163.666666667 726 207 c 0
 748 251 762.833333333 292.333333333 770.5 331 c 128
 778.166666667 369.666666667 782 416.666666667 782 472 c 2
 782 836 l 1
 640 836 l 1
 640 884 l 1
 946 884 l 1
 946 48 l 1
 1088 48 l 1
 1088 0 l 1
 782 0 l 1
 782 210 l 1
 770 213 l 1
 738 138.333333333 695.166666667 81.5 641.5 42.5 c 128
 587.833333333 3.5 526.666666667 -16 458 -16 c 0
 375.333333333 -16 311 12.3333333333 265 69 c 0
 223 121 202 190 202 276 c 2
 202 836 l 1
 60 836 l 1
EndSplineSet
Fore
SplineSet
200 887 m 29
 368 879 l 25
 364 243 l 25
 520 59 l 25
 776 435 l 25
 780 847 l 25
 948 887 l 25
 952 0 l 25
 800 0 l 25
 792 199 l 25
 760 203 l 25
 444 -25 l 25
 196 299 l 25
 200 887 l 29
EndSplineSet
EndChar

StartChar: v
Encoding: 345 118 89
Width: 980
GlyphClass: 2
Flags: HW
LayerCount: 2
Back
SplineSet
40 836 m 1
 40 884 l 1
 476 884 l 1
 476 836 l 1
 334 836 l 1
 571 226 l 1
 791 836 l 1
 662 836 l 1
 662 884 l 1
 944 884 l 1
 944 836 l 1
 842 836 l 1
 533 -18 l 1
 489 -18 l 1
 157 836 l 1
 40 836 l 1
EndSplineSet
Fore
SplineSet
148 887 m 29
 320 891 l 25
 568 235 l 25
 800 887 l 25
 848 887 l 25
 532 0 l 25
 484 -17 l 25
 148 887 l 29
EndSplineSet
EndChar

StartChar: w
Encoding: 346 119 90
Width: 1498
GlyphClass: 2
Flags: HW
LayerCount: 2
Back
SplineSet
40 836 m 1
 40 884 l 1
 476 884 l 1
 476 836 l 1
 334 836 l 1
 553 226 l 1
 750 727 l 1
 711 836 l 1
 594 836 l 1
 594 884 l 1
 1030 884 l 1
 1030 836 l 1
 888 836 l 1
 1104 240 l 1
 1309 836 l 1
 1180 836 l 1
 1180 884 l 1
 1462 884 l 1
 1462 836 l 1
 1360 836 l 1
 1065 -18 l 1
 1021 -18 l 1
 774 662 l 1
 507 -18 l 1
 463 -18 l 1
 157 836 l 1
 40 836 l 1
EndSplineSet
Fore
SplineSet
144 899 m 29
 312 903 l 25
 544 235 l 25
 756 731 l 25
 692 891 l 25
 872 895 l 25
 1100 263 l 25
 1316 887 l 25
 1360 887 l 25
 1060 0 l 25
 1004 0 l 25
 772 663 l 25
 504 -17 l 25
 456 0 l 25
 144 899 l 29
EndSplineSet
EndChar

StartChar: x
Encoding: 347 120 91
Width: 1100
GlyphClass: 2
Flags: HW
LayerCount: 2
Back
SplineSet
60 0 m 1
 60 56 l 1
 225 56 l 1
 478 415 l 1
 210 828 l 1
 93 828 l 1
 93 884 l 1
 548 884 l 1
 548 828 l 1
 404 828 l 1
 578 557 l 1
 769 828 l 1
 644 828 l 1
 644 884 l 1
 962 884 l 1
 962 828 l 1
 827 828 l 1
 606 513 l 1
 900 56 l 1
 1064 56 l 1
 1064 0 l 1
 537 0 l 1
 537 56 l 1
 711 56 l 1
 506 371 l 1
 285 56 l 1
 441 56 l 1
 441 0 l 1
 60 0 l 1
EndSplineSet
Fore
SplineSet
180 887 m 29
 376 891 l 25
 572 567 l 25
 792 887 l 25
 860 899 l 25
 612 519 l 25
 936 0 l 25
 724 0 l 25
 496 367 l 25
 268 0 l 25
 196 0 l 25
 476 415 l 25
 180 887 l 29
EndSplineSet
EndChar

StartChar: y
Encoding: 348 121 92
Width: 1024
GlyphClass: 2
Flags: HW
LayerCount: 2
Back
SplineSet
-6 -465 m 0
 -6 -432.333333333 3.5 -405.666666667 22.5 -385 c 128
 41.5 -364.333333333 67.3333333333 -354 100 -354 c 0
 123.333333333 -354 141.833333333 -360.833333333 155.5 -374.5 c 128
 169.166666667 -388.166666667 176 -404 176 -422 c 0
 176 -434.666666667 173.333333333 -451.666666667 168 -473 c 0
 162.666666667 -493 160 -510.333333333 160 -525 c 0
 160 -557.666666667 182.666666667 -574 228 -574 c 0
 262 -574 290.333333333 -558.666666667 313 -528 c 128
 335.666666667 -497.333333333 355.666666667 -456.333333333 373 -405 c 2
 506 -19 l 1
 158 836 l 1
 40 836 l 1
 40 884 l 1
 498 884 l 1
 498 836 l 1
 336 836 l 1
 588 216 l 1
 802 836 l 1
 679 836 l 1
 679 884 l 1
 988 884 l 1
 988 836 l 1
 859 836 l 1
 427 -408 l 2
 418.333333333 -433.333333333 410.5 -454.166666667 403.5 -470.5 c 128
 396.5 -486.833333333 386.333333333 -506.166666667 373 -528.5 c 128
 359.666666667 -550.833333333 345.333333333 -568.5 330 -581.5 c 128
 314.666666667 -594.5 294.833333333 -605.833333333 270.5 -615.5 c 128
 246.166666667 -625.166666667 219.333333333 -630 190 -630 c 0
 134 -630 87.3333333333 -615.833333333 50 -587.5 c 128
 12.6666666667 -559.166666667 -6 -518.333333333 -6 -465 c 0
EndSplineSet
Fore
SplineSet
136 887 m 29
 312 887 l 25
 588 223 l 25
 800 883 l 25
 868 883 l 25
 416 -441 l 25
 200 -621 l 25
 -16 -465 l 25
 100 -345 l 25
 172 -425 l 25
 160 -521 l 25
 216 -569 l 25
 360 -429 l 25
 500 -17 l 25
 136 887 l 29
EndSplineSet
EndChar

StartChar: z
Encoding: 349 122 93
Width: 934
GlyphClass: 2
Flags: HW
LayerCount: 2
Back
SplineSet
84 580 m 1
 106 884 l 1
 766 884 l 1
 766 830 l 1
 306 48 l 1
 531 48 l 2
 623 48 692.666666667 89.3333333333 740 172 c 0
 772.666666667 228 796 296.666666667 810 378 c 1
 854 378 l 1
 840 0 l 1
 120 0 l 1
 120 56 l 1
 579 836 l 1
 368 836 l 2
 330 836 297.833333333 830.666666667 271.5 820 c 128
 245.166666667 809.333333333 221 790 199 762 c 0
 169.666666667 724.666666667 146 664 128 580 c 1
 84 580 l 1
EndSplineSet
Fore
SplineSet
104 887 m 29
 760 887 l 25
 760 831 l 25
 312 55 l 25
 848 63 l 25
 844 0 l 25
 112 0 l 25
 112 75 l 25
 576 835 l 25
 92 831 l 25
 104 887 l 29
EndSplineSet
EndChar

StartChar: braceleft
Encoding: 350 123 94
Width: 780
GlyphClass: 2
Flags: HW
LayerCount: 2
Back
SplineSet
182 466 m 1
 182 510 l 1
 337.333333333 510 415 584.333333333 415 733 c 0
 415 783 402.333333333 858 377 958 c 0
 349.666666667 1067.33333333 336 1151 336 1209 c 0
 336 1297.66666667 367.166666667 1367.16666667 429.5 1417.5 c 128
 491.833333333 1467.83333333 576 1499.33333333 682 1512 c 1
 692 1458 l 1
 618.666666667 1445.33333333 563 1426.66666667 525 1402 c 128
 487 1377.33333333 468 1339 468 1287 c 0
 468 1226.33333333 480.666666667 1147.66666667 506 1051 c 0
 533.333333333 947 547 868.666666667 547 816 c 0
 547 720.666666667 526 646.333333333 484 593 c 128
 442 539.666666667 387.333333333 505.333333333 320 490 c 1
 320 486 l 1
 387.333333333 470.666666667 442 436.166666667 484 382.5 c 128
 526 328.833333333 547 254.333333333 547 159 c 0
 547 106.333333333 533.333333333 28 506 -76 c 0
 480.666666667 -172.666666667 468 -251.333333333 468 -312 c 0
 468 -364 486.833333333 -402.166666667 524.5 -426.5 c 128
 562.166666667 -450.833333333 618 -469.333333333 692 -482 c 1
 682 -536 l 1
 576 -523.333333333 491.833333333 -491.833333333 429.5 -441.5 c 128
 367.166666667 -391.166666667 336 -321.666666667 336 -233 c 0
 336 -175 349.666666667 -91.3333333333 377 18 c 0
 402.333333333 118 415 193 415 243 c 0
 415 391.666666667 337.333333333 466 182 466 c 1
EndSplineSet
EndChar

StartChar: bar
Encoding: 351 124 95
Width: 512
GlyphClass: 2
Flags: HW
LayerCount: 2
Back
SplineSet
202 -520 m 1
 202 1434 l 1
 310 1434 l 1
 310 -520 l 1
 202 -520 l 1
EndSplineSet
EndChar

StartChar: braceright
Encoding: 352 125 96
Width: 780
GlyphClass: 2
Flags: HW
LayerCount: 2
Back
SplineSet
88 -482 m 1
 161.333333333 -469.333333333 217 -450.666666667 255 -426 c 128
 293 -401.333333333 312 -363 312 -311 c 0
 312 -250.333333333 299.333333333 -171.666666667 274 -75 c 0
 246.666666667 29 233 107.333333333 233 160 c 0
 233 255.333333333 254 329.666666667 296 383 c 128
 338 436.333333333 392.666666667 470.666666667 460 486 c 1
 460 490 l 1
 392.666666667 505.333333333 338 539.833333333 296 593.5 c 128
 254 647.166666667 233 721.666666667 233 817 c 0
 233 869.666666667 246.666666667 948 274 1052 c 0
 299.333333333 1148.66666667 312 1227.33333333 312 1288 c 0
 312 1340 293.166666667 1378.16666667 255.5 1402.5 c 128
 217.833333333 1426.83333333 162 1445.33333333 88 1458 c 1
 98 1512 l 1
 204 1499.33333333 288.166666667 1467.83333333 350.5 1417.5 c 128
 412.833333333 1367.16666667 444 1297.66666667 444 1209 c 0
 444 1151 430.333333333 1067.33333333 403 958 c 0
 377.666666667 858 365 783 365 733 c 0
 365 584.333333333 442.666666667 510 598 510 c 1
 598 466 l 1
 442.666666667 466 365 391.666666667 365 243 c 0
 365 193 377.666666667 118 403 18 c 0
 430.333333333 -91.3333333333 444 -175 444 -233 c 0
 444 -321.666666667 412.833333333 -391.166666667 350.5 -441.5 c 128
 288.166666667 -491.833333333 204 -523.333333333 98 -536 c 1
 88 -482 l 1
EndSplineSet
EndChar

StartChar: asciitilde
Encoding: 353 126 97
Width: 1152
GlyphClass: 2
Flags: HW
LayerCount: 2
Back
SplineSet
112 422 m 1
 198.666666667 560.666666667 301.333333333 630 420 630 c 0
 446.666666667 630 473.5 626.333333333 500.5 619 c 128
 527.5 611.666666667 549 604.166666667 565 596.5 c 128
 581 588.833333333 602 578 628 564 c 0
 652 551.333333333 671 541.666666667 685 535 c 128
 699 528.333333333 717 521.833333333 739 515.5 c 128
 761 509.166666667 782 506 802 506 c 0
 848 506 885.333333333 516.5 914 537.5 c 128
 942.666666667 558.5 972.666666667 590.666666667 1004 634 c 1
 1040 606 l 1
 953.333333333 467.333333333 850.666666667 398 732 398 c 0
 694.666666667 398 660.333333333 403.666666667 629 415 c 128
 597.666666667 426.333333333 562.666666667 442.666666667 524 464 c 0
 453.333333333 502.666666667 395.333333333 522 350 522 c 0
 304 522 266.666666667 511.5 238 490.5 c 128
 209.333333333 469.5 179.333333333 437.333333333 148 394 c 1
 112 422 l 1
EndSplineSet
EndChar

StartChar: dagger
Encoding: 386 8224 130
Width: 1176
GlyphClass: 2
Flags: HW
LayerCount: 2
Back
SplineSet
148 862 m 128
 148 896 159.166666667 922.166666667 181.5 940.5 c 128
 203.833333333 958.833333333 231 968 263 968 c 0
 284.333333333 968 304.166666667 964.833333333 322.5 958.5 c 128
 340.833333333 952.166666667 367 940.333333333 401 923 c 0
 439 903.666666667 489.333333333 894 552 894 c 1
 544.666666667 954.666666667 529.333333333 1016.66666667 506 1080 c 0
 475.333333333 1165.33333333 460 1233.33333333 460 1284 c 0
 460 1328 471 1365.66666667 493 1397 c 128
 515 1428.33333333 546.666666667 1444 588 1444 c 128
 629.333333333 1444 661 1428.33333333 683 1397 c 128
 705 1365.66666667 716 1328 716 1284 c 0
 716 1232 700.666666667 1164 670 1080 c 0
 646.666666667 1016.66666667 631.333333333 954.666666667 624 894 c 1
 686.666666667 894 737 903.666666667 775 923 c 0
 809 940.333333333 835.166666667 952.166666667 853.5 958.5 c 128
 871.833333333 964.833333333 891.666666667 968 913 968 c 0
 945 968 972.166666667 958.833333333 994.5 940.5 c 128
 1016.83333333 922.166666667 1028 896 1028 862 c 128
 1028 828 1016.83333333 801.833333333 994.5 783.5 c 128
 972.166666667 765.166666667 945 756 913 756 c 0
 891.666666667 756 871.833333333 759.166666667 853.5 765.5 c 128
 835.166666667 771.833333333 809 783.666666667 775 801 c 0
 743 817.666666667 691.333333333 827.333333333 620 830 c 1
 620 818 l 2
 620 746.666666667 630 678.333333333 650 613 c 128
 670 547.666666667 693.333333333 497.333333333 720 462 c 1
 696 430 677.333333333 391.5 664 346.5 c 128
 650.666666667 301.5 644 255.333333333 644 208 c 2
 644 -520 l 1
 532 -520 l 1
 532 208 l 2
 532 255.333333333 525.333333333 301.5 512 346.5 c 128
 498.666666667 391.5 480 430 456 462 c 1
 482.666666667 497.333333333 506 547.666666667 526 613 c 128
 546 678.333333333 556 746.666666667 556 818 c 2
 556 830 l 1
 484.666666667 827.333333333 433 817.666666667 401 801 c 0
 367 783.666666667 340.833333333 771.833333333 322.5 765.5 c 128
 304.166666667 759.166666667 284.333333333 756 263 756 c 0
 231 756 203.833333333 765.166666667 181.5 783.5 c 128
 159.166666667 801.833333333 148 828 148 862 c 128
EndSplineSet
EndChar

StartChar: degree
Encoding: 387 176 131
Width: 1152
GlyphClass: 2
Flags: HW
LayerCount: 2
Back
SplineSet
200 1118 m 128
 200 1226 235.666666667 1315.33333333 307 1386 c 128
 378.333333333 1456.66666667 468 1492 576 1492 c 128
 684 1492 773.666666667 1456.66666667 845 1386 c 128
 916.333333333 1315.33333333 952 1226 952 1118 c 128
 952 1010 916.333333333 920.666666667 845 850 c 128
 773.666666667 779.333333333 684 744 576 744 c 128
 468 744 378.333333333 779.333333333 307 850 c 128
 235.666666667 920.666666667 200 1010 200 1118 c 128
280 1118 m 128
 280 1034 308.333333333 964 365 908 c 128
 421.666666667 852 492 824 576 824 c 128
 660 824 730.333333333 852 787 908 c 128
 843.666666667 964 872 1034 872 1118 c 128
 872 1202 843.666666667 1272 787 1328 c 128
 730.333333333 1384 660 1412 576 1412 c 128
 492 1412 421.666666667 1384 365 1328 c 128
 308.333333333 1272 280 1202 280 1118 c 128
EndSplineSet
EndChar

StartChar: cent
Encoding: 388 162 132
Width: 1152
GlyphClass: 2
Flags: HW
LayerCount: 2
Back
SplineSet
196 -550 m 1
 403 42 l 1
 339 78.6666666667 289.166666667 130.833333333 253.5 198.5 c 128
 217.833333333 266.166666667 200 344 200 432 c 0
 200 494 211.166666667 553.666666667 233.5 611 c 128
 255.833333333 668.333333333 286.333333333 718.166666667 325 760.5 c 128
 363.666666667 802.833333333 410.166666667 836.666666667 464.5 862 c 128
 518.833333333 887.333333333 576.666666667 900 638 900 c 0
 658.666666667 900 679.666666667 898.333333333 701 895 c 1
 890 1434 l 1
 952 1434 l 1
 758 880 l 1
 814 860 857.333333333 828.833333333 888 786.5 c 128
 918.666666667 744.166666667 934 703 934 663 c 0
 934 630.333333333 925 602 907 578 c 128
 889 554 862.666666667 542 828 542 c 0
 803.333333333 542 783.5 548.666666667 768.5 562 c 128
 753.5 575.333333333 746 592.666666667 746 614 c 128
 746 635.333333333 750.333333333 658 759 682 c 0
 767.666666667 705.333333333 772 729 772 753 c 0
 772 779.666666667 760.333333333 802.333333333 737 821 c 1
 489 110 l 1
 534.333333333 64.6666666667 591.333333333 42 660 42 c 0
 695.333333333 42 727.166666667 48.3333333333 755.5 61 c 128
 783.833333333 73.6666666667 806.666666667 89.8333333333 824 109.5 c 128
 841.333333333 129.166666667 855.833333333 152 867.5 178 c 128
 879.166666667 204 887.333333333 229.5 892 254.5 c 128
 896.666666667 279.5 899.333333333 304.666666667 900 330 c 1
 952 330 l 1
 951.333333333 298 948.5 267.333333333 943.5 238 c 128
 938.5 208.666666667 928.5 178.166666667 913.5 146.5 c 128
 898.5 114.833333333 879.666666667 87.3333333333 857 64 c 128
 834.333333333 40.6666666667 803.5 21.5 764.5 6.5 c 128
 725.5 -8.5 680.666666667 -16 630 -16 c 0
 566.666666667 -16 508.666666667 -5.33333333333 456 16 c 1
 258 -550 l 1
 196 -550 l 1
384 460 m 0
 384 336 405 238.333333333 447 167 c 1
 684 846 l 1
 669.333333333 850 651.666666667 852 631 852 c 0
 552.333333333 852 491.5 816 448.5 744 c 128
 405.5 672 384 577.333333333 384 460 c 0
EndSplineSet
EndChar

StartChar: sterling
Encoding: 389 163 133
Width: 1420
GlyphClass: 2
Flags: HW
LayerCount: 2
Back
SplineSet
68 138 m 0
 68 188.666666667 87 229.333333333 125 260 c 128
 163 290.666666667 209.333333333 306 264 306 c 0
 312 306 356.833333333 301.166666667 398.5 291.5 c 128
 440.166666667 281.833333333 492 266.333333333 554 245 c 1
 567.333333333 277 574 311.333333333 574 348 c 0
 574 458.666666667 556.333333333 564.666666667 521 666 c 1
 212 666 l 1
 212 730 l 1
 506 730 l 1
 492.666666667 792.666666667 486 854 486 914 c 0
 486 1016 510.5 1108 559.5 1190 c 128
 608.5 1272 675.666666667 1335.83333333 761 1381.5 c 128
 846.333333333 1427.16666667 941.333333333 1450 1046 1450 c 0
 1126.66666667 1450 1193.83333333 1427 1247.5 1381 c 128
 1301.16666667 1335 1328 1277 1328 1207 c 0
 1328 1145 1309.5 1094.66666667 1272.5 1056 c 128
 1235.5 1017.33333333 1193.66666667 998 1147 998 c 0
 1109.66666667 998 1076.33333333 1008.16666667 1047 1028.5 c 128
 1017.66666667 1048.83333333 1003 1077.33333333 1003 1114 c 0
 1003 1144 1012.5 1167.5 1031.5 1184.5 c 128
 1050.5 1201.5 1071.66666667 1210 1095 1210 c 0
 1122.33333333 1210 1145.66666667 1199.66666667 1165 1179 c 1
 1179.66666667 1162.33333333 1195 1154 1211 1154 c 0
 1223 1154 1234.16666667 1161.33333333 1244.5 1176 c 128
 1254.83333333 1190.66666667 1260 1212.66666667 1260 1242 c 0
 1260 1282 1241.33333333 1318.66666667 1204 1352 c 128
 1166.66666667 1385.33333333 1112.66666667 1402 1042 1402 c 0
 950.666666667 1402 882.333333333 1367.83333333 837 1299.5 c 128
 791.666666667 1231.16666667 761.333333333 1133.33333333 746 1006 c 0
 738.666666667 944 733 852 729 730 c 1
 1042 730 l 1
 1042 666 l 1
 726 666 l 1
 720 555.333333333 711 469.5 699 408.5 c 128
 687 347.5 665.666666667 284 635 218 c 1
 755 182 867.666666667 164 973 164 c 0
 1019.66666667 164 1057.83333333 176.666666667 1087.5 202 c 128
 1117.16666667 227.333333333 1132 258.333333333 1132 295 c 0
 1132 341 1117.66666667 378 1089 406 c 1
 1129 437 l 1
 1149 417 1165.83333333 392 1179.5 362 c 128
 1193.16666667 332 1200 300.666666667 1200 268 c 0
 1200 184 1177.83333333 115.666666667 1133.5 63 c 128
 1089.16666667 10.3333333333 1023 -16 935 -16 c 0
 895 -16 858.166666667 -12.8333333333 824.5 -6.5 c 128
 790.833333333 -0.166666666667 757.833333333 10.6666666667 725.5 26 c 128
 693.166666667 41.3333333333 667 54.8333333333 647 66.5 c 128
 627 78.1666666667 599.333333333 95.6666666667 564 119 c 1
 479.333333333 29 377.333333333 -16 258 -16 c 0
 205.333333333 -16 160.5 -2.66666666667 123.5 24 c 128
 86.5 50.6666666667 68 88.6666666667 68 138 c 0
132 139 m 0
 132 101.666666667 144.333333333 74.5 169 57.5 c 128
 193.666666667 40.5 222.666666667 32 256 32 c 0
 308.666666667 32 356.333333333 43.3333333333 399 66 c 128
 441.666666667 88.6666666667 477.333333333 119 506 157 c 1
 452.666666667 192.333333333 407.666666667 218 371 234 c 128
 334.333333333 250 296 258 256 258 c 0
 220 258 190.333333333 246.666666667 167 224 c 128
 143.666666667 201.333333333 132 173 132 139 c 0
EndSplineSet
EndChar

StartChar: section
Encoding: 390 167 134
Width: 1042
GlyphClass: 2
Flags: HW
LayerCount: 2
Back
SplineSet
158 -256 m 0
 158 -206.666666667 174.333333333 -165.166666667 207 -131.5 c 128
 239.666666667 -97.8333333333 275.666666667 -81 315 -81 c 0
 346.333333333 -81 371.666666667 -89.5 391 -106.5 c 128
 410.333333333 -123.5 420 -147 420 -177 c 0
 420 -201 414 -220.666666667 402 -236 c 128
 390 -251.333333333 374 -265.333333333 354 -278 c 0
 341.333333333 -286.666666667 331.5 -293.833333333 324.5 -299.5 c 128
 317.5 -305.166666667 311 -313.5 305 -324.5 c 128
 299 -335.5 296 -348.333333333 296 -363 c 0
 296 -401.666666667 314.166666667 -432.166666667 350.5 -454.5 c 128
 386.833333333 -476.833333333 432.666666667 -488 488 -488 c 0
 526 -488 560.333333333 -482.166666667 591 -470.5 c 128
 621.666666667 -458.833333333 646.5 -444 665.5 -426 c 128
 684.5 -408 700.333333333 -387.166666667 713 -363.5 c 128
 725.666666667 -339.833333333 734.666666667 -316.5 740 -293.5 c 128
 745.333333333 -270.5 748 -247.666666667 748 -225 c 0
 748 -194.333333333 743.333333333 -164.666666667 734 -136 c 128
 724.666666667 -107.333333333 713.333333333 -81.6666666667 700 -59 c 128
 686.666666667 -36.3333333333 667.833333333 -12.1666666667 643.5 13.5 c 128
 619.166666667 39.1666666667 596.666666667 61 576 79 c 128
 555.333333333 97 528.333333333 119.333333333 495 146 c 0
 448.333333333 183.333333333 410.333333333 215.833333333 381 243.5 c 128
 351.666666667 271.166666667 320.666666667 305.666666667 288 347 c 128
 255.333333333 388.333333333 230.833333333 433 214.5 481 c 128
 198.166666667 529 190 580.666666667 190 636 c 0
 190 735.333333333 224.666666667 823.666666667 294 901 c 1
 240 975.666666667 213 1052 213 1130 c 0
 213 1192 229.333333333 1247.83333333 262 1297.5 c 128
 294.666666667 1347.16666667 336.5 1385 387.5 1411 c 128
 438.5 1437 492.666666667 1450 550 1450 c 0
 653.333333333 1450 734.166666667 1424.33333333 792.5 1373 c 128
 850.833333333 1321.66666667 880 1257 880 1179 c 0
 880 1136.33333333 865.333333333 1100 836 1070 c 128
 806.666666667 1040 772.333333333 1025 733 1025 c 0
 703.666666667 1025 679 1033.5 659 1050.5 c 128
 639 1067.5 629 1089.66666667 629 1117 c 0
 629 1155.66666667 651.666666667 1188.33333333 697 1215 c 1
 725.666666667 1231 740 1253.33333333 740 1282 c 0
 740 1315.33333333 723.5 1343.66666667 690.5 1367 c 128
 657.5 1390.33333333 611.333333333 1402 552 1402 c 0
 528.666666667 1402 505 1398.5 481 1391.5 c 128
 457 1384.5 433.333333333 1373.66666667 410 1359 c 128
 386.666666667 1344.33333333 367.666666667 1323.5 353 1296.5 c 128
 338.333333333 1269.5 331 1238 331 1202 c 0
 331 1174.66666667 335.666666667 1148 345 1122 c 128
 354.333333333 1096 365.166666667 1073 377.5 1053 c 128
 389.833333333 1033 407.833333333 1011 431.5 987 c 128
 455.166666667 963 476 943.333333333 494 928 c 128
 512 912.666666667 536.333333333 892.666666667 567 868 c 0
 603.666666667 838.666666667 633 814.333333333 655 795 c 128
 677 775.666666667 702.333333333 750 731 718 c 128
 759.666666667 686 782 655.5 798 626.5 c 128
 814 597.5 827.666666667 562.5 839 521.5 c 128
 850.333333333 480.5 856 437.333333333 856 392 c 0
 856 339.333333333 848.5 292.333333333 833.5 251 c 128
 818.5 209.666666667 794.333333333 167 761 123 c 1
 821.666666667 45 852 -40.6666666667 852 -134 c 0
 852 -168.666666667 848.166666667 -203.666666667 840.5 -239 c 128
 832.833333333 -274.333333333 819.833333333 -310 801.5 -346 c 128
 783.166666667 -382 760.666666667 -414 734 -442 c 128
 707.333333333 -470 672.833333333 -492.666666667 630.5 -510 c 128
 588.166666667 -527.333333333 541.333333333 -536 490 -536 c 0
 394 -536 314.666666667 -509.5 252 -456.5 c 128
 189.333333333 -403.5 158 -336.666666667 158 -256 c 0
246 694 m 0
 246 649.333333333 272.833333333 595.666666667 326.5 533 c 128
 380.166666667 470.333333333 446.666666667 407.333333333 526 344 c 0
 622.666666667 266.666666667 691.333333333 204.666666667 732 158 c 1
 777.333333333 214 800 271.666666667 800 331 c 0
 800 376.333333333 775.666666667 428.5 727 487.5 c 128
 678.333333333 546.5 615.666666667 606.666666667 539 668 c 0
 435.666666667 751.333333333 363 817.666666667 321 867 c 1
 271 814.333333333 246 756.666666667 246 694 c 0
EndSplineSet
EndChar

StartChar: bullet
Encoding: 391 8226 135
Width: 1104
GlyphClass: 2
Flags: HW
LayerCount: 2
Back
SplineSet
324 688 m 128
 324 754 345.5 808.5 388.5 851.5 c 128
 431.5 894.5 486 916 552 916 c 128
 618 916 672.5 894.5 715.5 851.5 c 128
 758.5 808.5 780 754 780 688 c 128
 780 622 758.5 567.5 715.5 524.5 c 128
 672.5 481.5 618 460 552 460 c 128
 486 460 431.5 481.5 388.5 524.5 c 128
 345.5 567.5 324 622 324 688 c 128
EndSplineSet
EndChar

StartChar: paragraph
Encoding: 392 182 136
Width: 1188
GlyphClass: 2
Flags: HW
LayerCount: 2
Back
SplineSet
142 1054 m 0
 142 1118 158.166666667 1179 190.5 1237 c 128
 222.833333333 1295 267.833333333 1342.33333333 325.5 1379 c 128
 383.166666667 1415.66666667 446 1434 514 1434 c 2
 1100 1434 l 1
 1100 1370 l 1
 872 1370 l 1
 872 -520 l 1
 784 -520 l 1
 784 1370 l 1
 546 1370 l 1
 546 -520 l 1
 458 -520 l 1
 458 674 l 1
 365.333333333 686 289.5 728 230.5 800 c 128
 171.5 872 142 956.666666667 142 1054 c 0
EndSplineSet
EndChar

StartChar: germandbls
Encoding: 393 223 137
Width: 1126
GlyphClass: 2
Flags: HW
LayerCount: 2
Back
SplineSet
78 0 m 1
 78 48 l 1
 220 48 l 1
 220 954 l 2
 220 1100.66666667 249.666666667 1221.33333333 309 1316 c 0
 346.333333333 1375.33333333 393 1422.83333333 449 1458.5 c 128
 505 1494.16666667 566.666666667 1512 634 1512 c 0
 732.666666667 1512 810.5 1484.5 867.5 1429.5 c 128
 924.5 1374.5 953 1308.66666667 953 1232 c 0
 953 1140.66666667 920.833333333 1063.66666667 856.5 1001 c 128
 792.166666667 938.333333333 710.666666667 897.333333333 612 878 c 1
 612 870 l 1
 737.333333333 843.333333333 838.333333333 784.5 915 693.5 c 128
 991.666666667 602.5 1030 501.333333333 1030 390 c 0
 1030 268.666666667 995.5 170.333333333 926.5 95 c 128
 857.5 19.6666666667 768 -18 658 -18 c 0
 598.666666667 -18 548.166666667 -0.833333333333 506.5 33.5 c 128
 464.833333333 67.8333333333 444 113.333333333 444 170 c 0
 444 214 456.5 249.666666667 481.5 277 c 128
 506.5 304.333333333 539.333333333 318 580 318 c 0
 605.333333333 318 625.666666667 311.166666667 641 297.5 c 128
 656.333333333 283.833333333 664 265 664 241 c 0
 664 210.333333333 645.333333333 180.666666667 608 152 c 0
 591.333333333 140 579.833333333 129.166666667 573.5 119.5 c 128
 567.166666667 109.833333333 564 97.3333333333 564 82 c 0
 564 65.3333333333 573.333333333 52.5 592 43.5 c 128
 610.666666667 34.5 632.666666667 30 658 30 c 0
 720.666666667 30 767.666666667 57.6666666667 799 113 c 128
 830.333333333 168.333333333 846 259.666666667 846 387 c 0
 846 429.666666667 842.333333333 471.666666667 835 513 c 128
 827.666666667 554.333333333 815.5 595.333333333 798.5 636 c 128
 781.5 676.666666667 760.5 712.166666667 735.5 742.5 c 128
 710.5 772.833333333 678.333333333 797.5 639 816.5 c 128
 599.666666667 835.5 556 845 508 845 c 2
 458 845 l 1
 458 893 l 1
 508 893 l 2
 544.666666667 893 578.833333333 898.833333333 610.5 910.5 c 128
 642.166666667 922.166666667 671.833333333 940.666666667 699.5 966 c 128
 727.166666667 991.333333333 749 1027.16666667 765 1073.5 c 128
 781 1119.83333333 789 1174 789 1236 c 0
 789 1307.33333333 773.833333333 1363.16666667 743.5 1403.5 c 128
 713.166666667 1443.83333333 670 1464 614 1464 c 0
 542.666666667 1464 486.5 1430 445.5 1362 c 128
 404.5 1294 384 1192 384 1056 c 2
 384 0 l 1
 78 0 l 1
EndSplineSet
EndChar

StartChar: registered
Encoding: 394 174 138
Width: 1672
GlyphClass: 2
Flags: HW
LayerCount: 2
Back
SplineSet
64 744 m 128
 64 848.666666667 84.3333333333 948.666666667 125 1044 c 128
 165.666666667 1139.33333333 220.5 1221.5 289.5 1290.5 c 128
 358.5 1359.5 440.666666667 1414.33333333 536 1455 c 128
 631.333333333 1495.66666667 731.333333333 1516 836 1516 c 128
 940.666666667 1516 1040.66666667 1495.66666667 1136 1455 c 128
 1231.33333333 1414.33333333 1313.5 1359.5 1382.5 1290.5 c 128
 1451.5 1221.5 1506.33333333 1139.33333333 1547 1044 c 128
 1587.66666667 948.666666667 1608 848.666666667 1608 744 c 128
 1608 639.333333333 1587.66666667 539.333333333 1547 444 c 128
 1506.33333333 348.666666667 1451.5 266.5 1382.5 197.5 c 128
 1313.5 128.5 1231.33333333 73.6666666667 1136 33 c 128
 1040.66666667 -7.66666666667 940.666666667 -28 836 -28 c 128
 731.333333333 -28 631.333333333 -7.66666666667 536 33 c 128
 440.666666667 73.6666666667 358.5 128.5 289.5 197.5 c 128
 220.5 266.5 165.666666667 348.666666667 125 444 c 128
 84.3333333333 539.333333333 64 639.333333333 64 744 c 128
128 744 m 128
 128 648 146.666666667 556.333333333 184 469 c 128
 221.333333333 381.666666667 271.666666667 306.333333333 335 243 c 128
 398.333333333 179.666666667 473.666666667 129.333333333 561 92 c 128
 648.333333333 54.6666666667 740 36 836 36 c 128
 932 36 1023.66666667 54.6666666667 1111 92 c 128
 1198.33333333 129.333333333 1273.66666667 179.666666667 1337 243 c 128
 1400.33333333 306.333333333 1450.66666667 381.666666667 1488 469 c 128
 1525.33333333 556.333333333 1544 648 1544 744 c 128
 1544 840 1525.33333333 931.666666667 1488 1019 c 128
 1450.66666667 1106.33333333 1400.33333333 1181.66666667 1337 1245 c 128
 1273.66666667 1308.33333333 1198.33333333 1358.66666667 1111 1396 c 128
 1023.66666667 1433.33333333 932 1452 836 1452 c 128
 740 1452 648.333333333 1433.33333333 561 1396 c 128
 473.666666667 1358.66666667 398.333333333 1308.33333333 335 1245 c 128
 271.666666667 1181.66666667 221.333333333 1106.33333333 184 1019 c 128
 146.666666667 931.666666667 128 840 128 744 c 128
414 302 m 1
 414 350 l 1
 556 350 l 1
 556 1138 l 1
 414 1138 l 1
 414 1186 l 1
 870 1186 l 2
 968.666666667 1186 1042.33333333 1164.83333333 1091 1122.5 c 128
 1139.66666667 1080.16666667 1164 1029.33333333 1164 970 c 128
 1164 910.666666667 1144.16666667 865.5 1104.5 834.5 c 128
 1064.83333333 803.5 1007.33333333 783.333333333 932 774 c 1
 932 763 l 1
 1007.33333333 753.666666667 1064.83333333 732.5 1104.5 699.5 c 128
 1144.16666667 666.5 1164 628.333333333 1164 585 c 2
 1164 456 l 2
 1164 414.666666667 1170.83333333 385.5 1184.5 368.5 c 128
 1198.16666667 351.5 1221.66666667 343 1255 343 c 0
 1278.33333333 343 1301.33333333 348.333333333 1324 359 c 1
 1338 317 l 1
 1293.33333333 297 1244.33333333 287 1191 287 c 0
 1169 287 1147.83333333 289.333333333 1127.5 294 c 128
 1107.16666667 298.666666667 1086.83333333 306.166666667 1066.5 316.5 c 128
 1046.16666667 326.833333333 1030 342.666666667 1018 364 c 128
 1006 385.333333333 1000 410.666666667 1000 440 c 2
 1000 583 l 2
 1000 629 987.833333333 667.666666667 963.5 699 c 128
 939.166666667 730.333333333 903 746 855 746 c 2
 720 746 l 1
 720 350 l 1
 862 350 l 1
 862 302 l 1
 414 302 l 1
720 794 m 1
 869 794 l 2
 910.333333333 794 942.5 809.166666667 965.5 839.5 c 128
 988.5 869.833333333 1000 908.333333333 1000 955 c 0
 1000 1005 988.166666667 1048 964.5 1084 c 128
 940.833333333 1120 904.333333333 1138 855 1138 c 2
 720 1138 l 1
 720 794 l 1
EndSplineSet
EndChar

StartChar: copyright
Encoding: 395 169 139
Width: 1672
GlyphClass: 2
Flags: HW
LayerCount: 2
Back
SplineSet
64 744 m 128
 64 848.666666667 84.3333333333 948.666666667 125 1044 c 128
 165.666666667 1139.33333333 220.5 1221.5 289.5 1290.5 c 128
 358.5 1359.5 440.666666667 1414.33333333 536 1455 c 128
 631.333333333 1495.66666667 731.333333333 1516 836 1516 c 128
 940.666666667 1516 1040.66666667 1495.66666667 1136 1455 c 128
 1231.33333333 1414.33333333 1313.5 1359.5 1382.5 1290.5 c 128
 1451.5 1221.5 1506.33333333 1139.33333333 1547 1044 c 128
 1587.66666667 948.666666667 1608 848.666666667 1608 744 c 128
 1608 639.333333333 1587.66666667 539.333333333 1547 444 c 128
 1506.33333333 348.666666667 1451.5 266.5 1382.5 197.5 c 128
 1313.5 128.5 1231.33333333 73.6666666667 1136 33 c 128
 1040.66666667 -7.66666666667 940.666666667 -28 836 -28 c 128
 731.333333333 -28 631.333333333 -7.66666666667 536 33 c 128
 440.666666667 73.6666666667 358.5 128.5 289.5 197.5 c 128
 220.5 266.5 165.666666667 348.666666667 125 444 c 128
 84.3333333333 539.333333333 64 639.333333333 64 744 c 128
128 744 m 128
 128 648 146.666666667 556.333333333 184 469 c 128
 221.333333333 381.666666667 271.666666667 306.333333333 335 243 c 128
 398.333333333 179.666666667 473.666666667 129.333333333 561 92 c 128
 648.333333333 54.6666666667 740 36 836 36 c 128
 932 36 1023.66666667 54.6666666667 1111 92 c 128
 1198.33333333 129.333333333 1273.66666667 179.666666667 1337 243 c 128
 1400.33333333 306.333333333 1450.66666667 381.666666667 1488 469 c 128
 1525.33333333 556.333333333 1544 648 1544 744 c 128
 1544 840 1525.33333333 931.666666667 1488 1019 c 128
 1450.66666667 1106.33333333 1400.33333333 1181.66666667 1337 1245 c 128
 1273.66666667 1308.33333333 1198.33333333 1358.66666667 1111 1396 c 128
 1023.66666667 1433.33333333 932 1452 836 1452 c 128
 740 1452 648.333333333 1433.33333333 561 1396 c 128
 473.666666667 1358.66666667 398.333333333 1308.33333333 335 1245 c 128
 271.666666667 1181.66666667 221.333333333 1106.33333333 184 1019 c 128
 146.666666667 931.666666667 128 840 128 744 c 128
392 744 m 128
 392 814.666666667 404.833333333 880 430.5 940 c 128
 456.166666667 1000 490.166666667 1049.66666667 532.5 1089 c 128
 574.833333333 1128.33333333 622.833333333 1159 676.5 1181 c 128
 730.166666667 1203 785.333333333 1214 842 1214 c 0
 895.333333333 1214 951.333333333 1203 1010 1181 c 0
 1044.66666667 1167.66666667 1068.66666667 1161 1082 1161 c 0
 1106.66666667 1161 1122.66666667 1178.66666667 1130 1214 c 1
 1158 1214 l 1
 1158 890 l 1
 1122 890 l 1
 1105.33333333 958.666666667 1081 1015.66666667 1049 1061 c 0
 999.666666667 1131 930.666666667 1166 842 1166 c 0
 755.333333333 1166 689.333333333 1130.33333333 644 1059 c 128
 598.666666667 987.666666667 576 882.666666667 576 744 c 128
 576 605.333333333 598.666666667 500.333333333 644 429 c 128
 689.333333333 357.666666667 755.333333333 322 842 322 c 0
 930.666666667 322 999.666666667 357 1049 427 c 0
 1081 472.333333333 1105.33333333 529.333333333 1122 598 c 1
 1158 598 l 1
 1158 274 l 1
 1130 274 l 1
 1122.66666667 309.333333333 1106.66666667 327 1082 327 c 0
 1068.66666667 327 1044.66666667 320.333333333 1010 307 c 0
 951.333333333 285 895.333333333 274 842 274 c 0
 785.333333333 274 730.166666667 285 676.5 307 c 128
 622.833333333 329 574.833333333 359.666666667 532.5 399 c 128
 490.166666667 438.333333333 456.166666667 488 430.5 548 c 128
 404.833333333 608 392 673.333333333 392 744 c 128
EndSplineSet
EndChar

StartChar: trademark
Encoding: 396 8482 140
Width: 2214
GlyphClass: 2
Flags: HW
LayerCount: 2
Back
SplineSet
84 1130 m 1
 103 1496 l 1
 937 1496 l 1
 956 1130 l 1
 916 1130 l 1
 907.333333333 1225.33333333 885 1299.33333333 849 1352 c 0
 805.666666667 1416 749 1448 679 1448 c 2
 602 1448 l 1
 602 660 l 1
 744 660 l 1
 744 612 l 1
 296 612 l 1
 296 660 l 1
 438 660 l 1
 438 1448 l 1
 361 1448 l 2
 291 1448 234.333333333 1416 191 1352 c 0
 154.333333333 1298 132 1224 124 1130 c 1
 84 1130 l 1
1024 612 m 1
 1024 660 l 1
 1158 660 l 1
 1158 1448 l 1
 1024 1448 l 1
 1024 1496 l 1
 1364 1496 l 1
 1589 855 l 1
 1825 1496 l 1
 2146 1496 l 1
 2146 1448 l 1
 2004 1448 l 1
 2004 660 l 1
 2146 660 l 1
 2146 612 l 1
 1698 612 l 1
 1698 660 l 1
 1840 660 l 1
 1840 1392 l 1
 1838 1392 l 1
 1540 586 l 1
 1496 586 l 1
 1221 1368 l 1
 1215.66666667 1400 1213 1426.66666667 1213 1448 c 1
 1208 1448 l 1
 1208 660 l 1
 1342 660 l 1
 1342 612 l 1
 1024 612 l 1
EndSplineSet
EndChar

StartChar: acute
Encoding: 397 180 141
AltUni2: 0002ca.ffffffff.0
Width: 880
GlyphClass: 2
Flags: HW
LayerCount: 2
Back
SplineSet
342 1072 m 1
 448 1361 l 2
 472.666666667 1428.33333333 507 1462 551 1462 c 0
 572.333333333 1462 589.166666667 1455.66666667 601.5 1443 c 128
 613.833333333 1430.33333333 620 1414.66666667 620 1396 c 0
 620 1365.33333333 603 1329.33333333 569 1288 c 2
 374 1054 l 1
 342 1072 l 1
EndSplineSet
EndChar

StartChar: dieresis
Encoding: 398 168 142
Width: 880
GlyphClass: 2
Flags: HW
LayerCount: 2
Back
SplineSet
142 1208 m 128
 142 1236 151 1259 169 1277 c 128
 187 1295 210 1304 238 1304 c 128
 266 1304 289 1295 307 1277 c 128
 325 1259 334 1236 334 1208 c 128
 334 1180 325 1157 307 1139 c 128
 289 1121 266 1112 238 1112 c 128
 210 1112 187 1121 169 1139 c 128
 151 1157 142 1180 142 1208 c 128
546 1208 m 128
 546 1236 555 1259 573 1277 c 128
 591 1295 614 1304 642 1304 c 128
 670 1304 693 1295 711 1277 c 128
 729 1259 738 1236 738 1208 c 128
 738 1180 729 1157 711 1139 c 128
 693 1121 670 1112 642 1112 c 128
 614 1112 591 1121 573 1139 c 128
 555 1157 546 1180 546 1208 c 128
EndSplineSet
EndChar

StartChar: notequal
Encoding: 399 8800 143
Width: 1152
GlyphClass: 2
Flags: HW
LayerCount: 2
Back
SplineSet
62 310 m 1
 62 406 l 1
 449 406 l 1
 591 622 l 1
 62 622 l 1
 62 718 l 1
 655 718 l 1
 860 1028 l 1
 972 1028 l 1
 767 718 l 1
 1090 718 l 1
 1090 622 l 1
 703 622 l 1
 561 406 l 1
 1090 406 l 1
 1090 310 l 1
 497 310 l 1
 292 0 l 1
 180 0 l 1
 385 310 l 1
 62 310 l 1
EndSplineSet
EndChar

StartChar: AE
Encoding: 400 198 144
Width: 2236
GlyphClass: 3
LigCaretCntFixed: 1
Flags: HW
LayerCount: 2
Back
SplineSet
48 0 m 1
 48 52 l 1
 269 52 l 1
 1061 1382 l 1
 854 1382 l 1
 854 1434 l 1
 2078 1434 l 1
 2088 1058 l 1
 2036 1058 l 1
 2030.66666667 1084.66666667 2025.66666667 1106.33333333 2021 1123 c 128
 2016.33333333 1139.66666667 2007.5 1163 1994.5 1193 c 128
 1981.5 1223 1965.33333333 1251.33333333 1946 1278 c 0
 1896.66666667 1347.33333333 1820.66666667 1382 1718 1382 c 2
 1358 1382 l 1
 1358 776 l 1
 1544 776 l 2
 1610 776 1666.66666667 812 1714 884 c 0
 1728.66666667 906.666666667 1741.33333333 938.333333333 1752 979 c 128
 1762.66666667 1019.66666667 1768 1049.33333333 1768 1068 c 1
 1816 1068 l 1
 1816 434 l 1
 1768 434 l 1
 1768 452.666666667 1762.66666667 482.333333333 1752 523 c 128
 1741.33333333 563.666666667 1728.66666667 595.333333333 1714 618 c 0
 1667.33333333 688.666666667 1610.66666667 724 1544 724 c 2
 1358 724 l 1
 1358 52 l 1
 1695 52 l 2
 1843.66666667 52 1950.66666667 97 2016 187 c 0
 2048 230.333333333 2070.33333333 270 2083 306 c 128
 2095.66666667 342 2107.33333333 389 2118 447 c 1
 2170 447 l 1
 2164 0 l 1
 958 0 l 1
 958 52 l 1
 1150 52 l 1
 1150 724 l 1
 748 724 l 1
 347 52 l 1
 598 52 l 1
 598 0 l 1
 48 0 l 1
778 776 m 1
 1150 776 l 1
 1150 1382 l 1
 1139 1382 l 1
 778 776 l 1
EndSplineSet
Ligature2: "'dlig' Discretionary Ligatures for Latin-1" A E
Ligature2: "'dlig' Discretionary Ligatures for Latin-1" A e
LCarets2: 1 1348 
EndChar

StartChar: Oslash
Encoding: 401 216 145
Width: 1618
GlyphClass: 2
Flags: HW
LayerCount: 2
Back
SplineSet
146 22 m 1
 319 211 l 1
 203.666666667 345.666666667 146 512.666666667 146 712 c 0
 146 802.666666667 158.666666667 888.166666667 184 968.5 c 128
 209.333333333 1048.83333333 244 1118.66666667 288 1178 c 128
 332 1237.33333333 383 1288.66666667 441 1332 c 128
 499 1375.33333333 561.666666667 1407.83333333 629 1429.5 c 128
 696.333333333 1451.16666667 764.666666667 1462 834 1462 c 0
 918 1462 999.833333333 1446 1079.5 1414 c 128
 1159.16666667 1382 1230.66666667 1336 1294 1276 c 1
 1464 1462 l 1
 1522 1412 l 1
 1347 1220 l 1
 1463.66666667 1081.33333333 1522 912 1522 712 c 0
 1522 599.333333333 1502.5 495.666666667 1463.5 401 c 128
 1424.5 306.333333333 1372.66666667 228.166666667 1308 166.5 c 128
 1243.33333333 104.833333333 1170.16666667 57 1088.5 23 c 128
 1006.83333333 -11 922 -28 834 -28 c 0
 749.333333333 -28 667 -12.3333333333 587 19 c 128
 507 50.3333333333 435.333333333 95.6666666667 372 155 c 1
 204 -28 l 1
 146 22 l 1
380 712 m 0
 380 563.333333333 397.333333333 437.666666667 432 335 c 1
 1202 1175 l 1
 1124.66666667 1331.66666667 1002 1410 834 1410 c 0
 689.333333333 1410 577.5 1350.5 498.5 1231.5 c 128
 419.5 1112.5 380 939.333333333 380 712 c 0
464 257 m 1
 540.666666667 101.666666667 664 24 834 24 c 0
 979.333333333 24 1091.33333333 82 1170 198 c 128
 1248.66666667 314 1288 485.333333333 1288 712 c 0
 1288 862.666666667 1270 991 1234 1097 c 1
 464 257 l 1
EndSplineSet
EndChar

StartChar: infinity
Encoding: 402 8734 146
Width: 1888
GlyphClass: 2
Flags: HW
LayerCount: 2
Back
SplineSet
96 537 m 0
 96 615.666666667 116.5 685.833333333 157.5 747.5 c 128
 198.5 809.166666667 250.5 855.666666667 313.5 887 c 128
 376.5 918.333333333 443.333333333 934 514 934 c 0
 560 934 604.333333333 926.5 647 911.5 c 128
 689.666666667 896.5 731 874 771 844 c 128
 811 814 846.333333333 784 877 754 c 128
 907.666666667 724 942.333333333 687 981 643 c 1
 1139.66666667 837 1285 934 1417 934 c 0
 1529.66666667 934 1620.33333333 899.5 1689 830.5 c 128
 1757.66666667 761.5 1792 666.333333333 1792 545 c 0
 1792 466.333333333 1771.5 396 1730.5 334 c 128
 1689.5 272 1637.5 225.333333333 1574.5 194 c 128
 1511.5 162.666666667 1444.66666667 147 1374 147 c 0
 1328.66666667 147 1284.5 154.5 1241.5 169.5 c 128
 1198.5 184.5 1157 207 1117 237 c 128
 1077 267 1041.66666667 297 1011 327 c 128
 980.333333333 357 945.666666667 394 907 438 c 1
 747.666666667 244 602.333333333 147 471 147 c 0
 358.333333333 147 267.666666667 181.666666667 199 251 c 128
 130.333333333 320.333333333 96 415.666666667 96 537 c 0
168 516 m 0
 168 424 198.166666667 350.166666667 258.5 294.5 c 128
 318.833333333 238.833333333 390.333333333 211 473 211 c 0
 581.666666667 211 711.333333333 304.666666667 862 492 c 1
 838 520 l 1
 806 558.666666667 779.666666667 589.5 759 612.5 c 128
 738.333333333 635.5 712.833333333 661.666666667 682.5 691 c 128
 652.166666667 720.333333333 624.833333333 743 600.5 759 c 128
 576.166666667 775 548.833333333 788.833333333 518.5 800.5 c 128
 488.166666667 812.166666667 458 818 428 818 c 0
 364 818 304.666666667 789 250 731 c 128
 195.333333333 673 168 601.333333333 168 516 c 0
1026 590 m 1
 1051 561 l 2
 1083.66666667 522.333333333 1110 491.666666667 1130 469 c 128
 1150 446.333333333 1175.5 420.166666667 1206.5 390.5 c 128
 1237.5 360.833333333 1265 338 1289 322 c 128
 1313 306 1340.16666667 292.166666667 1370.5 280.5 c 128
 1400.83333333 268.833333333 1430.66666667 263 1460 263 c 0
 1524 263 1583.33333333 292 1638 350 c 128
 1692.66666667 408 1720 479.666666667 1720 565 c 0
 1720 627 1705.33333333 681.666666667 1676 729 c 128
 1646.66666667 776.333333333 1609.16666667 811.666666667 1563.5 835 c 128
 1517.83333333 858.333333333 1468.33333333 870 1415 870 c 0
 1305.66666667 870 1176 776.666666667 1026 590 c 1
EndSplineSet
EndChar

StartChar: lessequal
Encoding: 404 8804 148
Width: 1152
GlyphClass: 2
Flags: HW
LayerCount: 2
Back
SplineSet
62 1 m 1
 1090 1 l 1
 1090 -95 l 1
 62 -95 l 1
 62 1 l 1
84 558 m 1
 84 654 l 1
 1026 1117 l 1
 1068 1033 l 1
 199 606 l 1
 1068 179 l 1
 1026 95 l 1
 84 558 l 1
EndSplineSet
EndChar

StartChar: greaterequal
Encoding: 405 8805 149
Width: 1152
GlyphClass: 2
Flags: HW
LayerCount: 2
Back
SplineSet
62 1 m 1
 1090 1 l 1
 1090 -95 l 1
 62 -95 l 1
 62 1 l 1
84 179 m 1
 953 606 l 1
 84 1033 l 1
 126 1117 l 1
 1068 654 l 1
 1068 558 l 1
 126 95 l 1
 84 179 l 1
EndSplineSet
EndChar

StartChar: yen
Encoding: 406 165 150
Width: 1152
GlyphClass: 2
Flags: HW
LayerCount: 2
Back
SplineSet
24 1386 m 1
 24 1434 l 1
 460 1434 l 1
 460 1386 l 1
 318 1386 l 1
 619 805 l 1
 922 1386 l 1
 786 1386 l 1
 786 1434 l 1
 1104 1434 l 1
 1104 1386 l 1
 977 1386 l 1
 669 792 l 1
 990 792 l 1
 990 728 l 1
 658 728 l 1
 658 540 l 1
 990 540 l 1
 990 476 l 1
 658 476 l 1
 658 48 l 1
 800 48 l 1
 800 0 l 1
 352 0 l 1
 352 48 l 1
 494 48 l 1
 494 476 l 1
 160 476 l 1
 160 540 l 1
 494 540 l 1
 494 694 l 1
 476 728 l 1
 160 728 l 1
 160 792 l 1
 443 792 l 1
 136 1386 l 1
 24 1386 l 1
EndSplineSet
EndChar

StartChar: partialdiff
Encoding: 408 8706 152
Width: 1078
GlyphClass: 2
Flags: HW
LayerCount: 2
Back
SplineSet
96 344 m 0
 96 426 108.666666667 502.5 134 573.5 c 128
 159.333333333 644.5 193.166666667 704.333333333 235.5 753 c 128
 277.833333333 801.666666667 327 839.833333333 383 867.5 c 128
 439 895.166666667 497.666666667 909 559 909 c 0
 603.666666667 909 646 895.166666667 686 867.5 c 128
 726 839.833333333 754 802 770 754 c 1
 789 756 l 1
 799 793.333333333 809 846.833333333 819 916.5 c 128
 829 986.166666667 834 1040.33333333 834 1079 c 0
 834 1128.33333333 831 1172.33333333 825 1211 c 128
 819 1249.66666667 808.833333333 1285.66666667 794.5 1319 c 128
 780.166666667 1352.33333333 759.166666667 1378 731.5 1396 c 128
 703.833333333 1414 670.333333333 1423 631 1423 c 0
 593.666666667 1423 556.166666667 1410.16666667 518.5 1384.5 c 128
 480.833333333 1358.83333333 438.333333333 1319.33333333 391 1266 c 1
 332 1323 l 1
 368 1365.66666667 412.833333333 1401.66666667 466.5 1431 c 128
 520.166666667 1460.33333333 574.333333333 1475 629 1475 c 0
 678.333333333 1475 722.666666667 1466 762 1448 c 128
 801.333333333 1430 833.5 1406.66666667 858.5 1378 c 128
 883.5 1349.33333333 904.333333333 1315.5 921 1276.5 c 128
 937.666666667 1237.5 949.333333333 1198.16666667 956 1158.5 c 128
 962.666666667 1118.83333333 966 1078 966 1036 c 0
 966 926.666666667 953 803.666666667 927 667 c 128
 901 530.333333333 864.333333333 409 817 303 c 0
 719.666666667 84.3333333333 581 -25 401 -25 c 0
 367 -25 332.666666667 -17.5 298 -2.5 c 128
 263.333333333 12.5 230.666666667 34.5 200 63.5 c 128
 169.333333333 92.5 144.333333333 131.333333333 125 180 c 128
 105.666666667 228.666666667 96 283.333333333 96 344 c 0
260 270 m 0
 260 192.666666667 273.666666667 132.833333333 301 90.5 c 128
 328.333333333 48.1666666667 366.666666667 27 416 27 c 0
 472 27 517.5 46.8333333333 552.5 86.5 c 128
 587.5 126.166666667 618.333333333 180.666666667 645 250 c 0
 686.333333333 355.333333333 707 476.666666667 707 614 c 0
 707 691.333333333 693.333333333 751.166666667 666 793.5 c 128
 638.666666667 835.833333333 600.333333333 857 551 857 c 0
 495 857 449.166666667 836.833333333 413.5 796.5 c 128
 377.833333333 756.166666667 347.333333333 701.666666667 322 633 c 1
 280.666666667 517.666666667 260 396.666666667 260 270 c 0
EndSplineSet
EndChar

StartChar: summation
Encoding: 409 8721 153
Width: 1718
GlyphClass: 2
Flags: HW
LayerCount: 2
Back
SplineSet
164 -484 m 1
 1174 461 l 1
 174 1370 l 1
 174 1434 l 1
 1557 1434 l 1
 1567 968 l 1
 1515 968 l 1
 1494.33333333 1080 1456.66666667 1173.33333333 1402 1248 c 0
 1364 1299.33333333 1320.5 1334.5 1271.5 1353.5 c 128
 1222.5 1372.5 1158.33333333 1382 1079 1382 c 2
 472 1382 l 1
 1377 559 l 1
 446 -312 l 1
 1363 -312 l 2
 1415.66666667 -312 1455.66666667 -306.5 1483 -295.5 c 128
 1510.33333333 -284.5 1532.33333333 -261.666666667 1549 -227 c 1
 1565.66666667 -190.333333333 1574 -107.666666667 1574 21 c 1
 1626 21 l 1
 1626 -520 l 1
 164 -520 l 1
 164 -484 l 1
EndSplineSet
EndChar

StartChar: product
Encoding: 410 8719 154
Width: 1800
GlyphClass: 2
Flags: HW
LayerCount: 2
Back
SplineSet
122 -468 m 1
 314 -468 l 1
 314 1382 l 1
 122 1382 l 1
 122 1434 l 1
 1718 1434 l 1
 1718 1382 l 1
 1526 1382 l 1
 1526 -468 l 1
 1718 -468 l 1
 1718 -520 l 1
 1126 -520 l 1
 1126 -468 l 1
 1318 -468 l 1
 1318 1382 l 1
 522 1382 l 1
 522 -468 l 1
 714 -468 l 1
 714 -520 l 1
 122 -520 l 1
 122 -468 l 1
EndSplineSet
EndChar

StartChar: pi
Encoding: 411 960 155
Width: 1142
GlyphClass: 2
Flags: HW
LayerCount: 2
Back
SplineSet
12 606 m 0
 12 637.333333333 20.5 671.666666667 37.5 709 c 128
 54.5 746.333333333 77 779.666666667 105 809 c 0
 153 859 219.333333333 884 304 884 c 2
 1086 884 l 1
 1086 696 l 1
 740 696 l 1
 740 542.666666667 745 422.333333333 755 335 c 0
 759.666666667 293 773.333333333 257.666666667 796 229 c 128
 818.666666667 200.333333333 848.333333333 186 885 186 c 0
 945 186 988.666666667 216.666666667 1016 278 c 1
 1035.33333333 249.333333333 1045 218 1045 184 c 0
 1045 127.333333333 1032 79.8333333333 1006 41.5 c 128
 980 3.16666666667 939 -16 883 -16 c 0
 847.666666667 -16 817.166666667 -8.16666666667 791.5 7.5 c 128
 765.833333333 23.1666666667 746 45 732 73 c 128
 718 101 707.833333333 131.5 701.5 164.5 c 128
 695.166666667 197.5 692 234 692 274 c 2
 692 696 l 1
 424 696 l 1
 424 485.333333333 426.333333333 346.666666667 431 280 c 0
 435 220 437 162.333333333 437 107 c 0
 437 73.6666666667 430.166666667 44.8333333333 416.5 20.5 c 128
 402.833333333 -3.83333333333 380.666666667 -16 350 -16 c 128
 319.333333333 -16 294.833333333 -7.16666666667 276.5 10.5 c 128
 258.166666667 28.1666666667 249 51.3333333333 249 80 c 0
 249 99.3333333333 252 122 258 148 c 128
 264 174 270.333333333 196.5 277 215.5 c 128
 283.666666667 234.5 294 262.333333333 308 299 c 0
 360.666666667 437 388.333333333 569.333333333 391 696 c 1
 223 696 l 2
 152.333333333 696 105.333333333 667.333333333 82 610 c 0
 68.6666666667 576.666666667 54.6666666667 560 40 560 c 0
 21.3333333333 560 12 575.333333333 12 606 c 0
EndSplineSet
EndChar

StartChar: integral
Encoding: 412 8747 156
Width: 1206
GlyphClass: 2
Flags: HW
LayerCount: 2
Back
SplineSet
56 -424 m 0
 56 -391.333333333 66.6666666667 -364.166666667 88 -342.5 c 128
 109.333333333 -320.833333333 138.666666667 -310 176 -310 c 0
 204 -310 233.333333333 -324.333333333 264 -353 c 1
 280.666666667 -369.666666667 299 -378 319 -378 c 0
 376.333333333 -378 421.333333333 -258.666666667 454 -20 c 0
 507.333333333 365.333333333 563.333333333 697.333333333 622 976 c 0
 640.666666667 1063.33333333 660 1139.33333333 680 1204 c 128
 700 1268.66666667 725 1331.33333333 755 1392 c 128
 785 1452.66666667 821 1499.16666667 863 1531.5 c 128
 905 1563.83333333 952 1580 1004 1580 c 0
 1048.66666667 1580 1084.16666667 1566 1110.5 1538 c 128
 1136.83333333 1510 1150 1478.66666667 1150 1444 c 0
 1150 1411.33333333 1139.33333333 1384.16666667 1118 1362.5 c 128
 1096.66666667 1340.83333333 1067.33333333 1330 1030 1330 c 0
 1002 1330 972.666666667 1344.33333333 942 1373 c 1
 925.333333333 1389.66666667 907 1398 887 1398 c 0
 829.666666667 1398 784.666666667 1278.66666667 752 1040 c 0
 698.666666667 654.666666667 642.666666667 322.666666667 584 44 c 0
 565.333333333 -43.3333333333 546 -119.333333333 526 -184 c 128
 506 -248.666666667 481 -311.333333333 451 -372 c 128
 421 -432.666666667 385 -479.166666667 343 -511.5 c 128
 301 -543.833333333 254 -560 202 -560 c 0
 157.333333333 -560 121.833333333 -546 95.5 -518 c 128
 69.1666666667 -490 56 -458.666666667 56 -424 c 0
EndSplineSet
EndChar

StartChar: ordfeminine
Encoding: 413 170 157
Width: 780
GlyphClass: 2
Flags: HW
LayerCount: 2
Back
SplineSet
164 1035 m 0
 164 1083 178 1118.66666667 206 1142 c 128
 234 1165.33333333 273.666666667 1180 325 1186 c 0
 379.666666667 1192.66666667 428.666666667 1209.66666667 472 1237 c 1
 472 1295 l 2
 472 1371.66666667 435.666666667 1410 363 1410 c 0
 339 1410 317.833333333 1405.16666667 299.5 1395.5 c 128
 281.166666667 1385.83333333 272 1373.33333333 272 1358 c 0
 272 1348.66666667 275 1338.66666667 281 1328 c 1
 287 1315.33333333 290 1303.66666667 290 1293 c 128
 290 1282.33333333 285.333333333 1273 276 1265 c 128
 266.666666667 1257 252.666666667 1253 234 1253 c 0
 192.666666667 1253 172 1271.33333333 172 1308 c 0
 172 1344 190.666666667 1376 228 1404 c 128
 265.333333333 1432 311 1446 365 1446 c 0
 438.333333333 1446 492.5 1428.16666667 527.5 1392.5 c 128
 562.5 1356.83333333 580 1310 580 1252 c 2
 580 1021 l 2
 580 997.666666667 585.666666667 980.666666667 597 970 c 128
 608.333333333 959.333333333 622.666666667 954 640 954 c 0
 654.666666667 954 667.666666667 955.666666667 679 959 c 1
 686 920 l 1
 666 913.333333333 647.333333333 910 630 910 c 0
 589.333333333 910 556.5 917 531.5 931 c 128
 506.5 945 488.333333333 972 477 1012 c 1
 472 1012 l 1
 452 980 429.166666667 955 403.5 937 c 128
 377.833333333 919 345.666666667 910 307 910 c 0
 263.666666667 910 229 921.166666667 203 943.5 c 128
 177 965.833333333 164 996.333333333 164 1035 c 0
280 1048 m 0
 280 992 308 964 364 964 c 0
 405.333333333 964 441.333333333 990.666666667 472 1044 c 1
 472 1209 l 1
 442 1189.66666667 398.666666667 1172.66666667 342 1158 c 1
 300.666666667 1148 280 1111.33333333 280 1048 c 0
EndSplineSet
EndChar

StartChar: ordmasculine
Encoding: 414 186 158
Width: 780
GlyphClass: 2
Flags: HW
LayerCount: 2
Back
SplineSet
124 1178 m 128
 124 1255.33333333 149.666666667 1319.33333333 201 1370 c 128
 252.333333333 1420.66666667 315.333333333 1446 390 1446 c 128
 464.666666667 1446 527.666666667 1420.66666667 579 1370 c 128
 630.333333333 1319.33333333 656 1255.33333333 656 1178 c 128
 656 1100.66666667 630.333333333 1036.66666667 579 986 c 128
 527.666666667 935.333333333 464.666666667 910 390 910 c 128
 315.333333333 910 252.333333333 935.333333333 201 986 c 128
 149.666666667 1036.66666667 124 1100.66666667 124 1178 c 128
244 1178 m 128
 244 1021.33333333 292.666666667 943 390 943 c 128
 487.333333333 943 536 1021.33333333 536 1178 c 128
 536 1334.66666667 487.333333333 1413 390 1413 c 128
 292.666666667 1413 244 1334.66666667 244 1178 c 128
EndSplineSet
EndChar

StartChar: Omegagreek
Encoding: 415 937 159
Width: 1524
GlyphClass: 2
Flags: HW
LayerCount: 2
Back
SplineSet
132 0 m 1
 132 407 l 1
 184 407 l 1
 184 317 189.333333333 259.666666667 200 235 c 0
 210.666666667 211 224.666666667 195.166666667 242 187.5 c 128
 259.333333333 179.833333333 284.666666667 176 318 176 c 2
 626 176 l 1
 626 186 l 1
 580.666666667 226 541.666666667 261.5 509 292.5 c 128
 476.333333333 323.5 438.166666667 364.333333333 394.5 415 c 128
 350.833333333 465.666666667 315.5 514.166666667 288.5 560.5 c 128
 261.5 606.833333333 238.166666667 660.5 218.5 721.5 c 128
 198.833333333 782.5 189 843.333333333 189 904 c 0
 189 977.333333333 203 1047.66666667 231 1115 c 128
 259 1182.33333333 298 1241.66666667 348 1293 c 128
 398 1344.33333333 460 1385.33333333 534 1416 c 128
 608 1446.66666667 688 1462 774 1462 c 128
 860 1462 940 1446.66666667 1014 1416 c 128
 1088 1385.33333333 1150 1344.33333333 1200 1293 c 128
 1250 1241.66666667 1289 1182.33333333 1317 1115 c 128
 1345 1047.66666667 1359 977.333333333 1359 904 c 0
 1359 843.333333333 1349.16666667 782.5 1329.5 721.5 c 128
 1309.83333333 660.5 1286.5 606.833333333 1259.5 560.5 c 128
 1232.5 514.166666667 1197.16666667 465.666666667 1153.5 415 c 128
 1109.83333333 364.333333333 1071.66666667 323.5 1039 292.5 c 128
 1006.33333333 261.5 967.333333333 226 922 186 c 1
 922 176 l 1
 1230 176 l 2
 1263.33333333 176 1288.66666667 179.833333333 1306 187.5 c 128
 1323.33333333 195.166666667 1337.33333333 211 1348 235 c 0
 1358.66666667 259.666666667 1364 317 1364 407 c 1
 1416 407 l 1
 1416 0 l 1
 836 0 l 1
 836 161 l 1
 884 202.333333333 917.5 233.5 936.5 254.5 c 128
 955.5 275.5 980.666666667 308.666666667 1012 354 c 0
 1087.33333333 463.333333333 1125 640 1125 884 c 0
 1125 1056.66666667 1092.5 1187.5 1027.5 1276.5 c 128
 962.5 1365.5 878 1410 774 1410 c 128
 670 1410 585.5 1365.5 520.5 1276.5 c 128
 455.5 1187.5 423 1056.66666667 423 884 c 0
 423 640 460.666666667 463.333333333 536 354 c 0
 567.333333333 308.666666667 592.5 275.5 611.5 254.5 c 128
 630.5 233.5 664 202.333333333 712 161 c 1
 712 0 l 1
 132 0 l 1
EndSplineSet
Position2: "Greek Caps after a Breathing and Perispomeni-1" dx=492 dy=0 dh=492 dv=0
Position2: "Greek Caps after a Breathing and Varia-1" dx=460 dy=0 dh=460 dv=0
Position2: "Greek Caps after a Breathing and Oxia-1" dx=598 dy=0 dh=598 dv=0
Position2: "Greek Caps after Breathings-1" dx=412 dy=0 dh=412 dv=0
Position2: "Greek Caps after Varia-1" dx=282 dy=0 dh=282 dv=0
Position2: "Greek Caps after Tonos-1" dx=344 dy=0 dh=344 dv=0
EndChar

StartChar: ae
Encoding: 416 230 160
Width: 1452
GlyphClass: 3
LigCaretCntFixed: 1
Flags: HW
LayerCount: 2
Back
SplineSet
112 199 m 0
 112 279 135.166666667 337 181.5 373 c 128
 227.833333333 409 293 432.333333333 377 443 c 0
 495 458.333333333 581.333333333 484 636 520 c 1
 636 658 l 2
 636 682 633.166666667 704.666666667 627.5 726 c 128
 621.833333333 747.333333333 612.5 767.833333333 599.5 787.5 c 128
 586.5 807.166666667 567.5 822.833333333 542.5 834.5 c 128
 517.5 846.166666667 487.666666667 852 453 852 c 0
 411.666666667 852 376.666666667 842.833333333 348 824.5 c 128
 319.333333333 806.166666667 305 783 305 755 c 0
 305 741 309.666666667 723.333333333 319 702 c 0
 329 680.666666667 334 661.333333333 334 644 c 0
 334 624.666666667 326.833333333 607.833333333 312.5 593.5 c 128
 298.166666667 579.166666667 277 572 249 572 c 0
 217 572 193.166666667 580.5 177.5 597.5 c 128
 161.833333333 614.5 154 637.333333333 154 666 c 0
 154 726.666666667 184.5 780.833333333 245.5 828.5 c 128
 306.5 876.166666667 380 900 466 900 c 0
 583.333333333 900 671.333333333 859.333333333 730 778 c 1
 738 778 l 1
 808 859.333333333 903.666666667 900 1025 900 c 0
 1078.33333333 900 1126.83333333 889.5 1170.5 868.5 c 128
 1214.16666667 847.5 1249 820 1275 786 c 128
 1301 752 1321 715.5 1335 676.5 c 128
 1349 637.5 1356 598.666666667 1356 560 c 0
 1356 531.333333333 1351 510.833333333 1341 498.5 c 128
 1331 486.166666667 1311.33333333 480 1282 480 c 2
 800 480 l 1
 800 426.666666667 802 379.666666667 806 339 c 128
 810 298.333333333 817.666666667 259.166666667 829 221.5 c 128
 840.333333333 183.833333333 855.166666667 152.666666667 873.5 128 c 128
 891.833333333 103.333333333 916 83.8333333333 946 69.5 c 128
 976 55.1666666667 1011.33333333 48 1052 48 c 0
 1124 48 1182.33333333 71.3333333333 1227 118 c 128
 1271.66666667 164.666666667 1298.66666667 224.666666667 1308 298 c 1
 1360 298 l 1
 1357.33333333 260 1349 223.166666667 1335 187.5 c 128
 1321 151.833333333 1300.83333333 118.5 1274.5 87.5 c 128
 1248.16666667 56.5 1213.16666667 31.5 1169.5 12.5 c 128
 1125.83333333 -6.5 1076.66666667 -16 1022 -16 c 0
 942.666666667 -16 875.166666667 -3 819.5 23 c 128
 763.833333333 49 716.666666667 90.6666666667 678 148 c 1
 664 148 l 1
 638 107.333333333 597.166666667 69.8333333333 541.5 35.5 c 128
 485.833333333 1.16666666667 419.333333333 -16 342 -16 c 0
 272 -16 216.166666667 3 174.5 41 c 128
 132.833333333 79 112 131.666666667 112 199 c 0
286 221 m 0
 286 157 298 113.5 322 90.5 c 128
 346 67.5 381.333333333 56 428 56 c 0
 464.666666667 56 503.333333333 70.1666666667 544 98.5 c 128
 584.666666667 126.833333333 615.333333333 160 636 198 c 1
 636 475 l 1
 603.333333333 455.666666667 570.5 441 537.5 431 c 128
 504.5 421 462 412 410 404 c 0
 327.333333333 391.333333333 286 330.333333333 286 221 c 0
801 528 m 1
 1117 528 l 2
 1144.33333333 528 1162.33333333 535.5 1171 550.5 c 128
 1179.66666667 565.5 1184 587 1184 615 c 0
 1184 643.666666667 1180.83333333 671.333333333 1174.5 698 c 128
 1168.16666667 724.666666667 1158.33333333 749.833333333 1145 773.5 c 128
 1131.66666667 797.166666667 1112.83333333 816.166666667 1088.5 830.5 c 128
 1064.16666667 844.833333333 1036 852 1004 852 c 128
 972 852 944 845.333333333 920 832 c 128
 896 818.666666667 877 802 863 782 c 128
 849 762 837.333333333 736.833333333 828 706.5 c 128
 818.666666667 676.166666667 812.166666667 647.333333333 808.5 620 c 128
 804.833333333 592.666666667 802.333333333 562 801 528 c 1
EndSplineSet
Ligature2: "'dlig' Discretionary Ligatures for Latin-1" a e
LCarets2: 1 696 
EndChar

StartChar: oslash
Encoding: 417 248 161
Width: 1040
GlyphClass: 2
Flags: HW
LayerCount: 2
Back
SplineSet
88 14 m 1
 200 135 l 1
 130.666666667 220.333333333 96 322.666666667 96 442 c 0
 96 574 136.833333333 683.333333333 218.5 770 c 128
 300.166666667 856.666666667 400.666666667 900 520 900 c 0
 630 900 724 863 802 789 c 1
 912 908 l 1
 952 870 l 1
 840 749 l 1
 909.333333333 663.666666667 944 561.333333333 944 442 c 0
 944 310 903.166666667 200.666666667 821.5 114 c 128
 739.833333333 27.3333333333 639.333333333 -16 520 -16 c 0
 410 -16 316 21 238 95 c 1
 128 -24 l 1
 88 14 l 1
280 442 m 0
 280 363.333333333 286 296.666666667 298 242 c 1
 724 704 l 1
 685.333333333 802.666666667 617.333333333 852 520 852 c 0
 440.666666667 852 380.833333333 819 340.5 753 c 128
 300.166666667 687 280 583.333333333 280 442 c 0
316 180 m 1
 354.666666667 81.3333333333 422.666666667 32 520 32 c 0
 599.333333333 32 659.166666667 65 699.5 131 c 128
 739.833333333 197 760 300.666666667 760 442 c 0
 760 520.666666667 754 587.333333333 742 642 c 1
 316 180 l 1
EndSplineSet
EndChar

StartChar: questiondown
Encoding: 418 191 162
Width: 852
GlyphClass: 2
Flags: HW
LayerCount: 2
Back
SplineSet
84 -171 m 0
 84 -107 93.3333333333 -50.3333333333 112 -1 c 128
 130.666666667 48.3333333333 155.333333333 86.8333333333 186 114.5 c 128
 216.666666667 142.166666667 248.833333333 162.666666667 282.5 176 c 128
 316.166666667 189.333333333 350.666666667 196 386 196 c 0
 435.333333333 196 476 186 508 166 c 1
 512 170 l 1
 512 545 l 1
 584 545 l 1
 584 48 l 1
 550 48 l 1
 538 73.3333333333 522.666666667 94 504 110 c 0
 474 135.333333333 433.333333333 148 382 148 c 0
 282 148 232 30.6666666667 232 -204 c 0
 232 -241.333333333 234.166666667 -276.666666667 238.5 -310 c 128
 242.833333333 -343.333333333 250.166666667 -376.333333333 260.5 -409 c 128
 270.833333333 -441.666666667 284.166666667 -469.666666667 300.5 -493 c 128
 316.833333333 -516.333333333 338 -535.333333333 364 -550 c 128
 390 -564.666666667 419.666666667 -572 453 -572 c 0
 497.666666667 -572 527.333333333 -554 542 -518 c 0
 550 -498.666666667 554 -465.333333333 554 -418 c 0
 554 -368.666666667 577.333333333 -344 624 -344 c 0
 650.666666667 -344 671.333333333 -351.166666667 686 -365.5 c 128
 700.666666667 -379.833333333 708 -399.666666667 708 -425 c 0
 708 -485 683.166666667 -533.833333333 633.5 -571.5 c 128
 583.833333333 -609.166666667 524.333333333 -628 455 -628 c 0
 379.666666667 -628 313.166666667 -605.166666667 255.5 -559.5 c 128
 197.833333333 -513.833333333 154.833333333 -456.833333333 126.5 -388.5 c 128
 98.1666666667 -320.166666667 84 -247.666666667 84 -171 c 0
422 780 m 128
 422 816 434.333333333 846.333333333 459 871 c 128
 483.666666667 895.666666667 514 908 550 908 c 128
 586 908 616.333333333 895.666666667 641 871 c 128
 665.666666667 846.333333333 678 816 678 780 c 128
 678 744 665.666666667 713.666666667 641 689 c 128
 616.333333333 664.333333333 586 652 550 652 c 128
 514 652 483.666666667 664.333333333 459 689 c 128
 434.333333333 713.666666667 422 744 422 780 c 128
EndSplineSet
EndChar

StartChar: exclamdown
Encoding: 419 161 163
Width: 528
GlyphClass: 2
Flags: HW
LayerCount: 2
Back
SplineSet
126 -459 m 0
 126 -389 134 -306.666666667 150 -212 c 0
 169.333333333 -101.333333333 183.666666667 -1 193 89 c 2
 236 494 l 1
 292 494 l 1
 335 89 l 2
 344.333333333 -1 358.666666667 -101.333333333 378 -212 c 0
 394 -306.666666667 402 -389 402 -459 c 0
 402 -507 390.333333333 -547.166666667 367 -579.5 c 128
 343.666666667 -611.833333333 309.333333333 -628 264 -628 c 128
 218.666666667 -628 184.333333333 -611.833333333 161 -579.5 c 128
 137.666666667 -547.166666667 126 -507 126 -459 c 0
136 780 m 128
 136 816 148.333333333 846.333333333 173 871 c 128
 197.666666667 895.666666667 228 908 264 908 c 128
 300 908 330.333333333 895.666666667 355 871 c 128
 379.666666667 846.333333333 392 816 392 780 c 128
 392 744 379.666666667 713.666666667 355 689 c 128
 330.333333333 664.333333333 300 652 264 652 c 128
 228 652 197.666666667 664.333333333 173 689 c 128
 148.333333333 713.666666667 136 744 136 780 c 128
EndSplineSet
EndChar

StartChar: logicalnot
Encoding: 420 172 164
Width: 1152
GlyphClass: 2
Flags: HW
LayerCount: 2
Back
SplineSet
62 650 m 1
 62 746 l 1
 1090 746 l 1
 1090 274 l 1
 978 274 l 1
 978 650 l 1
 62 650 l 1
EndSplineSet
EndChar

StartChar: radical
Encoding: 421 8730 165
Width: 1556
GlyphClass: 2
Flags: HW
LayerCount: 2
Back
SplineSet
24 659 m 1
 422 958 l 1
 794 20 l 1
 1298 1766 l 1
 1556 1766 l 1
 1556 1678 l 1
 1364 1678 l 1
 788 -322 l 1
 724 -322 l 1
 294 758 l 1
 70 592 l 1
 24 659 l 1
EndSplineSet
EndChar

StartChar: florin
Encoding: 422 402 166
Width: 1104
GlyphClass: 2
Flags: HW
LayerCount: 2
Back
SplineSet
-162 -388 m 0
 -162 -345.333333333 -147 -308.166666667 -117 -276.5 c 128
 -87 -244.833333333 -50.6666666667 -229 -8 -229 c 0
 20.6666666667 -229 42.8333333333 -236.833333333 58.5 -252.5 c 128
 74.1666666667 -268.166666667 82 -287.333333333 82 -310 c 0
 82 -348 61.6666666667 -384 21 -418 c 0
 4.33333333333 -432 -4 -449.333333333 -4 -470 c 0
 -4 -480.666666667 0.5 -489 9.5 -495 c 128
 18.5 -501 28 -504 38 -504 c 0
 91.3333333333 -504 138.666666667 -464.5 180 -385.5 c 128
 221.333333333 -306.5 260.333333333 -195.333333333 297 -52 c 1
 478 680 l 2
 492.666666667 740 506.666666667 794.666666667 520 844 c 1
 292 844 l 1
 300 900 l 1
 536 900 l 1
 554 961.333333333 572.333333333 1017.5 591 1068.5 c 128
 609.666666667 1119.5 633.333333333 1172 662 1226 c 128
 690.666666667 1280 720.833333333 1325.33333333 752.5 1362 c 128
 784.166666667 1398.66666667 821.833333333 1428.83333333 865.5 1452.5 c 128
 909.166666667 1476.16666667 955.666666667 1488 1005 1488 c 0
 1040.33333333 1488 1073.66666667 1474.66666667 1105 1448 c 128
 1136.33333333 1421.33333333 1152 1389.33333333 1152 1352 c 0
 1152 1307.33333333 1141 1270.83333333 1119 1242.5 c 128
 1097 1214.16666667 1067.33333333 1200 1030 1200 c 0
 1001.33333333 1200 978.833333333 1207.33333333 962.5 1222 c 128
 946.166666667 1236.66666667 938 1256.33333333 938 1281 c 0
 938 1311.66666667 952 1337.33333333 980 1358 c 0
 998.666666667 1371.33333333 1008 1385.33333333 1008 1400 c 0
 1008 1421.33333333 989.666666667 1432 953 1432 c 0
 923 1432 894.166666667 1417.5 866.5 1388.5 c 128
 838.833333333 1359.5 813.333333333 1317.5 790 1262.5 c 128
 766.666666667 1207.5 746.166666667 1152.33333333 728.5 1097 c 128
 710.833333333 1041.66666667 692.333333333 976 673 900 c 1
 895 900 l 1
 887 844 l 1
 659 844 l 1
 651 810 l 2
 543 351.333333333 457.333333333 38.6666666667 394 -128 c 0
 370.666666667 -190 346.833333333 -244.833333333 322.5 -292.5 c 128
 298.166666667 -340.166666667 270.5 -385.166666667 239.5 -427.5 c 128
 208.5 -469.833333333 173.833333333 -502.5 135.5 -525.5 c 128
 97.1666666667 -548.5 56.6666666667 -560 14 -560 c 0
 -36.6666666667 -560 -78.6666666667 -543.5 -112 -510.5 c 128
 -145.333333333 -477.5 -162 -436.666666667 -162 -388 c 0
EndSplineSet
EndChar

StartChar: approxequal
Encoding: 423 8776 167
Width: 1152
GlyphClass: 2
Flags: HW
LayerCount: 2
Back
SplineSet
62 268 m 1
 103.333333333 327.333333333 153 375.5 211 412.5 c 128
 269 449.5 332 468 400 468 c 0
 458.666666667 468 538.666666667 446 640 402 c 0
 728.666666667 363.333333333 796 344 842 344 c 128
 888 344 926.833333333 356.166666667 958.5 380.5 c 128
 990.166666667 404.833333333 1022 439.333333333 1054 484 c 1
 1090 448 l 1
 1048.66666667 388.666666667 999 340.5 941 303.5 c 128
 883 266.5 820 248 752 248 c 0
 692 248 612 270 512 314 c 0
 424.666666667 352.666666667 357.333333333 372 310 372 c 0
 263.333333333 372 223.833333333 361 191.5 339 c 128
 159.166666667 317 128 285.333333333 98 244 c 1
 62 268 l 1
62 580 m 1
 103.333333333 639.333333333 153 687.5 211 724.5 c 128
 269 761.5 332 780 400 780 c 0
 458.666666667 780 538.666666667 758 640 714 c 0
 728.666666667 675.333333333 796 656 842 656 c 128
 888 656 926.833333333 668.166666667 958.5 692.5 c 128
 990.166666667 716.833333333 1022 751.333333333 1054 796 c 1
 1090 760 l 1
 1048.66666667 700.666666667 999 652.5 941 615.5 c 128
 883 578.5 820 560 752 560 c 0
 692 560 612 582 512 626 c 0
 424.666666667 664.666666667 357.333333333 684 310 684 c 0
 263.333333333 684 223.833333333 673 191.5 651 c 128
 159.166666667 629 128 597.333333333 98 556 c 1
 62 580 l 1
EndSplineSet
EndChar

StartChar: Deltagreek
Encoding: 424 916 168
Width: 1424
GlyphClass: 2
Flags: HW
LayerCount: 2
Back
SplineSet
144 0 m 1
 732 1462 l 1
 788 1462 l 1
 1326 0 l 1
 144 0 l 1
291 184 m 1
 1043 184 l 1
 684 1160 l 1
 291 184 l 1
EndSplineSet
EndChar

StartChar: OE
Encoding: 432 338 176
Width: 2094
GlyphClass: 3
LigCaretCntFixed: 1
Flags: HW
LayerCount: 2
Back
SplineSet
146 712 m 0
 146 802.666666667 158.666666667 888.166666667 184 968.5 c 128
 209.333333333 1048.83333333 244 1118.66666667 288 1178 c 128
 332 1237.33333333 383 1288.66666667 441 1332 c 128
 499 1375.33333333 561.666666667 1407.83333333 629 1429.5 c 128
 696.333333333 1451.16666667 764.666666667 1462 834 1462 c 0
 877.333333333 1462 927.333333333 1456.33333333 984 1445 c 0
 1019.33333333 1437.66666667 1063.66666667 1434 1117 1434 c 2
 1910 1434 l 1
 1920 1058 l 1
 1868 1058 l 1
 1862.66666667 1084.66666667 1857.66666667 1106.33333333 1853 1123 c 128
 1848.33333333 1139.66666667 1839.5 1163 1826.5 1193 c 128
 1813.5 1223 1797.33333333 1251.33333333 1778 1278 c 0
 1728.66666667 1347.33333333 1652.66666667 1382 1550 1382 c 2
 1190 1382 l 1
 1190 774 l 1
 1376 774 l 2
 1440.66666667 774 1497.33333333 810.666666667 1546 884 c 0
 1560.66666667 906.666666667 1573.33333333 938.333333333 1584 979 c 128
 1594.66666667 1019.66666667 1600 1049.33333333 1600 1068 c 1
 1648 1068 l 1
 1648 434 l 1
 1600 434 l 1
 1600 452.666666667 1594.66666667 482.333333333 1584 523 c 128
 1573.33333333 563.666666667 1560.66666667 595.333333333 1546 618 c 0
 1498.66666667 690 1442 726 1376 726 c 2
 1190 726 l 1
 1190 52 l 1
 1527 52 l 2
 1675.66666667 52 1782.66666667 97 1848 187 c 0
 1880 230.333333333 1902.33333333 270 1915 306 c 128
 1927.66666667 342 1939.33333333 389 1950 447 c 1
 2002 447 l 1
 1996 0 l 1
 1117 0 l 2
 1063.66666667 0 1019.33333333 -3.66666666667 984 -11 c 0
 927.333333333 -22.3333333333 877.333333333 -28 834 -28 c 0
 746 -28 661.166666667 -11 579.5 23 c 128
 497.833333333 57 424.666666667 104.833333333 360 166.5 c 128
 295.333333333 228.166666667 243.5 306.333333333 204.5 401 c 128
 165.5 495.666666667 146 599.333333333 146 712 c 0
380 712 m 0
 380 485.333333333 419.333333333 314 498 198 c 128
 576.666666667 82 688.666666667 24 834 24 c 0
 866.666666667 24 893.166666667 27.1666666667 913.5 33.5 c 128
 933.833333333 39.8333333333 948.833333333 50.3333333333 958.5 65 c 128
 968.166666667 79.6666666667 974.5 95 977.5 111 c 128
 980.5 127 982 148 982 174 c 2
 982 1260 l 2
 982 1286 980.5 1307 977.5 1323 c 128
 974.5 1339 968.166666667 1354.33333333 958.5 1369 c 128
 948.833333333 1383.66666667 933.833333333 1394.16666667 913.5 1400.5 c 128
 893.166666667 1406.83333333 866.666666667 1410 834 1410 c 0
 689.333333333 1410 577.5 1350.5 498.5 1231.5 c 128
 419.5 1112.5 380 939.333333333 380 712 c 0
EndSplineSet
Ligature2: "'dlig' Discretionary Ligatures for Latin-1" O E
Ligature2: "'dlig' Discretionary Ligatures for Latin-1" O e
LCarets2: 1 1100 
EndChar

StartChar: oe
Encoding: 433 339 177
Width: 1556
GlyphClass: 3
LigCaretCntFixed: 1
Flags: HW
LayerCount: 2
Back
SplineSet
96 442 m 128
 96 574 135 683.333333333 213 770 c 128
 291 856.666666667 387 900 501 900 c 0
 563.666666667 900 621.833333333 886.166666667 675.5 858.5 c 128
 729.166666667 830.833333333 774 792 810 742 c 1
 814 742 l 1
 888 847.333333333 994.333333333 900 1133 900 c 0
 1184.33333333 900 1231.5 889.333333333 1274.5 868 c 128
 1317.5 846.666666667 1352.5 819.166666667 1379.5 785.5 c 128
 1406.5 751.833333333 1427.33333333 715.333333333 1442 676 c 128
 1456.66666667 636.666666667 1464 597.666666667 1464 559 c 0
 1464 530.333333333 1459.33333333 510 1450 498 c 128
 1440.66666667 486 1422 480 1394 480 c 2
 906 480 l 1
 906 192 992.333333333 48 1165 48 c 0
 1232.33333333 48 1287.16666667 71.6666666667 1329.5 119 c 128
 1371.83333333 166.333333333 1397.33333333 225.666666667 1406 297 c 1
 1458 297 l 1
 1456 259 1448 222.166666667 1434 186.5 c 128
 1420 150.833333333 1400.33333333 117.5 1375 86.5 c 128
 1349.66666667 55.5 1316 30.6666666667 1274 12 c 128
 1232 -6.66666666667 1184.66666667 -16 1132 -16 c 0
 1066 -16 1005.66666667 -2.33333333333 951 25 c 128
 896.333333333 52.3333333333 850.666666667 91.6666666667 814 143 c 1
 810 143 l 1
 772.666666667 92.3333333333 727.333333333 53.1666666667 674 25.5 c 128
 620.666666667 -2.16666666667 563 -16 501 -16 c 0
 387 -16 291 27.3333333333 213 114 c 128
 135 200.666666667 96 310 96 442 c 128
280 442 m 128
 280 300.666666667 298.5 197 335.5 131 c 128
 372.5 65 427.666666667 32 501 32 c 128
 574.333333333 32 629.5 65 666.5 131 c 128
 703.5 197 722 300.666666667 722 442 c 128
 722 583.333333333 703.5 687 666.5 753 c 128
 629.5 819 574.333333333 852 501 852 c 128
 427.666666667 852 372.5 819 335.5 753 c 128
 298.5 687 280 583.333333333 280 442 c 128
907 528 m 1
 1230 528 l 2
 1256 528 1272.83333333 535.666666667 1280.5 551 c 128
 1288.16666667 566.333333333 1292 591 1292 625 c 0
 1292 653.666666667 1288.5 681 1281.5 707 c 128
 1274.5 733 1264.16666667 757 1250.5 779 c 128
 1236.83333333 801 1218 818.666666667 1194 832 c 128
 1170 845.333333333 1142.66666667 852 1112 852 c 0
 1075.33333333 852 1043.33333333 842.5 1016 823.5 c 128
 988.666666667 804.5 967.333333333 779 952 747 c 128
 936.666666667 715 925.333333333 680.666666667 918 644 c 128
 910.666666667 607.333333333 907 568.666666667 907 528 c 1
EndSplineSet
Ligature2: "'dlig' Discretionary Ligatures for Latin-1" o e
LCarets2: 1 850 
EndChar

StartChar: endash
Encoding: 434 8211 178
Width: 1056
GlyphClass: 2
Flags: HW
LayerCount: 2
Back
SplineSet
12 372 m 1
 12 468 l 1
 1044 468 l 1
 1044 372 l 1
 12 372 l 1
EndSplineSet
EndChar

StartChar: emdash
Encoding: 435 8212 179
Width: 2096
GlyphClass: 2
Flags: HW
LayerCount: 2
Back
SplineSet
12 372 m 1
 12 468 l 1
 2084 468 l 1
 2084 372 l 1
 12 372 l 1
EndSplineSet
EndChar

StartChar: quoteleft
Encoding: 438 8216 182
Width: 528
GlyphClass: 2
Flags: HW
LayerCount: 2
Back
SplineSet
128 1110 m 0
 128 1171.33333333 140 1229.5 164 1284.5 c 128
 188 1339.5 229 1395.33333333 287 1452 c 1
 320 1422 l 1
 274 1372.66666667 240.166666667 1328.33333333 218.5 1289 c 128
 196.833333333 1249.66666667 186 1203.33333333 186 1150 c 0
 186 1125.33333333 198.333333333 1113 223 1113 c 0
 233 1113 245.666666667 1118 261 1128 c 1
 279 1138.66666667 294 1144 306 1144 c 0
 372.666666667 1144 406 1109.66666667 406 1041 c 0
 406 1005.66666667 393.333333333 976.833333333 368 954.5 c 128
 342.666666667 932.166666667 314 921 282 921 c 0
 253.333333333 921 228.5 926.833333333 207.5 938.5 c 128
 186.5 950.166666667 170.5 965.833333333 159.5 985.5 c 128
 148.5 1005.16666667 140.5 1025.33333333 135.5 1046 c 128
 130.5 1066.66666667 128 1088 128 1110 c 0
EndSplineSet
EndChar

StartChar: quoteright
Encoding: 439 8217 183
Width: 528
GlyphClass: 2
Flags: HW
LayerCount: 2
Back
SplineSet
122 1332 m 0
 122 1367.33333333 134.666666667 1396.16666667 160 1418.5 c 128
 185.333333333 1440.83333333 214 1452 246 1452 c 0
 274.666666667 1452 299.5 1446.16666667 320.5 1434.5 c 128
 341.5 1422.83333333 357.5 1407.16666667 368.5 1387.5 c 128
 379.5 1367.83333333 387.5 1347.66666667 392.5 1327 c 128
 397.5 1306.33333333 400 1285 400 1263 c 0
 400 1201.66666667 388 1143.5 364 1088.5 c 128
 340 1033.5 299 977.666666667 241 921 c 1
 208 951 l 1
 254 1000.33333333 287.833333333 1044.66666667 309.5 1084 c 128
 331.166666667 1123.33333333 342 1169.66666667 342 1223 c 0
 342 1247.66666667 329.666666667 1260 305 1260 c 0
 295 1260 282.333333333 1255 267 1245 c 1
 249 1234.33333333 234 1229 222 1229 c 0
 155.333333333 1229 122 1263.33333333 122 1332 c 0
EndSplineSet
EndChar

StartChar: lozenge
Encoding: 441 9674 185
Width: 1130
GlyphClass: 2
Flags: HW
LayerCount: 2
Back
SplineSet
96 734 m 1
 540 1496 l 1
 590 1496 l 1
 1034 734 l 1
 590 -28 l 1
 540 -28 l 1
 96 734 l 1
206 734 m 1
 565 118 l 1
 924 734 l 1
 565 1350 l 1
 206 734 l 1
EndSplineSet
EndChar

StartChar: fraction
Encoding: 444 8260 188
Width: 220
GlyphClass: 2
Flags: HW
LayerCount: 2
Back
SplineSet
-378 -16 m 1
 514 1462 l 1
 598 1462 l 1
 -296 -16 l 1
 -378 -16 l 1
EndSplineSet
EndChar

StartChar: Euro
Encoding: 445 8364 189
Width: 1600
GlyphClass: 2
Flags: HW
LayerCount: 2
Back
SplineSet
110 806 m 1
 128 918 l 1
 324 918 l 1
 361.333333333 1088 443.333333333 1225.5 570 1330.5 c 128
 696.666666667 1435.5 840 1488 1000 1488 c 0
 1096.66666667 1488 1184.66666667 1470 1264 1434 c 128
 1343.33333333 1398 1409.33333333 1354.66666667 1462 1304 c 1
 1422 1186 l 1
 1353.33333333 1249.33333333 1285.83333333 1296.83333333 1219.5 1328.5 c 128
 1153.16666667 1360.16666667 1080 1376 1000 1376 c 0
 868.666666667 1376 754 1333.16666667 656 1247.5 c 128
 558 1161.83333333 491.333333333 1052 456 918 c 1
 1328 918 l 1
 1290 806 l 1
 436 806 l 1
 433.333333333 784 432 758.666666667 432 730 c 128
 432 701.333333333 433.333333333 676 436 654 c 1
 1236 654 l 1
 1198 542 l 1
 456 542 l 1
 491.333333333 408 558 298.166666667 656 212.5 c 128
 754 126.833333333 868.666666667 84 1000 84 c 0
 1152 84 1294.66666667 147.666666667 1428 275 c 1
 1428 136 l 1
 1370 85.3333333333 1307.33333333 45.3333333333 1240 16 c 128
 1172.66666667 -13.3333333333 1092.66666667 -28 1000 -28 c 0
 840 -28 696.666666667 24.5 570 129.5 c 128
 443.333333333 234.5 361.333333333 372 324 542 c 1
 118 542 l 1
 136 654 l 1
 307 654 l 1
 305 679.333333333 304 704.666666667 304 730 c 128
 304 755.333333333 305 780.666666667 307 806 c 1
 110 806 l 1
EndSplineSet
EndChar

StartChar: guilsinglleft
Encoding: 446 8249 190
Width: 646
GlyphClass: 2
Flags: HW
LayerCount: 2
Back
SplineSet
190 442 m 128
 190 507.333333333 208.333333333 561.666666667 245 605 c 128
 281.666666667 648.333333333 333 686 399 718 c 1
 424 679 l 1
 345.333333333 629.666666667 306 550.666666667 306 442 c 128
 306 333.333333333 345.333333333 254.333333333 424 205 c 1
 399 166 l 1
 333 198 281.666666667 235.666666667 245 279 c 128
 208.333333333 322.333333333 190 376.666666667 190 442 c 128
EndSplineSet
EndChar

StartChar: guilsinglright
Encoding: 447 8250 191
Width: 646
GlyphClass: 2
Flags: HW
LayerCount: 2
Back
SplineSet
222 205 m 1
 300.666666667 254.333333333 340 333.333333333 340 442 c 128
 340 550.666666667 300.666666667 629.666666667 222 679 c 1
 247 718 l 1
 313 686 364.333333333 648.333333333 401 605 c 128
 437.666666667 561.666666667 456 507.333333333 456 442 c 128
 456 376.666666667 437.666666667 322.333333333 401 279 c 128
 364.333333333 235.666666667 313 198 247 166 c 1
 222 205 l 1
EndSplineSet
EndChar

StartChar: fi
Encoding: 448 64257 192
Width: 1184
GlyphClass: 3
LigCaretCntFixed: 1
Flags: HW
LayerCount: 2
Back
SplineSet
84 836 m 1
 84 884 l 1
 230 884 l 1
 230 954 l 2
 230 1006.66666667 236.333333333 1059.33333333 249 1112 c 128
 261.666666667 1164.66666667 281.333333333 1215 308 1263 c 128
 334.666666667 1311 366.666666667 1353.5 404 1390.5 c 128
 441.333333333 1427.5 486.333333333 1457 539 1479 c 128
 591.666666667 1501 648.333333333 1512 709 1512 c 0
 790.333333333 1512 856.166666667 1492.66666667 906.5 1454 c 128
 956.833333333 1415.33333333 982 1366.66666667 982 1308 c 0
 982 1220.66666667 941.333333333 1177 860 1177 c 0
 838 1177 820.166666667 1184 806.5 1198 c 128
 792.833333333 1212 786 1231.33333333 786 1256 c 0
 786 1269.33333333 790.333333333 1294.33333333 799 1331 c 0
 805 1354.33333333 808 1372.66666667 808 1386 c 0
 808 1410.66666667 798.166666667 1429.83333333 778.5 1443.5 c 128
 758.833333333 1457.16666667 732.333333333 1464 699 1464 c 0
 598.333333333 1464 522.333333333 1421.5 471 1336.5 c 128
 419.666666667 1251.5 394 1136 394 990 c 2
 394 884 l 1
 610 884 l 1
 610 836 l 1
 394 836 l 1
 394 48 l 1
 536 48 l 1
 536 0 l 1
 88 0 l 1
 88 48 l 1
 230 48 l 1
 230 836 l 1
 84 836 l 1
668 0 m 1
 668 48 l 1
 810 48 l 1
 810 836 l 1
 668 836 l 1
 668 884 l 1
 974 884 l 1
 974 48 l 1
 1116 48 l 1
 1116 0 l 1
 668 0 l 1
EndSplineSet
Ligature2: "'dlig' Discretionary Ligatures for German-1" f i
Ligature2: "'liga' Standard Ligatures for Latin except Turkish-1" f i
LCarets2: 1 632 
EndChar

StartChar: fl
Encoding: 449 64258 193
Width: 1168
GlyphClass: 3
LigCaretCntFixed: 1
Flags: HW
LayerCount: 2
Back
SplineSet
84 836 m 1
 84 884 l 1
 230 884 l 1
 230 954 l 2
 230 1033.33333333 237.166666667 1105 251.5 1169 c 128
 265.833333333 1233 285 1286 309 1328 c 128
 333 1370 361.833333333 1405 395.5 1433 c 128
 429.166666667 1461 464.5 1481.16666667 501.5 1493.5 c 128
 538.5 1505.83333333 578 1512 620 1512 c 0
 701.333333333 1512 765.666666667 1483.66666667 813 1427 c 1
 922 1512 l 1
 958 1512 l 1
 958 48 l 1
 1100 48 l 1
 1100 0 l 1
 652 0 l 1
 652 48 l 1
 794 48 l 1
 794 1172 l 2
 794 1214.66666667 791.166666667 1252.5 785.5 1285.5 c 128
 779.833333333 1318.5 770.5 1349 757.5 1377 c 128
 744.5 1405 725.333333333 1426.5 700 1441.5 c 128
 674.666666667 1456.5 643.666666667 1464 607 1464 c 0
 540.333333333 1464 488.166666667 1431.16666667 450.5 1365.5 c 128
 412.833333333 1299.83333333 394 1199.33333333 394 1064 c 2
 394 884 l 1
 610 884 l 1
 610 836 l 1
 394 836 l 1
 394 48 l 1
 536 48 l 1
 536 0 l 1
 88 0 l 1
 88 48 l 1
 230 48 l 1
 230 836 l 1
 84 836 l 1
EndSplineSet
Ligature2: "'dlig' Discretionary Ligatures for German-1" f l
Ligature2: "'liga' Standard Ligatures for Latin-1" f l
LCarets2: 1 604 
EndChar

